<?xml version="1.0" encoding="UTF-8" standalone="no"?>
<!DOCTYPE svg PUBLIC "-//W3C//DTD SVG 1.1//EN"
 "http://www.w3.org/Graphics/SVG/1.1/DTD/svg11.dtd">
<!-- Generated by graphviz version 2.40.1 (20161225.0304)
 -->
<!-- Title: G Pages: 1 -->
<svg width="881pt" height="597pt"
 viewBox="0.00 0.00 881.12 597.00" xmlns="http://www.w3.org/2000/svg" xmlns:xlink="http://www.w3.org/1999/xlink">
<g id="graph0" class="graph" transform="scale(1 1) rotate(0) translate(4 593)">
<title>G</title>
<polygon fill="#ffffff" stroke="transparent" points="-4,4 -4,-593 877.115,-593 877.115,4 -4,4"/>
<!-- A0 -->
<g id="node1" class="node">
<title>A0</title>
<polygon fill="none" stroke="#000000" points="372.5,-533 372.5,-565 473.5,-565 473.5,-533 372.5,-533"/>
<text text-anchor="start" x="405.2185" y="-546" font-family="Helvetica,sans-Serif" font-size="10.00" fill="#000000">Position</text>
<polygon fill="none" stroke="#000000" points="372.5,-501 372.5,-533 473.5,-533 473.5,-501 372.5,-501"/>
<text text-anchor="start" x="382.1635" y="-514" font-family="Helvetica,sans-Serif" font-size="10.00" fill="#000000"> &#45;description:string</text>
</g>
<!-- A11 -->
<g id="node12" class="node">
<title>A11</title>
<polygon fill="#f5deb3" stroke="#000000" points="468.6371,-483 370.3629,-483 370.3629,-415 474.6371,-415 474.6371,-477 468.6371,-483"/>
<polyline fill="none" stroke="#000000" points="468.6371,-483 468.6371,-477 "/>
<polyline fill="none" stroke="#000000" points="474.6371,-477 468.6371,-477 "/>
<text text-anchor="middle" x="422.5" y="-470" font-family="Helvetica,sans-Serif" font-size="10.00" fill="#000000">Resp.Geral</text>
<text text-anchor="middle" x="422.5" y="-458" font-family="Helvetica,sans-Serif" font-size="10.00" fill="#000000">Resp.Núcleo</text>
<text text-anchor="middle" x="422.5" y="-446" font-family="Helvetica,sans-Serif" font-size="10.00" fill="#000000">Resp.Seção</text>
<text text-anchor="middle" x="422.5" y="-434" font-family="Helvetica,sans-Serif" font-size="10.00" fill="#000000">Resp.Técnico</text>
<text text-anchor="middle" x="422.5" y="-422" font-family="Helvetica,sans-Serif" font-size="10.00" fill="#000000">Resp.Estudo etc.</text>
</g>
<!-- A0&#45;&gt;A11 -->
<g id="edge11" class="edge">
<title>A0&#45;&gt;A11</title>
<path fill="none" stroke="#000000" stroke-dasharray="5,2" d="M422.5,-500.6592C422.5,-494.8145 422.5,-488.9697 422.5,-483.125"/>
</g>
<!-- A1 -->
<g id="node2" class="node">
<title>A1</title>
<polygon fill="none" stroke="#000000" points="768.5575,-476 768.5575,-508 869.5575,-508 869.5575,-476 768.5575,-476"/>
<text text-anchor="start" x="790.712" y="-489" font-family="Helvetica,sans-Serif" font-size="10.00" fill="#000000">Phone_Type</text>
<polygon fill="none" stroke="#000000" points="768.5575,-444 768.5575,-476 869.5575,-476 869.5575,-444 768.5575,-444"/>
<text text-anchor="start" x="778.221" y="-457" font-family="Helvetica,sans-Serif" font-size="10.00" fill="#000000"> &#45;description:string</text>
</g>
<!-- A12 -->
<g id="node13" class="node">
<title>A12</title>
<polygon fill="#f5deb3" stroke="#000000" points="867.1726,-426 763.9424,-426 763.9424,-390 873.1726,-390 873.1726,-420 867.1726,-426"/>
<polyline fill="none" stroke="#000000" points="867.1726,-426 867.1726,-420 "/>
<polyline fill="none" stroke="#000000" points="873.1726,-420 867.1726,-420 "/>
<text text-anchor="middle" x="818.5575" y="-411" font-family="Helvetica,sans-Serif" font-size="10.00" fill="#000000">mobile home work</text>
<text text-anchor="middle" x="818.5575" y="-399" font-family="Helvetica,sans-Serif" font-size="10.00" fill="#000000">whatsapp etc.</text>
</g>
<!-- A1&#45;&gt;A12 -->
<g id="edge14" class="edge">
<title>A1&#45;&gt;A12</title>
<path fill="none" stroke="#000000" stroke-dasharray="5,2" d="M818.5575,-443.6187C818.5575,-437.7666 818.5575,-431.9146 818.5575,-426.0625"/>
</g>
<!-- A2 -->
<g id="node3" class="node">
<title>A2</title>
<polygon fill="none" stroke="#000000" points="566,-482 566,-514 686,-514 686,-482 566,-482"/>
<text text-anchor="start" x="611.5475" y="-495" font-family="Helvetica,sans-Serif" font-size="10.00" fill="#000000">Phone</text>
<polygon fill="none" stroke="#000000" points="566,-438 566,-482 686,-482 686,-438 566,-438"/>
<text text-anchor="start" x="575.71" y="-463" font-family="Helvetica,sans-Serif" font-size="10.00" fill="#000000"> &#45;phone_number:string</text>
<text text-anchor="start" x="587.108" y="-451" font-family="Helvetica,sans-Serif" font-size="10.00" fill="#000000"> &#45;primary:boolean</text>
</g>
<!-- A2&#45;&gt;A1 -->
<g id="edge13" class="edge">
<title>A2&#45;&gt;A1</title>
<path fill="none" stroke="#000000" d="M686.1343,-476C708.9093,-476 734.8409,-476 757.6834,-476"/>
<polygon fill="#000000" stroke="#000000" points="767.9387,-476 757.9388,-480.5001 762.9387,-476 757.9387,-476.0001 757.9387,-476.0001 757.9387,-476.0001 762.9387,-476 757.9387,-471.5001 767.9387,-476 767.9387,-476"/>
<text text-anchor="middle" x="749.8126" y="-481.4524" font-family="Helvetica,sans-Serif" font-size="10.00" fill="#000000">1</text>
<text text-anchor="middle" x="704.2605" y="-464.5476" font-family="Helvetica,sans-Serif" font-size="10.00" fill="#000000">*</text>
</g>
<!-- A3 -->
<g id="node4" class="node">
<title>A3</title>
<polygon fill="none" stroke="#000000" points="567,-388 567,-420 685,-420 685,-388 567,-388"/>
<text text-anchor="start" x="613.5025" y="-401" font-family="Helvetica,sans-Serif" font-size="10.00" fill="#000000">Email</text>
<polygon fill="none" stroke="#000000" points="567,-344 567,-388 685,-388 685,-344 567,-344"/>
<text text-anchor="start" x="576.8295" y="-369" font-family="Helvetica,sans-Serif" font-size="10.00" fill="#000000"> &#45;email_address:string</text>
<text text-anchor="start" x="587.108" y="-357" font-family="Helvetica,sans-Serif" font-size="10.00" fill="#000000"> &#45;primary:boolean</text>
</g>
<!-- A4 -->
<g id="node5" class="node">
<title>A4</title>
<polygon fill="none" stroke="#000000" points="571,-294 571,-326 682,-326 682,-294 571,-294"/>
<text text-anchor="start" x="608.1625" y="-307" font-family="Helvetica,sans-Serif" font-size="10.00" fill="#000000">Address</text>
<polygon fill="none" stroke="#000000" points="571,-178 571,-294 682,-294 682,-178 571,-178"/>
<text text-anchor="start" x="601.775" y="-275" font-family="Helvetica,sans-Serif" font-size="10.00" fill="#000000"> &#45;cep:string</text>
<text text-anchor="start" x="593.441" y="-251" font-family="Helvetica,sans-Serif" font-size="10.00" fill="#000000">&#45;address:string</text>
<text text-anchor="start" x="580.6545" y="-227" font-family="Helvetica,sans-Serif" font-size="10.00" fill="#000000">&#45;neighborhood:string</text>
<text text-anchor="start" x="602.335" y="-215" font-family="Helvetica,sans-Serif" font-size="10.00" fill="#000000"> &#45;city:string</text>
<text text-anchor="start" x="598.996" y="-203" font-family="Helvetica,sans-Serif" font-size="10.00" fill="#000000"> &#45;state:string</text>
<text text-anchor="start" x="587.608" y="-191" font-family="Helvetica,sans-Serif" font-size="10.00" fill="#000000"> &#45;primary:boolean</text>
</g>
<!-- A5 -->
<g id="node6" class="node">
<title>A5</title>
<polygon fill="none" stroke="#000000" points="167,-557 167,-589 307,-589 307,-557 167,-557"/>
<text text-anchor="start" x="202.8255" y="-570" font-family="Helvetica,sans-Serif" font-size="10.00" fill="#000000">EnsembleLevel</text>
<polygon fill="none" stroke="#000000" points="167,-513 167,-557 307,-557 307,-513 167,-513"/>
<text text-anchor="start" x="196.1635" y="-538" font-family="Helvetica,sans-Serif" font-size="10.00" fill="#000000"> &#45;description:string</text>
<text text-anchor="start" x="176.707" y="-526" font-family="Helvetica,sans-Serif" font-size="10.00" fill="#000000"> &#45;precedence_order:integer</text>
</g>
<!-- A10 -->
<g id="node11" class="node">
<title>A10</title>
<polygon fill="#f5deb3" stroke="#000000" points="295.6201,-495 172.3799,-495 172.3799,-439 301.6201,-439 301.6201,-489 295.6201,-495"/>
<polyline fill="none" stroke="#000000" points="295.6201,-495 295.6201,-489 "/>
<polyline fill="none" stroke="#000000" points="301.6201,-489 295.6201,-489 "/>
<text text-anchor="middle" x="237" y="-482" font-family="Helvetica,sans-Serif" font-size="10.00" fill="#000000">TONacional</text>
<text text-anchor="middle" x="237" y="-470" font-family="Helvetica,sans-Serif" font-size="10.00" fill="#000000">Coord.Geral</text>
<text text-anchor="middle" x="237" y="-458" font-family="Helvetica,sans-Serif" font-size="10.00" fill="#000000">Coordenadoria Núcleo</text>
<text text-anchor="middle" x="237" y="-446" font-family="Helvetica,sans-Serif" font-size="10.00" fill="#000000">Seção etc.</text>
</g>
<!-- A5&#45;&gt;A10 -->
<g id="edge1" class="edge">
<title>A5&#45;&gt;A10</title>
<path fill="none" stroke="#000000" stroke-dasharray="5,2" d="M237,-512.6504C237,-506.8398 237,-501.0293 237,-495.2188"/>
</g>
<!-- A6 -->
<g id="node7" class="node">
<title>A6</title>
<polygon fill="none" stroke="#000000" points=".5,-401 .5,-433 117.5,-433 117.5,-401 .5,-401"/>
<text text-anchor="start" x="36.7735" y="-414" font-family="Helvetica,sans-Serif" font-size="10.00" fill="#000000">Ensemble</text>
<polygon fill="none" stroke="#000000" points=".5,-333 .5,-401 117.5,-401 117.5,-333 .5,-333"/>
<text text-anchor="start" x="29.831" y="-382" font-family="Helvetica,sans-Serif" font-size="10.00" fill="#000000"> &#45;name:string</text>
<text text-anchor="start" x="10.3655" y="-358" font-family="Helvetica,sans-Serif" font-size="10.00" fill="#000000">&#45;foundation_date:date</text>
<text text-anchor="start" x="31.7755" y="-346" font-family="Helvetica,sans-Serif" font-size="10.00" fill="#000000"> &#45;history:text</text>
</g>
<!-- A6&#45;&gt;A5 -->
<g id="edge2" class="edge">
<title>A6&#45;&gt;A5</title>
<path fill="none" stroke="#000000" d="M98.4457,-433.0149C117.9163,-455.9024 142.4041,-482.6205 167,-504 167.9632,-504.8373 168.942,-505.672 169.9343,-506.5034"/>
<polygon fill="#000000" stroke="#000000" points="177.7675,-512.7995 167.154,-510.0422 173.8703,-509.6671 169.9731,-506.5347 169.9731,-506.5347 169.9731,-506.5347 173.8703,-509.6671 172.7923,-503.0272 177.7675,-512.7995 177.7675,-512.7995"/>
<text text-anchor="middle" x="158.3441" y="-505.0319" font-family="Helvetica,sans-Serif" font-size="10.00" fill="#000000">1 level</text>
</g>
<!-- A6&#45;&gt;A6 -->
<g id="edge3" class="edge">
<title>A6&#45;&gt;A6</title>
<path fill="none" stroke="#000000" d="M26.2983,-433.1139C29.688,-443.5182 40.4219,-451 58.5,-451 70.9287,-451 79.8861,-447.4637 85.3722,-441.8726"/>
<polygon fill="#000000" stroke="#000000" points="90.7017,-433.1139 89.3478,-443.9959 88.1026,-437.3853 85.5035,-441.6567 85.5035,-441.6567 85.5035,-441.6567 88.1026,-437.3853 81.6593,-439.3176 90.7017,-433.1139 90.7017,-433.1139"/>
<text text-anchor="middle" x="88.5003" y="-449.9924" font-family="Helvetica,sans-Serif" font-size="10.00" fill="#000000">ensembles *</text>
<text text-anchor="middle" x="40.9771" y="-443.6982" font-family="Helvetica,sans-Serif" font-size="10.00" fill="#000000">1</text>
</g>
<!-- A7 -->
<g id="node8" class="node">
<title>A7</title>
<polygon fill="none" stroke="#000000" points="173,-389 173,-421 301,-421 301,-389 173,-389"/>
<text text-anchor="start" x="221.438" y="-402" font-family="Helvetica,sans-Serif" font-size="10.00" fill="#000000">Leader</text>
<polygon fill="none" stroke="#000000" points="173,-345 173,-389 301,-389 301,-345 173,-345"/>
<text text-anchor="start" x="182.8115" y="-370" font-family="Helvetica,sans-Serif" font-size="10.00" fill="#000000"> &#45;appointment_date:date</text>
<text text-anchor="start" x="198.108" y="-358" font-family="Helvetica,sans-Serif" font-size="10.00" fill="#000000"> &#45;primary:boolean</text>
</g>
<!-- A6&#45;&gt;A7 -->
<g id="edge4" class="edge">
<title>A6&#45;&gt;A7</title>
<path fill="none" stroke="#000000" d="M129.7626,-383C140.5618,-383 151.7277,-383 162.5916,-383"/>
<polygon fill="#000000" stroke="#000000" points="129.4423,-383.0001 123.4422,-387 117.4423,-383 123.4423,-379 129.4423,-383.0001"/>
<polygon fill="#000000" stroke="#000000" points="172.8933,-383 162.8933,-387.5001 167.8933,-383 162.8933,-383.0001 162.8933,-383.0001 162.8933,-383.0001 167.8933,-383 162.8932,-378.5001 172.8933,-383 172.8933,-383"/>
<text text-anchor="middle" x="154.7671" y="-388.4524" font-family="Helvetica,sans-Serif" font-size="10.00" fill="#000000">leadership 1..*</text>
<text text-anchor="middle" x="135.5684" y="-371.5476" font-family="Helvetica,sans-Serif" font-size="10.00" fill="#000000">*</text>
</g>
<!-- A8 -->
<g id="node9" class="node">
<title>A8</title>
<polygon fill="none" stroke="#000000" points="357.5,-365 357.5,-397 488.5,-397 488.5,-365 357.5,-365"/>
<text text-anchor="start" x="404.668" y="-378" font-family="Helvetica,sans-Serif" font-size="10.00" fill="#000000">Member</text>
<polygon fill="none" stroke="#000000" points="357.5,-237 357.5,-365 488.5,-365 488.5,-237 357.5,-237"/>
<text text-anchor="start" x="393.831" y="-346" font-family="Helvetica,sans-Serif" font-size="10.00" fill="#000000"> &#45;name:string</text>
<text text-anchor="start" x="383.264" y="-322" font-family="Helvetica,sans-Serif" font-size="10.00" fill="#000000">&#45;joining_date:date</text>
<text text-anchor="start" x="390.7675" y="-298" font-family="Helvetica,sans-Serif" font-size="10.00" fill="#000000">&#45;birthdate:date</text>
<text text-anchor="start" x="367.156" y="-274" font-family="Helvetica,sans-Serif" font-size="10.00" fill="#000000">&#45;identity_document:string</text>
<text text-anchor="start" x="399.665" y="-262" font-family="Helvetica,sans-Serif" font-size="10.00" fill="#000000"> &#45;cpf:string</text>
<text text-anchor="start" x="369.661" y="-250" font-family="Helvetica,sans-Serif" font-size="10.00" fill="#000000"> &#45;food_restrictions:string</text>
</g>
<!-- A6&#45;&gt;A8 -->
<g id="edge5" class="edge">
<title>A6&#45;&gt;A8</title>
<path fill="none" stroke="#000000" d="M128.5612,-348.6296C141.1125,-343.6408 154.2572,-339.1387 167,-336 226.3178,-321.3894 295.5286,-316.9872 346.9437,-316.0451"/>
<polygon fill="#000000" stroke="#000000" points="128.3166,-348.7309 124.304,-354.7224 117.23,-353.3229 121.2426,-347.3313 128.3166,-348.7309"/>
<polygon fill="#000000" stroke="#000000" points="356.9812,-315.9008 347.047,-320.5442 351.9817,-315.9728 346.9823,-316.0447 346.9823,-316.0447 346.9823,-316.0447 351.9817,-315.9728 346.9175,-311.5451 356.9812,-315.9008 356.9812,-315.9008"/>
<text text-anchor="middle" x="338.9784" y="-321.6128" font-family="Helvetica,sans-Serif" font-size="10.00" fill="#000000">members 1..*</text>
<text text-anchor="middle" x="130.7421" y="-335.5776" font-family="Helvetica,sans-Serif" font-size="10.00" fill="#000000">1</text>
</g>
<!-- A7&#45;&gt;A0 -->
<g id="edge10" class="edge">
<title>A7&#45;&gt;A0</title>
<path fill="none" stroke="#000000" d="M296.7711,-421.2788C300.3219,-424.1166 303.7622,-427.0334 307,-430 333.1006,-453.9143 330.52,-468.5064 357,-492 359.1639,-493.9198 361.4279,-495.8071 363.7598,-497.6537"/>
<polygon fill="#000000" stroke="#000000" points="371.9034,-503.7636 361.2038,-501.3617 367.9039,-500.7629 363.9044,-497.7622 363.9044,-497.7622 363.9044,-497.7622 367.9039,-500.7629 366.6051,-494.1626 371.9034,-503.7636 371.9034,-503.7636"/>
<text text-anchor="middle" x="352.3318" y="-496.6464" font-family="Helvetica,sans-Serif" font-size="10.00" fill="#000000">act_as 1</text>
</g>
<!-- A7&#45;&gt;A8 -->
<g id="edge12" class="edge">
<title>A7&#45;&gt;A8</title>
<path fill="none" stroke="#000000" d="M310.9449,-356.6908C326.1096,-351.2952 341.9744,-345.6506 356.8243,-340.3671"/>
<polygon fill="#000000" stroke="#000000" points="301.0983,-360.1941 309.0113,-352.6023 305.809,-358.518 310.5198,-356.842 310.5198,-356.842 310.5198,-356.842 305.809,-358.518 312.0282,-361.0816 301.0983,-360.1941 301.0983,-360.1941"/>
<text text-anchor="middle" x="342.5802" y="-351.4065" font-family="Helvetica,sans-Serif" font-size="10.00" fill="#000000">1</text>
<text text-anchor="middle" x="315.3424" y="-343.1547" font-family="Helvetica,sans-Serif" font-size="10.00" fill="#000000">positions *</text>
</g>
<!-- A8&#45;&gt;A2 -->
<g id="edge7" class="edge">
<title>A8&#45;&gt;A2</title>
<path fill="none" stroke="#000000" d="M488.0704,-386.6917C503.7042,-401.5351 520.8507,-416.4888 538,-429 543.9643,-433.3512 550.382,-437.5564 556.937,-441.5436"/>
<polygon fill="#000000" stroke="#000000" points="565.9308,-446.8389 555.0303,-445.6431 561.6221,-444.3021 557.3134,-441.7652 557.3134,-441.7652 557.3134,-441.7652 561.6221,-444.3021 559.5966,-437.8874 565.9308,-446.8389 565.9308,-446.8389"/>
<text text-anchor="middle" x="546.0225" y="-441.9261" font-family="Helvetica,sans-Serif" font-size="10.00" fill="#000000">phones *</text>
<text text-anchor="middle" x="507.0641" y="-389.9559" font-family="Helvetica,sans-Serif" font-size="10.00" fill="#000000">1</text>
</g>
<!-- A8&#45;&gt;A3 -->
<g id="edge8" class="edge">
<title>A8&#45;&gt;A3</title>
<path fill="none" stroke="#000000" d="M488.0088,-337.9242C510.0732,-344.9718 534.753,-352.8548 557.0728,-359.9839"/>
<polygon fill="#000000" stroke="#000000" points="566.8104,-363.0942 555.9153,-364.3382 562.0475,-361.5729 557.2846,-360.0515 557.2846,-360.0515 557.2846,-360.0515 562.0475,-361.5729 558.6538,-355.7649 566.8104,-363.0942 566.8104,-363.0942"/>
<text text-anchor="middle" x="546.9719" y="-362.6307" font-family="Helvetica,sans-Serif" font-size="10.00" fill="#000000">emails *</text>
<text text-anchor="middle" x="507.8473" y="-332.3878" font-family="Helvetica,sans-Serif" font-size="10.00" fill="#000000">1</text>
</g>
<!-- A8&#45;&gt;A4 -->
<g id="edge9" class="edge">
<title>A8&#45;&gt;A4</title>
<path fill="none" stroke="#000000" d="M488.0088,-296.0758C511.1888,-288.6719 537.2554,-280.346 560.4396,-272.9407"/>
<polygon fill="#000000" stroke="#000000" points="570.1825,-269.8287 562.0258,-277.1581 565.4195,-271.3501 560.6566,-272.8714 560.6566,-272.8714 560.6566,-272.8714 565.4195,-271.3501 559.2874,-268.5848 570.1825,-269.8287 570.1825,-269.8287"/>
<text text-anchor="middle" x="555.4875" y="-280.3955" font-family="Helvetica,sans-Serif" font-size="10.00" fill="#000000">addresses *</text>
<text text-anchor="middle" x="502.7038" y="-279.509" font-family="Helvetica,sans-Serif" font-size="10.00" fill="#000000">1</text>
</g>
<!-- A9 -->
<g id="node10" class="node">
<title>A9</title>
<polygon fill="none" stroke="#000000" points="538,-128 538,-160 714,-160 714,-128 538,-128"/>
<text text-anchor="start" x="565.9875" y="-141" font-family="Helvetica,sans-Serif" font-size="10.00" fill="#000000">Organizational_Information</text>
<polygon fill="none" stroke="#000000" points="538,0 538,-128 714,-128 714,0 538,0"/>
<text text-anchor="start" x="571.8195" y="-109" font-family="Helvetica,sans-Serif" font-size="10.00" fill="#000000"> &#45;associated_code:string</text>
<text text-anchor="start" x="576.26" y="-97" font-family="Helvetica,sans-Serif" font-size="10.00" fill="#000000"> &#45;convertion_date:date</text>
<text text-anchor="start" x="547.9255" y="-85" font-family="Helvetica,sans-Serif" font-size="10.00" fill="#000000"> &#45;vertical_structure:not_defined_yet</text>
<text text-anchor="start" x="592.1075" y="-73" font-family="Helvetica,sans-Serif" font-size="10.00" fill="#000000"> &#45;position:string</text>
<text text-anchor="start" x="584.328" y="-61" font-family="Helvetica,sans-Serif" font-size="10.00" fill="#000000"> &#45;study_level:string</text>
<text text-anchor="start" x="564.321" y="-49" font-family="Helvetica,sans-Serif" font-size="10.00" fill="#000000"> &#45;conversions_made:integer</text>
<text text-anchor="start" x="559.872" y="-37" font-family="Helvetica,sans-Serif" font-size="10.00" fill="#000000"> &#45;discussion_meeting:boolean</text>
<text text-anchor="start" x="552.645" y="-25" font-family="Helvetica,sans-Serif" font-size="10.00" fill="#000000"> &#45;sustaining_contribution:boolean</text>
<text text-anchor="start" x="547.925" y="-13" font-family="Helvetica,sans-Serif" font-size="10.00" fill="#000000"> &#45;publications_subscription:boolean</text>
</g>
<!-- A8&#45;&gt;A9 -->
<g id="edge6" class="edge">
<title>A8&#45;&gt;A9</title>
<path fill="none" stroke="#000000" d="M482.2698,-236.8874C499.7177,-214.4845 519.1692,-190.4177 538,-169 538.4035,-168.541 538.8088,-168.0814 539.2158,-167.6212"/>
<polygon fill="#000000" stroke="#000000" points="545.9405,-160.1254 542.6122,-170.574 542.6016,-163.8472 539.2626,-167.569 539.2626,-167.569 539.2626,-167.569 542.6016,-163.8472 535.913,-164.5639 545.9405,-160.1254 545.9405,-160.1254"/>
<text text-anchor="middle" x="540.1277" y="-176.262" font-family="Helvetica,sans-Serif" font-size="10.00" fill="#000000">1</text>
</g>
</g>
</svg>
