<?xml version="1.0" encoding="UTF-8" standalone="no"?>
<!DOCTYPE svg PUBLIC "-//W3C//DTD SVG 1.1//EN"
 "http://www.w3.org/Graphics/SVG/1.1/DTD/svg11.dtd">
<!-- Generated by graphviz version 2.40.1 (20161225.0304)
 -->
<!-- Title: G Pages: 1 -->
<svg width="952pt" height="812pt"
 viewBox="0.00 0.00 952.00 812.00" xmlns="http://www.w3.org/2000/svg" xmlns:xlink="http://www.w3.org/1999/xlink">
<g id="graph0" class="graph" transform="scale(1 1) rotate(0) translate(4 808)">
<title>G</title>
<polygon fill="#ffffff" stroke="transparent" points="-4,4 -4,-808 948,-808 948,4 -4,4"/>
<!-- A0 -->
<g id="node1" class="node">
<title>A0</title>
<polygon fill="none" stroke="#000000" points="608,-772 608,-804 748,-804 748,-772 608,-772"/>
<text text-anchor="start" x="660.2185" y="-785" font-family="Helvetica,sans-Serif" font-size="10.00" fill="#000000">Position</text>
<polygon fill="none" stroke="#000000" points="608,-728 608,-772 748,-772 748,-728 608,-728"/>
<text text-anchor="start" x="637.1635" y="-753" font-family="Helvetica,sans-Serif" font-size="10.00" fill="#000000"> &#45;description:string</text>
<text text-anchor="start" x="617.707" y="-741" font-family="Helvetica,sans-Serif" font-size="10.00" fill="#000000"> &#45;precedence_order:integer</text>
</g>
<!-- A14 -->
<g id="node15" class="node">
<title>A14</title>
<polygon fill="#f5deb3" stroke="#000000" points="726.6855,-710 623.3145,-710 623.3145,-674 732.6855,-674 732.6855,-704 726.6855,-710"/>
<polyline fill="none" stroke="#000000" points="726.6855,-710 726.6855,-704 "/>
<polyline fill="none" stroke="#000000" points="732.6855,-704 726.6855,-704 "/>
<text text-anchor="middle" x="678" y="-695" font-family="Helvetica,sans-Serif" font-size="10.00" fill="#000000">Supervisor Leader</text>
<text text-anchor="middle" x="678" y="-683" font-family="Helvetica,sans-Serif" font-size="10.00" fill="#000000">Vice etc.</text>
</g>
<!-- A0&#45;&gt;A14 -->
<g id="edge13" class="edge">
<title>A0&#45;&gt;A14</title>
<path fill="none" stroke="#000000" stroke-dasharray="5,2" d="M678,-727.645C678,-721.8337 678,-716.0223 678,-710.2109"/>
</g>
<!-- A1 -->
<g id="node2" class="node">
<title>A1</title>
<polygon fill="none" stroke="#000000" points="828.5,-627 828.5,-659 929.5,-659 929.5,-627 828.5,-627"/>
<text text-anchor="start" x="850.6545" y="-640" font-family="Helvetica,sans-Serif" font-size="10.00" fill="#000000">Phone_Type</text>
<polygon fill="none" stroke="#000000" points="828.5,-595 828.5,-627 929.5,-627 929.5,-595 828.5,-595"/>
<text text-anchor="start" x="838.1635" y="-608" font-family="Helvetica,sans-Serif" font-size="10.00" fill="#000000"> &#45;description:string</text>
</g>
<!-- A15 -->
<g id="node16" class="node">
<title>A15</title>
<polygon fill="#f5deb3" stroke="#000000" points="927.1151,-577 823.8849,-577 823.8849,-541 933.1151,-541 933.1151,-571 927.1151,-577"/>
<polyline fill="none" stroke="#000000" points="927.1151,-577 927.1151,-571 "/>
<polyline fill="none" stroke="#000000" points="933.1151,-571 927.1151,-571 "/>
<text text-anchor="middle" x="878.5" y="-562" font-family="Helvetica,sans-Serif" font-size="10.00" fill="#000000">mobile home work</text>
<text text-anchor="middle" x="878.5" y="-550" font-family="Helvetica,sans-Serif" font-size="10.00" fill="#000000">whatsapp etc.</text>
</g>
<!-- A1&#45;&gt;A15 -->
<g id="edge16" class="edge">
<title>A1&#45;&gt;A15</title>
<path fill="none" stroke="#000000" stroke-dasharray="5,2" d="M878.5,-594.6187C878.5,-588.7666 878.5,-582.9146 878.5,-577.0625"/>
</g>
<!-- A2 -->
<g id="node3" class="node">
<title>A2</title>
<polygon fill="none" stroke="#000000" points="603,-624 603,-656 754,-656 754,-624 603,-624"/>
<text text-anchor="start" x="664.0475" y="-637" font-family="Helvetica,sans-Serif" font-size="10.00" fill="#000000">Phone</text>
<polygon fill="none" stroke="#000000" points="603,-568 603,-624 754,-624 754,-568 603,-568"/>
<text text-anchor="start" x="628.21" y="-605" font-family="Helvetica,sans-Serif" font-size="10.00" fill="#000000"> &#45;phone_number:string</text>
<text text-anchor="start" x="612.935" y="-593" font-family="Helvetica,sans-Serif" font-size="10.00" fill="#000000"> &#45;additional_information:string</text>
<text text-anchor="start" x="639.608" y="-581" font-family="Helvetica,sans-Serif" font-size="10.00" fill="#000000"> &#45;primary:boolean</text>
</g>
<!-- A2&#45;&gt;A1 -->
<g id="edge15" class="edge">
<title>A2&#45;&gt;A1</title>
<path fill="none" stroke="#000000" d="M753.5148,-617.6495C774.7865,-619.2409 797.6431,-620.9509 817.9185,-622.4677"/>
<polygon fill="#000000" stroke="#000000" points="827.9539,-623.2185 817.646,-626.9598 822.9679,-622.8454 817.9818,-622.4724 817.9818,-622.4724 817.9818,-622.4724 822.9679,-622.8454 818.3176,-617.9849 827.9539,-623.2185 827.9539,-623.2185"/>
<text text-anchor="middle" x="809.2477" y="-627.295" font-family="Helvetica,sans-Serif" font-size="10.00" fill="#000000">1</text>
<text text-anchor="middle" x="772.221" y="-607.573" font-family="Helvetica,sans-Serif" font-size="10.00" fill="#000000">*</text>
</g>
<!-- A3 -->
<g id="node4" class="node">
<title>A3</title>
<polygon fill="none" stroke="#000000" points="813.5,-491 813.5,-523 944.5,-523 944.5,-491 813.5,-491"/>
<text text-anchor="start" x="823.4295" y="-504" font-family="Helvetica,sans-Serif" font-size="10.00" fill="#000000">Identity_Document_Type</text>
<polygon fill="none" stroke="#000000" points="813.5,-459 813.5,-491 944.5,-491 944.5,-459 813.5,-459"/>
<text text-anchor="start" x="838.1635" y="-472" font-family="Helvetica,sans-Serif" font-size="10.00" fill="#000000"> &#45;description:string</text>
</g>
<!-- A16 -->
<g id="node17" class="node">
<title>A16</title>
<polygon fill="#f5deb3" stroke="#000000" points="919.6487,-441 831.3513,-441 831.3513,-373 925.6487,-373 925.6487,-435 919.6487,-441"/>
<polyline fill="none" stroke="#000000" points="919.6487,-441 919.6487,-435 "/>
<polyline fill="none" stroke="#000000" points="925.6487,-435 919.6487,-435 "/>
<text text-anchor="middle" x="878.5" y="-428" font-family="Helvetica,sans-Serif" font-size="10.00" fill="#000000">id&#45;card</text>
<text text-anchor="middle" x="878.5" y="-416" font-family="Helvetica,sans-Serif" font-size="10.00" fill="#000000">birth&#45;certificate</text>
<text text-anchor="middle" x="878.5" y="-404" font-family="Helvetica,sans-Serif" font-size="10.00" fill="#000000">passport</text>
<text text-anchor="middle" x="878.5" y="-392" font-family="Helvetica,sans-Serif" font-size="10.00" fill="#000000">driver&#39;s&#45;license</text>
<text text-anchor="middle" x="878.5" y="-380" font-family="Helvetica,sans-Serif" font-size="10.00" fill="#000000">etc.</text>
</g>
<!-- A3&#45;&gt;A16 -->
<g id="edge18" class="edge">
<title>A3&#45;&gt;A16</title>
<path fill="none" stroke="#000000" stroke-dasharray="5,2" d="M878.5,-458.6592C878.5,-452.8145 878.5,-446.9697 878.5,-441.125"/>
</g>
<!-- A4 -->
<g id="node5" class="node">
<title>A4</title>
<polygon fill="none" stroke="#000000" points="626,-518 626,-550 731,-550 731,-518 626,-518"/>
<text text-anchor="start" x="636.8225" y="-531" font-family="Helvetica,sans-Serif" font-size="10.00" fill="#000000">Identity_Document</text>
<polygon fill="none" stroke="#000000" points="626,-462 626,-518 731,-518 731,-462 626,-462"/>
<text text-anchor="start" x="644.887" y="-499" font-family="Helvetica,sans-Serif" font-size="10.00" fill="#000000"> &#45;number:string</text>
<text text-anchor="start" x="635.998" y="-475" font-family="Helvetica,sans-Serif" font-size="10.00" fill="#000000">&#45;complement:string</text>
</g>
<!-- A4&#45;&gt;A3 -->
<g id="edge17" class="edge">
<title>A4&#45;&gt;A3</title>
<path fill="none" stroke="#000000" d="M730.679,-502.0589C752.7092,-500.4108 778.7294,-498.4641 802.7503,-496.6671"/>
<polygon fill="#000000" stroke="#000000" points="812.9052,-495.9073 803.2688,-501.1409 807.9191,-496.2804 802.933,-496.6535 802.933,-496.6535 802.933,-496.6535 807.9191,-496.2804 802.5973,-492.166 812.9052,-495.9073 812.9052,-495.9073"/>
<text text-anchor="middle" x="795.4601" y="-502.6884" font-family="Helvetica,sans-Serif" font-size="10.00" fill="#000000">1</text>
<text text-anchor="middle" x="748.1241" y="-489.2778" font-family="Helvetica,sans-Serif" font-size="10.00" fill="#000000">*</text>
</g>
<!-- A5 -->
<g id="node6" class="node">
<title>A5</title>
<polygon fill="none" stroke="#000000" points="619,-412 619,-444 737,-444 737,-412 619,-412"/>
<text text-anchor="start" x="665.5025" y="-425" font-family="Helvetica,sans-Serif" font-size="10.00" fill="#000000">Email</text>
<polygon fill="none" stroke="#000000" points="619,-368 619,-412 737,-412 737,-368 619,-368"/>
<text text-anchor="start" x="628.8295" y="-393" font-family="Helvetica,sans-Serif" font-size="10.00" fill="#000000"> &#45;email_address:string</text>
<text text-anchor="start" x="639.108" y="-381" font-family="Helvetica,sans-Serif" font-size="10.00" fill="#000000"> &#45;primary:boolean</text>
</g>
<!-- A6 -->
<g id="node7" class="node">
<title>A6</title>
<polygon fill="none" stroke="#000000" points="603,-318 603,-350 754,-350 754,-318 603,-318"/>
<text text-anchor="start" x="660.1625" y="-331" font-family="Helvetica,sans-Serif" font-size="10.00" fill="#000000">Address</text>
<polygon fill="none" stroke="#000000" points="603,-202 603,-318 754,-318 754,-202 603,-202"/>
<text text-anchor="start" x="634.8785" y="-299" font-family="Helvetica,sans-Serif" font-size="10.00" fill="#000000"> &#45;postal_code:string</text>
<text text-anchor="start" x="649.3315" y="-287" font-family="Helvetica,sans-Serif" font-size="10.00" fill="#000000"> &#45;street:string</text>
<text text-anchor="start" x="644.887" y="-275" font-family="Helvetica,sans-Serif" font-size="10.00" fill="#000000"> &#45;number:string</text>
<text text-anchor="start" x="612.935" y="-263" font-family="Helvetica,sans-Serif" font-size="10.00" fill="#000000"> &#45;additional_information:string</text>
<text text-anchor="start" x="631.265" y="-251" font-family="Helvetica,sans-Serif" font-size="10.00" fill="#000000"> &#45;neighborhood:string</text>
<text text-anchor="start" x="654.335" y="-239" font-family="Helvetica,sans-Serif" font-size="10.00" fill="#000000"> &#45;city:string</text>
<text text-anchor="start" x="650.996" y="-227" font-family="Helvetica,sans-Serif" font-size="10.00" fill="#000000"> &#45;state:string</text>
<text text-anchor="start" x="639.608" y="-215" font-family="Helvetica,sans-Serif" font-size="10.00" fill="#000000"> &#45;primary:boolean</text>
</g>
<!-- A7 -->
<g id="node8" class="node">
<title>A7</title>
<polygon fill="none" stroke="#000000" points="202,-696 202,-728 342,-728 342,-696 202,-696"/>
<text text-anchor="start" x="235.046" y="-709" font-family="Helvetica,sans-Serif" font-size="10.00" fill="#000000">Ensemble_Level</text>
<polygon fill="none" stroke="#000000" points="202,-652 202,-696 342,-696 342,-652 202,-652"/>
<text text-anchor="start" x="231.1635" y="-677" font-family="Helvetica,sans-Serif" font-size="10.00" fill="#000000"> &#45;description:string</text>
<text text-anchor="start" x="211.707" y="-665" font-family="Helvetica,sans-Serif" font-size="10.00" fill="#000000"> &#45;precedence_order:integer</text>
</g>
<!-- A13 -->
<g id="node14" class="node">
<title>A13</title>
<polygon fill="#f5deb3" stroke="#000000" points="327.5817,-634 210.4183,-634 210.4183,-590 333.5817,-590 333.5817,-628 327.5817,-634"/>
<polyline fill="none" stroke="#000000" points="327.5817,-634 327.5817,-628 "/>
<polyline fill="none" stroke="#000000" points="333.5817,-628 327.5817,-628 "/>
<text text-anchor="middle" x="272" y="-621" font-family="Helvetica,sans-Serif" font-size="10.00" fill="#000000">National Territory</text>
<text text-anchor="middle" x="272" y="-609" font-family="Helvetica,sans-Serif" font-size="10.00" fill="#000000">Zone Region Chapter</text>
<text text-anchor="middle" x="272" y="-597" font-family="Helvetica,sans-Serif" font-size="10.00" fill="#000000">District etc.</text>
</g>
<!-- A7&#45;&gt;A13 -->
<g id="edge1" class="edge">
<title>A7&#45;&gt;A13</title>
<path fill="none" stroke="#000000" stroke-dasharray="5,2" d="M272,-651.6665C272,-645.8584 272,-640.0503 272,-634.2422"/>
</g>
<!-- A8 -->
<g id="node9" class="node">
<title>A8</title>
<polygon fill="none" stroke="#000000" points="0,-552 0,-584 152,-584 152,-552 0,-552"/>
<text text-anchor="start" x="53.7735" y="-565" font-family="Helvetica,sans-Serif" font-size="10.00" fill="#000000">Ensemble</text>
<polygon fill="none" stroke="#000000" points="0,-472 0,-552 152,-552 152,-472 0,-472"/>
<text text-anchor="start" x="46.831" y="-533" font-family="Helvetica,sans-Serif" font-size="10.00" fill="#000000"> &#45;name:string</text>
<text text-anchor="start" x="27.3655" y="-509" font-family="Helvetica,sans-Serif" font-size="10.00" fill="#000000">&#45;foundation_date:date</text>
<text text-anchor="start" x="9.868" y="-497" font-family="Helvetica,sans-Serif" font-size="10.00" fill="#000000"> &#45;leadership_purpose:boolean</text>
<text text-anchor="start" x="48.7755" y="-485" font-family="Helvetica,sans-Serif" font-size="10.00" fill="#000000"> &#45;history:text</text>
</g>
<!-- A8&#45;&gt;A7 -->
<g id="edge2" class="edge">
<title>A8&#45;&gt;A7</title>
<path fill="none" stroke="#000000" d="M134.0211,-584.2783C154.8686,-603.595 178.9372,-624.8953 202,-643 203.1874,-643.9321 204.3927,-644.8654 205.6126,-645.7983"/>
<polygon fill="#000000" stroke="#000000" points="213.8392,-651.9317 203.1323,-649.5621 209.8306,-648.9431 205.8221,-645.9544 205.8221,-645.9544 205.8221,-645.9544 209.8306,-648.9431 208.5118,-642.3468 213.8392,-651.9317 213.8392,-651.9317"/>
<text text-anchor="middle" x="194.2552" y="-644.8737" font-family="Helvetica,sans-Serif" font-size="10.00" fill="#000000">1 level</text>
</g>
<!-- A8&#45;&gt;A8 -->
<g id="edge3" class="edge">
<title>A8&#45;&gt;A8</title>
<path fill="none" stroke="#000000" d="M41.1364,-584.1461C45.4296,-594.6221 57.0508,-602 76,-602 89.3237,-602 99.0245,-598.3525 105.1024,-592.5452"/>
<polygon fill="#000000" stroke="#000000" points="110.8636,-584.1461 108.918,-594.938 108.0353,-588.2694 105.2071,-592.3926 105.2071,-592.3926 105.2071,-592.3926 108.0353,-588.2694 101.4961,-589.8472 110.8636,-584.1461 110.8636,-584.1461"/>
<text text-anchor="middle" x="107.5807" y="-600.8749" font-family="Helvetica,sans-Serif" font-size="10.00" fill="#000000">ensembles *</text>
<text text-anchor="middle" x="56.7535" y="-593.6404" font-family="Helvetica,sans-Serif" font-size="10.00" fill="#000000">1</text>
</g>
<!-- A9 -->
<g id="node10" class="node">
<title>A9</title>
<polygon fill="none" stroke="#000000" points="210,-540 210,-572 335,-572 335,-540 210,-540"/>
<text text-anchor="start" x="256.938" y="-553" font-family="Helvetica,sans-Serif" font-size="10.00" fill="#000000">Leader</text>
<polygon fill="none" stroke="#000000" points="210,-484 210,-540 335,-540 335,-484 210,-484"/>
<text text-anchor="start" x="233.608" y="-521" font-family="Helvetica,sans-Serif" font-size="10.00" fill="#000000"> &#45;primary:boolean</text>
<text text-anchor="start" x="219.701" y="-497" font-family="Helvetica,sans-Serif" font-size="10.00" fill="#000000">&#45;appointment_date:date</text>
</g>
<!-- A8&#45;&gt;A9 -->
<g id="edge4" class="edge">
<title>A8&#45;&gt;A9</title>
<path fill="none" stroke="#000000" d="M164.1692,-528C175.8228,-528 187.6637,-528 199.0238,-528"/>
<polygon fill="#000000" stroke="#000000" points="164.0592,-528.0001 158.0592,-532 152.0592,-528 158.0593,-524 164.0592,-528.0001"/>
<polygon fill="#000000" stroke="#000000" points="209.3022,-528 199.3022,-532.5001 204.3022,-528 199.3022,-528.0001 199.3022,-528.0001 199.3022,-528.0001 204.3022,-528 199.3021,-523.5001 209.3022,-528 209.3022,-528"/>
<text text-anchor="middle" x="191.176" y="-533.4524" font-family="Helvetica,sans-Serif" font-size="10.00" fill="#000000">1..*</text>
<text text-anchor="middle" x="170.1854" y="-516.5476" font-family="Helvetica,sans-Serif" font-size="10.00" fill="#000000">*</text>
</g>
<!-- A11 -->
<g id="node12" class="node">
<title>A11</title>
<polygon fill="none" stroke="#000000" points="396.5,-498 396.5,-530 538.5,-530 538.5,-498 396.5,-498"/>
<text text-anchor="start" x="449.168" y="-511" font-family="Helvetica,sans-Serif" font-size="10.00" fill="#000000">Member</text>
<polygon fill="none" stroke="#000000" points="396.5,-382 396.5,-498 538.5,-498 538.5,-382 396.5,-382"/>
<text text-anchor="start" x="438.331" y="-479" font-family="Helvetica,sans-Serif" font-size="10.00" fill="#000000"> &#45;name:string</text>
<text text-anchor="start" x="427.764" y="-455" font-family="Helvetica,sans-Serif" font-size="10.00" fill="#000000">&#45;joining_date:date</text>
<text text-anchor="start" x="435.2675" y="-431" font-family="Helvetica,sans-Serif" font-size="10.00" fill="#000000">&#45;birthdate:date</text>
<text text-anchor="start" x="415.5505" y="-407" font-family="Helvetica,sans-Serif" font-size="10.00" fill="#000000">&#45;food_restrictions:string</text>
<text text-anchor="start" x="406.099" y="-395" font-family="Helvetica,sans-Serif" font-size="10.00" fill="#000000"> &#45;additional_information:text</text>
</g>
<!-- A8&#45;&gt;A11 -->
<g id="edge5" class="edge">
<title>A8&#45;&gt;A11</title>
<path fill="none" stroke="#000000" d="M163.753,-486.838C176.3727,-482.1757 189.3654,-478.0224 202,-475 262.6947,-460.4808 333.2375,-455.9927 386.3478,-454.9929"/>
<polygon fill="#000000" stroke="#000000" points="163.49,-486.9391 159.3249,-492.8257 152.2891,-491.245 156.4543,-485.3584 163.49,-486.9391"/>
<polygon fill="#000000" stroke="#000000" points="396.3921,-454.8413 386.4612,-459.4918 391.3926,-454.9168 386.3932,-454.9923 386.3932,-454.9923 386.3932,-454.9923 391.3926,-454.9168 386.3252,-450.4928 396.3921,-454.8413 396.3921,-454.8413"/>
<text text-anchor="middle" x="378.3955" y="-460.5662" font-family="Helvetica,sans-Serif" font-size="10.00" fill="#000000">members 1..*</text>
<text text-anchor="middle" x="166.1753" y="-473.8514" font-family="Helvetica,sans-Serif" font-size="10.00" fill="#000000">1</text>
</g>
<!-- A10 -->
<g id="node11" class="node">
<title>A10</title>
<polygon fill="none" stroke="#000000" points="392.5,-682 392.5,-714 543.5,-714 543.5,-682 392.5,-682"/>
<text text-anchor="start" x="442.16" y="-695" font-family="Helvetica,sans-Serif" font-size="10.00" fill="#000000">LeaderRole</text>
<polygon fill="none" stroke="#000000" points="392.5,-638 392.5,-682 543.5,-682 543.5,-638 392.5,-638"/>
<text text-anchor="start" x="402.435" y="-663" font-family="Helvetica,sans-Serif" font-size="10.00" fill="#000000"> &#45;additional_information:string</text>
<text text-anchor="start" x="429.108" y="-651" font-family="Helvetica,sans-Serif" font-size="10.00" fill="#000000"> &#45;primary:boolean</text>
</g>
<!-- A9&#45;&gt;A10 -->
<g id="edge11" class="edge">
<title>A9&#45;&gt;A10</title>
<path fill="none" stroke="#000000" d="M330.1271,-572.0042C355.0035,-590.8364 384.0011,-612.7886 408.9265,-631.6579"/>
<polygon fill="#000000" stroke="#000000" points="417.2114,-637.9299 406.5223,-635.4819 413.2249,-634.912 409.2384,-631.894 409.2384,-631.894 409.2384,-631.894 413.2249,-634.912 411.9546,-628.3062 417.2114,-637.9299 417.2114,-637.9299"/>
<text text-anchor="middle" x="397.6578" y="-630.7283" font-family="Helvetica,sans-Serif" font-size="10.00" fill="#000000">positions_through *</text>
<text text-anchor="middle" x="349.6808" y="-573.2057" font-family="Helvetica,sans-Serif" font-size="10.00" fill="#000000">1</text>
</g>
<!-- A9&#45;&gt;A11 -->
<g id="edge14" class="edge">
<title>A9&#45;&gt;A11</title>
<path fill="none" stroke="#000000" d="M344.4982,-501.2999C361.4426,-495.0595 379.4737,-488.4189 396.3583,-482.2005"/>
<polygon fill="#000000" stroke="#000000" points="334.6641,-504.9217 342.4928,-497.2429 339.356,-503.1937 344.048,-501.4657 344.048,-501.4657 344.048,-501.4657 339.356,-503.1937 345.6032,-505.6884 334.6641,-504.9217 334.6641,-504.9217"/>
<text text-anchor="middle" x="382.2701" y="-493.3964" font-family="Helvetica,sans-Serif" font-size="10.00" fill="#000000">1</text>
<text text-anchor="middle" x="348.7523" y="-487.7258" font-family="Helvetica,sans-Serif" font-size="10.00" fill="#000000">appointments *</text>
</g>
<!-- A10&#45;&gt;A0 -->
<g id="edge12" class="edge">
<title>A10&#45;&gt;A0</title>
<path fill="none" stroke="#000000" d="M543.1979,-708.3649C561.1645,-716.0466 580.3812,-724.2628 598.5114,-732.0144"/>
<polygon fill="#000000" stroke="#000000" points="607.8808,-736.0203 596.9169,-736.2266 603.2834,-734.0546 598.686,-732.089 598.686,-732.089 598.686,-732.089 603.2834,-734.0546 600.4551,-727.9513 607.8808,-736.0203 607.8808,-736.0203"/>
<text text-anchor="middle" x="587.8913" y="-733.6662" font-family="Helvetica,sans-Serif" font-size="10.00" fill="#000000">act_as *</text>
<text text-anchor="middle" x="563.1875" y="-704.719" font-family="Helvetica,sans-Serif" font-size="10.00" fill="#000000">1</text>
</g>
<!-- A11&#45;&gt;A2 -->
<g id="edge7" class="edge">
<title>A11&#45;&gt;A2</title>
<path fill="none" stroke="#000000" d="M538.5759,-517.0105C556.0308,-531.2403 574.908,-546.0185 593,-559 594.4085,-560.0107 595.8363,-561.023 597.2796,-562.0353"/>
<polygon fill="#000000" stroke="#000000" points="605.6906,-567.8215 594.9014,-565.8612 601.5712,-564.9877 597.4518,-562.1538 597.4518,-562.1538 597.4518,-562.1538 601.5712,-564.9877 600.0023,-558.4463 605.6906,-567.8215 605.6906,-567.8215"/>
<text text-anchor="middle" x="585.9664" y="-561.5119" font-family="Helvetica,sans-Serif" font-size="10.00" fill="#000000">phones *</text>
<text text-anchor="middle" x="557.9763" y="-518.8708" font-family="Helvetica,sans-Serif" font-size="10.00" fill="#000000">1</text>
</g>
<!-- A11&#45;&gt;A4 -->
<g id="edge10" class="edge">
<title>A11&#45;&gt;A4</title>
<path fill="none" stroke="#000000" d="M538.7657,-472.9277C563.7151,-478.854 591.5187,-485.4581 615.6798,-491.1971"/>
<polygon fill="#000000" stroke="#000000" points="625.4419,-493.5159 614.6726,-495.583 620.5772,-492.3604 615.7126,-491.2048 615.7126,-491.2048 615.7126,-491.2048 620.5772,-492.3604 616.7526,-486.8266 625.4419,-493.5159 625.4419,-493.5159"/>
<text text-anchor="middle" x="605.8531" y="-494.5505" font-family="Helvetica,sans-Serif" font-size="10.00" fill="#000000">*</text>
<text text-anchor="middle" x="558.3545" y="-465.8931" font-family="Helvetica,sans-Serif" font-size="10.00" fill="#000000">1</text>
</g>
<!-- A11&#45;&gt;A5 -->
<g id="edge8" class="edge">
<title>A11&#45;&gt;A5</title>
<path fill="none" stroke="#000000" d="M538.7657,-439.0723C561.4154,-433.6923 586.4173,-427.7536 608.9108,-422.4107"/>
<polygon fill="#000000" stroke="#000000" points="618.7162,-420.0817 610.0269,-426.7709 613.8515,-421.2372 608.9869,-422.3927 608.9869,-422.3927 608.9869,-422.3927 613.8515,-421.2372 607.9469,-418.0146 618.7162,-420.0817 618.7162,-420.0817"/>
<text text-anchor="middle" x="603.034" y="-429.4942" font-family="Helvetica,sans-Serif" font-size="10.00" fill="#000000">emails *</text>
<text text-anchor="middle" x="554.4478" y="-423.6598" font-family="Helvetica,sans-Serif" font-size="10.00" fill="#000000">1</text>
</g>
<!-- A11&#45;&gt;A6 -->
<g id="edge9" class="edge">
<title>A11&#45;&gt;A6</title>
<path fill="none" stroke="#000000" d="M538.7657,-395.0602C556.7163,-379.7106 576.1442,-363.0976 594.6301,-347.2902"/>
<polygon fill="#000000" stroke="#000000" points="602.4878,-340.571 597.8122,-350.4901 598.6877,-343.8205 594.8876,-347.07 594.8876,-347.07 594.8876,-347.07 598.6877,-343.8205 591.963,-343.6499 602.4878,-340.571 602.4878,-340.571"/>
<text text-anchor="middle" x="594.2048" y="-355.7751" font-family="Helvetica,sans-Serif" font-size="10.00" fill="#000000">addresses *</text>
<text text-anchor="middle" x="547.0488" y="-373.8561" font-family="Helvetica,sans-Serif" font-size="10.00" fill="#000000">1</text>
</g>
<!-- A12 -->
<g id="node13" class="node">
<title>A12</title>
<polygon fill="none" stroke="#000000" points="593,-152 593,-184 763,-184 763,-152 593,-152"/>
<text text-anchor="start" x="650.4995" y="-165" font-family="Helvetica,sans-Serif" font-size="10.00" fill="#000000">Membership</text>
<polygon fill="none" stroke="#000000" points="593,0 593,-152 763,-152 763,0 593,0"/>
<text text-anchor="start" x="636.8745" y="-133" font-family="Helvetica,sans-Serif" font-size="10.00" fill="#000000"> &#45;joining_date:date</text>
<text text-anchor="start" x="645.497" y="-109" font-family="Helvetica,sans-Serif" font-size="10.00" fill="#000000">&#45;position:string</text>
<text text-anchor="start" x="637.7175" y="-85" font-family="Helvetica,sans-Serif" font-size="10.00" fill="#000000">&#45;study_level:string</text>
<text text-anchor="start" x="606.0345" y="-61" font-family="Helvetica,sans-Serif" font-size="10.00" fill="#000000">&#45;sustaining_contribution:boolean</text>
<text text-anchor="start" x="617.7105" y="-49" font-family="Helvetica,sans-Serif" font-size="10.00" fill="#000000"> &#45;discussion_meeting:jsonb</text>
<text text-anchor="start" x="603.2635" y="-37" font-family="Helvetica,sans-Serif" font-size="10.00" fill="#000000"> &#45;publications_subscriptions:jsonb</text>
<text text-anchor="start" x="614.6555" y="-25" font-family="Helvetica,sans-Serif" font-size="10.00" fill="#000000"> &#45;members_sponsored:jsonb</text>
<text text-anchor="start" x="602.986" y="-13" font-family="Helvetica,sans-Serif" font-size="10.00" fill="#000000"> &#45;organizational_information:jsonb</text>
</g>
<!-- A11&#45;&gt;A12 -->
<g id="edge6" class="edge">
<title>A11&#45;&gt;A12</title>
<path fill="none" stroke="#000000" d="M496.8464,-381.9142C519.7295,-327.7033 554.087,-253.389 593,-193 593.1203,-192.8134 593.2408,-192.6267 593.3617,-192.44"/>
<polygon fill="#000000" stroke="#000000" points="598.9916,-184.0279 597.1694,-194.8413 596.2106,-188.1831 593.4297,-192.3384 593.4297,-192.3384 593.4297,-192.3384 596.2106,-188.1831 589.6899,-189.8355 598.9916,-184.0279 598.9916,-184.0279"/>
<text text-anchor="middle" x="595.9344" y="-200.7928" font-family="Helvetica,sans-Serif" font-size="10.00" fill="#000000">1</text>
</g>
</g>
</svg>
