<?xml version="1.0" encoding="UTF-8" standalone="no"?>
<!DOCTYPE svg PUBLIC "-//W3C//DTD SVG 1.1//EN"
 "http://www.w3.org/Graphics/SVG/1.1/DTD/svg11.dtd">
<!-- Generated by graphviz version 2.40.1 (20161225.0304)
 -->
<!-- Title: G Pages: 1 -->
<svg width="952pt" height="718pt"
 viewBox="0.00 0.00 952.00 718.00" xmlns="http://www.w3.org/2000/svg" xmlns:xlink="http://www.w3.org/1999/xlink">
<g id="graph0" class="graph" transform="scale(1 1) rotate(0) translate(4 714)">
<title>G</title>
<polygon fill="#ffffff" stroke="transparent" points="-4,4 -4,-714 948,-714 948,4 -4,4"/>
<!-- A0 -->
<g id="node1" class="node">
<title>A0</title>
<polygon fill="none" stroke="#000000" points="608,-678 608,-710 748,-710 748,-678 608,-678"/>
<text text-anchor="start" x="660.2185" y="-691" font-family="Helvetica,sans-Serif" font-size="10.00" fill="#000000">Position</text>
<polygon fill="none" stroke="#000000" points="608,-634 608,-678 748,-678 748,-634 608,-634"/>
<text text-anchor="start" x="637.1635" y="-659" font-family="Helvetica,sans-Serif" font-size="10.00" fill="#000000"> &#45;description:string</text>
<text text-anchor="start" x="617.707" y="-647" font-family="Helvetica,sans-Serif" font-size="10.00" fill="#000000"> &#45;precedence_order:integer</text>
</g>
<!-- A13 -->
<g id="node14" class="node">
<title>A13</title>
<polygon fill="#f5deb3" stroke="#000000" points="726.6855,-616 623.3145,-616 623.3145,-580 732.6855,-580 732.6855,-610 726.6855,-616"/>
<polyline fill="none" stroke="#000000" points="726.6855,-616 726.6855,-610 "/>
<polyline fill="none" stroke="#000000" points="732.6855,-610 726.6855,-610 "/>
<text text-anchor="middle" x="678" y="-601" font-family="Helvetica,sans-Serif" font-size="10.00" fill="#000000">Supervisor Leader</text>
<text text-anchor="middle" x="678" y="-589" font-family="Helvetica,sans-Serif" font-size="10.00" fill="#000000">Vice etc.</text>
</g>
<!-- A0&#45;&gt;A13 -->
<g id="edge12" class="edge">
<title>A0&#45;&gt;A13</title>
<path fill="none" stroke="#000000" stroke-dasharray="5,2" d="M678,-633.645C678,-627.8337 678,-622.0223 678,-616.2109"/>
</g>
<!-- A1 -->
<g id="node2" class="node">
<title>A1</title>
<polygon fill="none" stroke="#000000" points="828.5,-533 828.5,-565 929.5,-565 929.5,-533 828.5,-533"/>
<text text-anchor="start" x="850.6545" y="-546" font-family="Helvetica,sans-Serif" font-size="10.00" fill="#000000">Phone_Type</text>
<polygon fill="none" stroke="#000000" points="828.5,-501 828.5,-533 929.5,-533 929.5,-501 828.5,-501"/>
<text text-anchor="start" x="838.1635" y="-514" font-family="Helvetica,sans-Serif" font-size="10.00" fill="#000000"> &#45;description:string</text>
</g>
<!-- A14 -->
<g id="node15" class="node">
<title>A14</title>
<polygon fill="#f5deb3" stroke="#000000" points="927.1151,-483 823.8849,-483 823.8849,-447 933.1151,-447 933.1151,-477 927.1151,-483"/>
<polyline fill="none" stroke="#000000" points="927.1151,-483 927.1151,-477 "/>
<polyline fill="none" stroke="#000000" points="933.1151,-477 927.1151,-477 "/>
<text text-anchor="middle" x="878.5" y="-468" font-family="Helvetica,sans-Serif" font-size="10.00" fill="#000000">mobile home work</text>
<text text-anchor="middle" x="878.5" y="-456" font-family="Helvetica,sans-Serif" font-size="10.00" fill="#000000">whatsapp etc.</text>
</g>
<!-- A1&#45;&gt;A14 -->
<g id="edge15" class="edge">
<title>A1&#45;&gt;A14</title>
<path fill="none" stroke="#000000" stroke-dasharray="5,2" d="M878.5,-500.6187C878.5,-494.7666 878.5,-488.9146 878.5,-483.0625"/>
</g>
<!-- A2 -->
<g id="node3" class="node">
<title>A2</title>
<polygon fill="none" stroke="#000000" points="603,-530 603,-562 754,-562 754,-530 603,-530"/>
<text text-anchor="start" x="664.0475" y="-543" font-family="Helvetica,sans-Serif" font-size="10.00" fill="#000000">Phone</text>
<polygon fill="none" stroke="#000000" points="603,-474 603,-530 754,-530 754,-474 603,-474"/>
<text text-anchor="start" x="628.21" y="-511" font-family="Helvetica,sans-Serif" font-size="10.00" fill="#000000"> &#45;phone_number:string</text>
<text text-anchor="start" x="612.935" y="-499" font-family="Helvetica,sans-Serif" font-size="10.00" fill="#000000"> &#45;additional_information:string</text>
<text text-anchor="start" x="639.608" y="-487" font-family="Helvetica,sans-Serif" font-size="10.00" fill="#000000"> &#45;primary:boolean</text>
</g>
<!-- A2&#45;&gt;A1 -->
<g id="edge14" class="edge">
<title>A2&#45;&gt;A1</title>
<path fill="none" stroke="#000000" d="M753.5148,-523.6495C774.7865,-525.2409 797.6431,-526.9509 817.9185,-528.4677"/>
<polygon fill="#000000" stroke="#000000" points="827.9539,-529.2185 817.646,-532.9598 822.9679,-528.8454 817.9818,-528.4724 817.9818,-528.4724 817.9818,-528.4724 822.9679,-528.8454 818.3176,-523.9849 827.9539,-529.2185 827.9539,-529.2185"/>
<text text-anchor="middle" x="809.2477" y="-533.295" font-family="Helvetica,sans-Serif" font-size="10.00" fill="#000000">1</text>
<text text-anchor="middle" x="772.221" y="-513.573" font-family="Helvetica,sans-Serif" font-size="10.00" fill="#000000">*</text>
</g>
<!-- A3 -->
<g id="node4" class="node">
<title>A3</title>
<polygon fill="none" stroke="#000000" points="813.5,-397 813.5,-429 944.5,-429 944.5,-397 813.5,-397"/>
<text text-anchor="start" x="823.4295" y="-410" font-family="Helvetica,sans-Serif" font-size="10.00" fill="#000000">Identity_Document_Type</text>
<polygon fill="none" stroke="#000000" points="813.5,-365 813.5,-397 944.5,-397 944.5,-365 813.5,-365"/>
<text text-anchor="start" x="838.1635" y="-378" font-family="Helvetica,sans-Serif" font-size="10.00" fill="#000000"> &#45;description:string</text>
</g>
<!-- A15 -->
<g id="node16" class="node">
<title>A15</title>
<polygon fill="#f5deb3" stroke="#000000" points="919.6487,-347 831.3513,-347 831.3513,-279 925.6487,-279 925.6487,-341 919.6487,-347"/>
<polyline fill="none" stroke="#000000" points="919.6487,-347 919.6487,-341 "/>
<polyline fill="none" stroke="#000000" points="925.6487,-341 919.6487,-341 "/>
<text text-anchor="middle" x="878.5" y="-334" font-family="Helvetica,sans-Serif" font-size="10.00" fill="#000000">id&#45;card</text>
<text text-anchor="middle" x="878.5" y="-322" font-family="Helvetica,sans-Serif" font-size="10.00" fill="#000000">birth&#45;certificate</text>
<text text-anchor="middle" x="878.5" y="-310" font-family="Helvetica,sans-Serif" font-size="10.00" fill="#000000">passport</text>
<text text-anchor="middle" x="878.5" y="-298" font-family="Helvetica,sans-Serif" font-size="10.00" fill="#000000">driver&#39;s&#45;license</text>
<text text-anchor="middle" x="878.5" y="-286" font-family="Helvetica,sans-Serif" font-size="10.00" fill="#000000">etc.</text>
</g>
<!-- A3&#45;&gt;A15 -->
<g id="edge17" class="edge">
<title>A3&#45;&gt;A15</title>
<path fill="none" stroke="#000000" stroke-dasharray="5,2" d="M878.5,-364.6592C878.5,-358.8145 878.5,-352.9697 878.5,-347.125"/>
</g>
<!-- A4 -->
<g id="node5" class="node">
<title>A4</title>
<polygon fill="none" stroke="#000000" points="626,-424 626,-456 731,-456 731,-424 626,-424"/>
<text text-anchor="start" x="636.8225" y="-437" font-family="Helvetica,sans-Serif" font-size="10.00" fill="#000000">Identity_Document</text>
<polygon fill="none" stroke="#000000" points="626,-368 626,-424 731,-424 731,-368 626,-368"/>
<text text-anchor="start" x="644.887" y="-405" font-family="Helvetica,sans-Serif" font-size="10.00" fill="#000000"> &#45;number:string</text>
<text text-anchor="start" x="635.998" y="-381" font-family="Helvetica,sans-Serif" font-size="10.00" fill="#000000">&#45;complement:string</text>
</g>
<!-- A4&#45;&gt;A3 -->
<g id="edge16" class="edge">
<title>A4&#45;&gt;A3</title>
<path fill="none" stroke="#000000" d="M730.679,-408.0589C752.7092,-406.4108 778.7294,-404.4641 802.7503,-402.6671"/>
<polygon fill="#000000" stroke="#000000" points="812.9052,-401.9073 803.2688,-407.1409 807.9191,-402.2804 802.933,-402.6535 802.933,-402.6535 802.933,-402.6535 807.9191,-402.2804 802.5973,-398.166 812.9052,-401.9073 812.9052,-401.9073"/>
<text text-anchor="middle" x="795.4601" y="-408.6884" font-family="Helvetica,sans-Serif" font-size="10.00" fill="#000000">1</text>
<text text-anchor="middle" x="748.1241" y="-395.2778" font-family="Helvetica,sans-Serif" font-size="10.00" fill="#000000">*</text>
</g>
<!-- A5 -->
<g id="node6" class="node">
<title>A5</title>
<polygon fill="none" stroke="#000000" points="603,-318 603,-350 754,-350 754,-318 603,-318"/>
<text text-anchor="start" x="660.1625" y="-331" font-family="Helvetica,sans-Serif" font-size="10.00" fill="#000000">Address</text>
<polygon fill="none" stroke="#000000" points="603,-202 603,-318 754,-318 754,-202 603,-202"/>
<text text-anchor="start" x="634.8785" y="-299" font-family="Helvetica,sans-Serif" font-size="10.00" fill="#000000"> &#45;postal_code:string</text>
<text text-anchor="start" x="649.3315" y="-287" font-family="Helvetica,sans-Serif" font-size="10.00" fill="#000000"> &#45;street:string</text>
<text text-anchor="start" x="644.887" y="-275" font-family="Helvetica,sans-Serif" font-size="10.00" fill="#000000"> &#45;number:string</text>
<text text-anchor="start" x="612.935" y="-263" font-family="Helvetica,sans-Serif" font-size="10.00" fill="#000000"> &#45;additional_information:string</text>
<text text-anchor="start" x="631.265" y="-251" font-family="Helvetica,sans-Serif" font-size="10.00" fill="#000000"> &#45;neighborhood:string</text>
<text text-anchor="start" x="654.335" y="-239" font-family="Helvetica,sans-Serif" font-size="10.00" fill="#000000"> &#45;city:string</text>
<text text-anchor="start" x="650.996" y="-227" font-family="Helvetica,sans-Serif" font-size="10.00" fill="#000000"> &#45;state:string</text>
<text text-anchor="start" x="639.608" y="-215" font-family="Helvetica,sans-Serif" font-size="10.00" fill="#000000"> &#45;primary:boolean</text>
</g>
<!-- A6 -->
<g id="node7" class="node">
<title>A6</title>
<polygon fill="none" stroke="#000000" points="202,-652 202,-684 342,-684 342,-652 202,-652"/>
<text text-anchor="start" x="235.046" y="-665" font-family="Helvetica,sans-Serif" font-size="10.00" fill="#000000">Ensemble_Level</text>
<polygon fill="none" stroke="#000000" points="202,-608 202,-652 342,-652 342,-608 202,-608"/>
<text text-anchor="start" x="231.1635" y="-633" font-family="Helvetica,sans-Serif" font-size="10.00" fill="#000000"> &#45;description:string</text>
<text text-anchor="start" x="211.707" y="-621" font-family="Helvetica,sans-Serif" font-size="10.00" fill="#000000"> &#45;precedence_order:integer</text>
</g>
<!-- A12 -->
<g id="node13" class="node">
<title>A12</title>
<polygon fill="#f5deb3" stroke="#000000" points="327.5817,-590 210.4183,-590 210.4183,-546 333.5817,-546 333.5817,-584 327.5817,-590"/>
<polyline fill="none" stroke="#000000" points="327.5817,-590 327.5817,-584 "/>
<polyline fill="none" stroke="#000000" points="333.5817,-584 327.5817,-584 "/>
<text text-anchor="middle" x="272" y="-577" font-family="Helvetica,sans-Serif" font-size="10.00" fill="#000000">National Territory</text>
<text text-anchor="middle" x="272" y="-565" font-family="Helvetica,sans-Serif" font-size="10.00" fill="#000000">Zone Region Chapter</text>
<text text-anchor="middle" x="272" y="-553" font-family="Helvetica,sans-Serif" font-size="10.00" fill="#000000">District etc.</text>
</g>
<!-- A6&#45;&gt;A12 -->
<g id="edge1" class="edge">
<title>A6&#45;&gt;A12</title>
<path fill="none" stroke="#000000" stroke-dasharray="5,2" d="M272,-607.6665C272,-601.8584 272,-596.0503 272,-590.2422"/>
</g>
<!-- A7 -->
<g id="node8" class="node">
<title>A7</title>
<polygon fill="none" stroke="#000000" points="0,-508 0,-540 152,-540 152,-508 0,-508"/>
<text text-anchor="start" x="53.7735" y="-521" font-family="Helvetica,sans-Serif" font-size="10.00" fill="#000000">Ensemble</text>
<polygon fill="none" stroke="#000000" points="0,-428 0,-508 152,-508 152,-428 0,-428"/>
<text text-anchor="start" x="46.831" y="-489" font-family="Helvetica,sans-Serif" font-size="10.00" fill="#000000"> &#45;name:string</text>
<text text-anchor="start" x="27.3655" y="-465" font-family="Helvetica,sans-Serif" font-size="10.00" fill="#000000">&#45;foundation_date:date</text>
<text text-anchor="start" x="9.868" y="-453" font-family="Helvetica,sans-Serif" font-size="10.00" fill="#000000"> &#45;leadership_purpose:boolean</text>
<text text-anchor="start" x="48.7755" y="-441" font-family="Helvetica,sans-Serif" font-size="10.00" fill="#000000"> &#45;history:text</text>
</g>
<!-- A7&#45;&gt;A6 -->
<g id="edge2" class="edge">
<title>A7&#45;&gt;A6</title>
<path fill="none" stroke="#000000" d="M134.0211,-540.2783C154.8686,-559.595 178.9372,-580.8953 202,-599 203.1874,-599.9321 204.3927,-600.8654 205.6126,-601.7983"/>
<polygon fill="#000000" stroke="#000000" points="213.8392,-607.9317 203.1323,-605.5621 209.8306,-604.9431 205.8221,-601.9544 205.8221,-601.9544 205.8221,-601.9544 209.8306,-604.9431 208.5118,-598.3468 213.8392,-607.9317 213.8392,-607.9317"/>
<text text-anchor="middle" x="194.2552" y="-600.8737" font-family="Helvetica,sans-Serif" font-size="10.00" fill="#000000">1 level</text>
</g>
<!-- A7&#45;&gt;A7 -->
<g id="edge3" class="edge">
<title>A7&#45;&gt;A7</title>
<path fill="none" stroke="#000000" d="M41.1364,-540.1461C45.4296,-550.6221 57.0508,-558 76,-558 89.3237,-558 99.0245,-554.3525 105.1024,-548.5452"/>
<polygon fill="#000000" stroke="#000000" points="110.8636,-540.1461 108.918,-550.938 108.0353,-544.2694 105.2071,-548.3926 105.2071,-548.3926 105.2071,-548.3926 108.0353,-544.2694 101.4961,-545.8472 110.8636,-540.1461 110.8636,-540.1461"/>
<text text-anchor="middle" x="107.5807" y="-556.8749" font-family="Helvetica,sans-Serif" font-size="10.00" fill="#000000">ensembles *</text>
<text text-anchor="middle" x="56.7535" y="-549.6404" font-family="Helvetica,sans-Serif" font-size="10.00" fill="#000000">1</text>
</g>
<!-- A8 -->
<g id="node9" class="node">
<title>A8</title>
<polygon fill="none" stroke="#000000" points="210,-496 210,-528 335,-528 335,-496 210,-496"/>
<text text-anchor="start" x="256.938" y="-509" font-family="Helvetica,sans-Serif" font-size="10.00" fill="#000000">Leader</text>
<polygon fill="none" stroke="#000000" points="210,-440 210,-496 335,-496 335,-440 210,-440"/>
<text text-anchor="start" x="233.608" y="-477" font-family="Helvetica,sans-Serif" font-size="10.00" fill="#000000"> &#45;primary:boolean</text>
<text text-anchor="start" x="219.701" y="-453" font-family="Helvetica,sans-Serif" font-size="10.00" fill="#000000">&#45;appointment_date:date</text>
</g>
<!-- A7&#45;&gt;A8 -->
<g id="edge4" class="edge">
<title>A7&#45;&gt;A8</title>
<path fill="none" stroke="#000000" d="M164.1692,-484C175.8228,-484 187.6637,-484 199.0238,-484"/>
<polygon fill="#000000" stroke="#000000" points="164.0592,-484.0001 158.0592,-488 152.0592,-484 158.0593,-480 164.0592,-484.0001"/>
<polygon fill="#000000" stroke="#000000" points="209.3022,-484 199.3022,-488.5001 204.3022,-484 199.3022,-484.0001 199.3022,-484.0001 199.3022,-484.0001 204.3022,-484 199.3021,-479.5001 209.3022,-484 209.3022,-484"/>
<text text-anchor="middle" x="191.176" y="-489.4524" font-family="Helvetica,sans-Serif" font-size="10.00" fill="#000000">1..*</text>
<text text-anchor="middle" x="170.1854" y="-472.5476" font-family="Helvetica,sans-Serif" font-size="10.00" fill="#000000">*</text>
</g>
<!-- A10 -->
<g id="node11" class="node">
<title>A10</title>
<polygon fill="none" stroke="#000000" points="396.5,-466 396.5,-498 538.5,-498 538.5,-466 396.5,-466"/>
<text text-anchor="start" x="449.168" y="-479" font-family="Helvetica,sans-Serif" font-size="10.00" fill="#000000">Member</text>
<polygon fill="none" stroke="#000000" points="396.5,-326 396.5,-466 538.5,-466 538.5,-326 396.5,-326"/>
<text text-anchor="start" x="438.331" y="-447" font-family="Helvetica,sans-Serif" font-size="10.00" fill="#000000"> &#45;name:string</text>
<text text-anchor="start" x="440.281" y="-423" font-family="Helvetica,sans-Serif" font-size="10.00" fill="#000000">&#45;email:string</text>
<text text-anchor="start" x="427.764" y="-399" font-family="Helvetica,sans-Serif" font-size="10.00" fill="#000000">&#45;joining_date:date</text>
<text text-anchor="start" x="435.2675" y="-375" font-family="Helvetica,sans-Serif" font-size="10.00" fill="#000000">&#45;birthdate:date</text>
<text text-anchor="start" x="415.5505" y="-351" font-family="Helvetica,sans-Serif" font-size="10.00" fill="#000000">&#45;food_restrictions:string</text>
<text text-anchor="start" x="406.099" y="-339" font-family="Helvetica,sans-Serif" font-size="10.00" fill="#000000"> &#45;additional_information:text</text>
</g>
<!-- A7&#45;&gt;A10 -->
<g id="edge5" class="edge">
<title>A7&#45;&gt;A10</title>
<path fill="none" stroke="#000000" d="M163.753,-442.838C176.3727,-438.1757 189.3654,-434.0224 202,-431 262.6947,-416.4808 333.2375,-411.9927 386.3478,-410.9929"/>
<polygon fill="#000000" stroke="#000000" points="163.49,-442.9391 159.3249,-448.8257 152.2891,-447.245 156.4543,-441.3584 163.49,-442.9391"/>
<polygon fill="#000000" stroke="#000000" points="396.3921,-410.8413 386.4612,-415.4918 391.3926,-410.9168 386.3932,-410.9923 386.3932,-410.9923 386.3932,-410.9923 391.3926,-410.9168 386.3252,-406.4928 396.3921,-410.8413 396.3921,-410.8413"/>
<text text-anchor="middle" x="378.3955" y="-416.5662" font-family="Helvetica,sans-Serif" font-size="10.00" fill="#000000">members 1..*</text>
<text text-anchor="middle" x="166.1753" y="-429.8514" font-family="Helvetica,sans-Serif" font-size="10.00" fill="#000000">1</text>
</g>
<!-- A9 -->
<g id="node10" class="node">
<title>A9</title>
<polygon fill="none" stroke="#000000" points="392.5,-619 392.5,-651 543.5,-651 543.5,-619 392.5,-619"/>
<text text-anchor="start" x="442.16" y="-632" font-family="Helvetica,sans-Serif" font-size="10.00" fill="#000000">LeaderRole</text>
<polygon fill="none" stroke="#000000" points="392.5,-575 392.5,-619 543.5,-619 543.5,-575 392.5,-575"/>
<text text-anchor="start" x="402.435" y="-600" font-family="Helvetica,sans-Serif" font-size="10.00" fill="#000000"> &#45;additional_information:string</text>
<text text-anchor="start" x="429.108" y="-588" font-family="Helvetica,sans-Serif" font-size="10.00" fill="#000000"> &#45;primary:boolean</text>
</g>
<!-- A8&#45;&gt;A9 -->
<g id="edge10" class="edge">
<title>A8&#45;&gt;A9</title>
<path fill="none" stroke="#000000" d="M334.6641,-525.3487C355.9611,-539.4015 379.8201,-555.1447 401.3786,-569.37"/>
<polygon fill="#000000" stroke="#000000" points="409.8309,-574.9472 399.0058,-573.1957 405.6575,-572.1934 401.4842,-569.4397 401.4842,-569.4397 401.4842,-569.4397 405.6575,-572.1934 403.9626,-565.6836 409.8309,-574.9472 409.8309,-574.9472"/>
<text text-anchor="middle" x="390.0464" y="-569.0191" font-family="Helvetica,sans-Serif" font-size="10.00" fill="#000000">positions_through *</text>
<text text-anchor="middle" x="354.4486" y="-525.2768" font-family="Helvetica,sans-Serif" font-size="10.00" fill="#000000">1</text>
</g>
<!-- A8&#45;&gt;A10 -->
<g id="edge13" class="edge">
<title>A8&#45;&gt;A10</title>
<path fill="none" stroke="#000000" d="M344.4982,-457.2999C361.4426,-451.0595 379.4737,-444.4189 396.3583,-438.2005"/>
<polygon fill="#000000" stroke="#000000" points="334.6641,-460.9217 342.4928,-453.2429 339.356,-459.1937 344.048,-457.4657 344.048,-457.4657 344.048,-457.4657 339.356,-459.1937 345.6032,-461.6884 334.6641,-460.9217 334.6641,-460.9217"/>
<text text-anchor="middle" x="382.2701" y="-449.3964" font-family="Helvetica,sans-Serif" font-size="10.00" fill="#000000">1</text>
<text text-anchor="middle" x="348.7523" y="-443.7258" font-family="Helvetica,sans-Serif" font-size="10.00" fill="#000000">appointments *</text>
</g>
<!-- A9&#45;&gt;A0 -->
<g id="edge11" class="edge">
<title>A9&#45;&gt;A0</title>
<path fill="none" stroke="#000000" d="M543.1979,-634.217C560.9996,-639.2066 580.0287,-644.5401 598.0121,-649.5806"/>
<polygon fill="#000000" stroke="#000000" points="607.8808,-652.3466 597.0374,-653.9808 603.0664,-650.9972 598.2519,-649.6477 598.2519,-649.6477 598.2519,-649.6477 603.0664,-650.9972 599.4664,-645.3147 607.8808,-652.3466 607.8808,-652.3466"/>
<text text-anchor="middle" x="588.1461" y="-652.5934" font-family="Helvetica,sans-Serif" font-size="10.00" fill="#000000">act_as *</text>
<text text-anchor="middle" x="562.9326" y="-627.9702" font-family="Helvetica,sans-Serif" font-size="10.00" fill="#000000">1</text>
</g>
<!-- A10&#45;&gt;A2 -->
<g id="edge7" class="edge">
<title>A10&#45;&gt;A2</title>
<path fill="none" stroke="#000000" d="M538.7657,-447.8868C556.2354,-456.6839 575.1045,-466.1856 593.1426,-475.269"/>
<polygon fill="#000000" stroke="#000000" points="602.4878,-479.9749 591.5324,-479.4964 598.0221,-477.7261 593.5563,-475.4772 593.5563,-475.4772 593.5563,-475.4772 598.0221,-477.7261 595.5802,-471.4581 602.4878,-479.9749 602.4878,-479.9749"/>
<text text-anchor="middle" x="582.4969" y="-476.3717" font-family="Helvetica,sans-Serif" font-size="10.00" fill="#000000">phones *</text>
<text text-anchor="middle" x="558.7566" y="-445.4899" font-family="Helvetica,sans-Serif" font-size="10.00" fill="#000000">1</text>
</g>
<!-- A10&#45;&gt;A4 -->
<g id="edge9" class="edge">
<title>A10&#45;&gt;A4</title>
<path fill="none" stroke="#000000" d="M538.7657,-412C563.6043,-412 591.2716,-412 615.3574,-412"/>
<polygon fill="#000000" stroke="#000000" points="625.4419,-412 615.4419,-416.5001 620.4419,-412 615.4419,-412.0001 615.4419,-412.0001 615.4419,-412.0001 620.4419,-412 615.4419,-407.5001 625.4419,-412 625.4419,-412"/>
<text text-anchor="middle" x="607.3157" y="-417.4524" font-family="Helvetica,sans-Serif" font-size="10.00" fill="#000000">*</text>
<text text-anchor="middle" x="556.8919" y="-400.5476" font-family="Helvetica,sans-Serif" font-size="10.00" fill="#000000">1</text>
</g>
<!-- A10&#45;&gt;A5 -->
<g id="edge8" class="edge">
<title>A10&#45;&gt;A5</title>
<path fill="none" stroke="#000000" d="M538.7657,-365.9566C556.3957,-354.5662 575.4508,-342.255 593.6389,-330.5041"/>
<polygon fill="#000000" stroke="#000000" points="602.4878,-324.787 596.5304,-333.9935 598.2881,-327.5003 594.0884,-330.2137 594.0884,-330.2137 594.0884,-330.2137 598.2881,-327.5003 591.6463,-326.434 602.4878,-324.787 602.4878,-324.787"/>
<text text-anchor="middle" x="591.8497" y="-338.723" font-family="Helvetica,sans-Serif" font-size="10.00" fill="#000000">addresses *</text>
<text text-anchor="middle" x="549.4038" y="-346.0205" font-family="Helvetica,sans-Serif" font-size="10.00" fill="#000000">1</text>
</g>
<!-- A11 -->
<g id="node12" class="node">
<title>A11</title>
<polygon fill="none" stroke="#000000" points="593,-152 593,-184 763,-184 763,-152 593,-152"/>
<text text-anchor="start" x="650.4995" y="-165" font-family="Helvetica,sans-Serif" font-size="10.00" fill="#000000">Membership</text>
<polygon fill="none" stroke="#000000" points="593,0 593,-152 763,-152 763,0 593,0"/>
<text text-anchor="start" x="648.831" y="-133" font-family="Helvetica,sans-Serif" font-size="10.00" fill="#000000"> &#45;name:string</text>
<text text-anchor="start" x="638.264" y="-109" font-family="Helvetica,sans-Serif" font-size="10.00" fill="#000000">&#45;joining_date:date</text>
<text text-anchor="start" x="611.599" y="-85" font-family="Helvetica,sans-Serif" font-size="10.00" fill="#000000">&#45;organizational_position:string</text>
<text text-anchor="start" x="636.328" y="-73" font-family="Helvetica,sans-Serif" font-size="10.00" fill="#000000"> &#45;study_level:string</text>
<text text-anchor="start" x="604.645" y="-61" font-family="Helvetica,sans-Serif" font-size="10.00" fill="#000000"> &#45;sustaining_contribution:boolean</text>
<text text-anchor="start" x="617.7105" y="-49" font-family="Helvetica,sans-Serif" font-size="10.00" fill="#000000"> &#45;discussion_meeting:jsonb</text>
<text text-anchor="start" x="603.2635" y="-37" font-family="Helvetica,sans-Serif" font-size="10.00" fill="#000000"> &#45;publications_subscriptions:jsonb</text>
<text text-anchor="start" x="614.6555" y="-25" font-family="Helvetica,sans-Serif" font-size="10.00" fill="#000000"> &#45;members_sponsored:jsonb</text>
<text text-anchor="start" x="602.986" y="-13" font-family="Helvetica,sans-Serif" font-size="10.00" fill="#000000"> &#45;organizational_information:jsonb</text>
</g>
<!-- A10&#45;&gt;A11 -->
<g id="edge6" class="edge">
<title>A10&#45;&gt;A11</title>
<path fill="none" stroke="#000000" d="M512.1977,-325.8521C534.7683,-284.5913 563.5666,-235.1145 593,-193 593.1272,-192.818 593.2546,-192.636 593.3823,-192.4539"/>
<polygon fill="#000000" stroke="#000000" points="599.285,-184.2248 597.113,-194.9734 596.3707,-188.2877 593.4564,-192.3506 593.4564,-192.3506 593.4564,-192.3506 596.3707,-188.2877 589.7998,-189.7277 599.285,-184.2248 599.285,-184.2248"/>
<text text-anchor="middle" x="595.5882" y="-200.8802" font-family="Helvetica,sans-Serif" font-size="10.00" fill="#000000">1</text>
</g>
</g>
</svg>
