<?xml version="1.0" encoding="UTF-8" standalone="no"?>
<!DOCTYPE svg PUBLIC "-//W3C//DTD SVG 1.1//EN"
 "http://www.w3.org/Graphics/SVG/1.1/DTD/svg11.dtd">
<!-- Generated by graphviz version 2.40.1 (20161225.0304)
 -->
<!-- Title: G Pages: 1 -->
<svg width="870pt" height="597pt"
 viewBox="0.00 0.00 870.45 597.00" xmlns="http://www.w3.org/2000/svg" xmlns:xlink="http://www.w3.org/1999/xlink">
<g id="graph0" class="graph" transform="scale(1 1) rotate(0) translate(4 593)">
<title>G</title>
<polygon fill="#ffffff" stroke="transparent" points="-4,4 -4,-593 866.452,-593 866.452,4 -4,4"/>
<!-- A0 -->
<g id="node1" class="node">
<title>A0</title>
<polygon fill="none" stroke="#000000" points="353.5,-521 353.5,-553 454.5,-553 454.5,-521 353.5,-521"/>
<text text-anchor="start" x="386.2185" y="-534" font-family="Helvetica,sans-Serif" font-size="10.00" fill="#000000">Position</text>
<polygon fill="none" stroke="#000000" points="353.5,-489 353.5,-521 454.5,-521 454.5,-489 353.5,-489"/>
<text text-anchor="start" x="363.1635" y="-502" font-family="Helvetica,sans-Serif" font-size="10.00" fill="#000000"> &#45;description:string</text>
</g>
<!-- A11 -->
<g id="node12" class="node">
<title>A11</title>
<polygon fill="#f5deb3" stroke="#000000" points="459.2533,-471 341.7467,-471 341.7467,-415 465.2533,-415 465.2533,-465 459.2533,-471"/>
<polyline fill="none" stroke="#000000" points="459.2533,-471 459.2533,-465 "/>
<polyline fill="none" stroke="#000000" points="465.2533,-465 459.2533,-465 "/>
<text text-anchor="middle" x="403.5" y="-458" font-family="Helvetica,sans-Serif" font-size="10.00" fill="#000000">Taityo Geral,</text>
<text text-anchor="middle" x="403.5" y="-446" font-family="Helvetica,sans-Serif" font-size="10.00" fill="#000000">Taityo, Shunin,</text>
<text text-anchor="middle" x="403.5" y="-434" font-family="Helvetica,sans-Serif" font-size="10.00" fill="#000000">Resp. Técnico, Resp.</text>
<text text-anchor="middle" x="403.5" y="-422" font-family="Helvetica,sans-Serif" font-size="10.00" fill="#000000">Estudo, etc.</text>
</g>
<!-- A0&#45;&gt;A11 -->
<g id="edge11" class="edge">
<title>A0&#45;&gt;A11</title>
<path fill="none" stroke="#000000" stroke-dasharray="5,2" d="M403.5,-488.9888C403.5,-483.0029 403.5,-477.0171 403.5,-471.0313"/>
</g>
<!-- A1 -->
<g id="node2" class="node">
<title>A1</title>
<polygon fill="none" stroke="#000000" points="753.726,-476 753.726,-508 854.726,-508 854.726,-476 753.726,-476"/>
<text text-anchor="start" x="775.8805" y="-489" font-family="Helvetica,sans-Serif" font-size="10.00" fill="#000000">Phone_Type</text>
<polygon fill="none" stroke="#000000" points="753.726,-444 753.726,-476 854.726,-476 854.726,-444 753.726,-444"/>
<text text-anchor="start" x="763.3895" y="-457" font-family="Helvetica,sans-Serif" font-size="10.00" fill="#000000"> &#45;description:string</text>
</g>
<!-- A12 -->
<g id="node13" class="node">
<title>A12</title>
<polygon fill="#f5deb3" stroke="#000000" points="856.6789,-426 744.7731,-426 744.7731,-390 862.6789,-390 862.6789,-420 856.6789,-426"/>
<polyline fill="none" stroke="#000000" points="856.6789,-426 856.6789,-420 "/>
<polyline fill="none" stroke="#000000" points="862.6789,-420 856.6789,-420 "/>
<text text-anchor="middle" x="803.726" y="-411" font-family="Helvetica,sans-Serif" font-size="10.00" fill="#000000">mobile, home, work,</text>
<text text-anchor="middle" x="803.726" y="-399" font-family="Helvetica,sans-Serif" font-size="10.00" fill="#000000">etc.</text>
</g>
<!-- A1&#45;&gt;A12 -->
<g id="edge14" class="edge">
<title>A1&#45;&gt;A12</title>
<path fill="none" stroke="#000000" stroke-dasharray="5,2" d="M803.726,-443.6187C803.726,-437.7666 803.726,-431.9146 803.726,-426.0625"/>
</g>
<!-- A2 -->
<g id="node3" class="node">
<title>A2</title>
<polygon fill="none" stroke="#000000" points="547,-482 547,-514 667,-514 667,-482 547,-482"/>
<text text-anchor="start" x="592.5475" y="-495" font-family="Helvetica,sans-Serif" font-size="10.00" fill="#000000">Phone</text>
<polygon fill="none" stroke="#000000" points="547,-438 547,-482 667,-482 667,-438 547,-438"/>
<text text-anchor="start" x="556.71" y="-463" font-family="Helvetica,sans-Serif" font-size="10.00" fill="#000000"> &#45;phone_number:string</text>
<text text-anchor="start" x="569.7725" y="-451" font-family="Helvetica,sans-Serif" font-size="10.00" fill="#000000"> primary:boolean</text>
</g>
<!-- A2&#45;&gt;A1 -->
<g id="edge13" class="edge">
<title>A2&#45;&gt;A1</title>
<path fill="none" stroke="#000000" d="M667.0932,-476C691.1188,-476 718.7533,-476 742.8557,-476"/>
<polygon fill="#000000" stroke="#000000" points="752.9483,-476 742.9483,-480.5001 747.9483,-476 742.9483,-476.0001 742.9483,-476.0001 742.9483,-476.0001 747.9483,-476 742.9482,-471.5001 752.9483,-476 752.9483,-476"/>
<text text-anchor="middle" x="734.8221" y="-481.4524" font-family="Helvetica,sans-Serif" font-size="10.00" fill="#000000">1</text>
<text text-anchor="middle" x="685.2194" y="-464.5476" font-family="Helvetica,sans-Serif" font-size="10.00" fill="#000000">*</text>
</g>
<!-- A3 -->
<g id="node4" class="node">
<title>A3</title>
<polygon fill="none" stroke="#000000" points="548,-388 548,-420 666,-420 666,-388 548,-388"/>
<text text-anchor="start" x="594.5025" y="-401" font-family="Helvetica,sans-Serif" font-size="10.00" fill="#000000">Email</text>
<polygon fill="none" stroke="#000000" points="548,-344 548,-388 666,-388 666,-344 548,-344"/>
<text text-anchor="start" x="557.8295" y="-369" font-family="Helvetica,sans-Serif" font-size="10.00" fill="#000000"> &#45;email_address:string</text>
<text text-anchor="start" x="569.7725" y="-357" font-family="Helvetica,sans-Serif" font-size="10.00" fill="#000000"> primary:boolean</text>
</g>
<!-- A4 -->
<g id="node5" class="node">
<title>A4</title>
<polygon fill="none" stroke="#000000" points="552,-294 552,-326 663,-326 663,-294 552,-294"/>
<text text-anchor="start" x="589.1625" y="-307" font-family="Helvetica,sans-Serif" font-size="10.00" fill="#000000">Address</text>
<polygon fill="none" stroke="#000000" points="552,-178 552,-294 663,-294 663,-178 552,-178"/>
<text text-anchor="start" x="582.775" y="-275" font-family="Helvetica,sans-Serif" font-size="10.00" fill="#000000"> &#45;cep:string</text>
<text text-anchor="start" x="574.441" y="-251" font-family="Helvetica,sans-Serif" font-size="10.00" fill="#000000">&#45;address:string</text>
<text text-anchor="start" x="561.6545" y="-227" font-family="Helvetica,sans-Serif" font-size="10.00" fill="#000000">&#45;neighborhood:string</text>
<text text-anchor="start" x="583.335" y="-215" font-family="Helvetica,sans-Serif" font-size="10.00" fill="#000000"> &#45;city:string</text>
<text text-anchor="start" x="579.996" y="-203" font-family="Helvetica,sans-Serif" font-size="10.00" fill="#000000"> &#45;state:string</text>
<text text-anchor="start" x="570.2725" y="-191" font-family="Helvetica,sans-Serif" font-size="10.00" fill="#000000"> primary:boolean</text>
</g>
<!-- A5 -->
<g id="node6" class="node">
<title>A5</title>
<polygon fill="none" stroke="#000000" points="148,-557 148,-589 288,-589 288,-557 148,-557"/>
<text text-anchor="start" x="183.8255" y="-570" font-family="Helvetica,sans-Serif" font-size="10.00" fill="#000000">EnsembleLevel</text>
<polygon fill="none" stroke="#000000" points="148,-513 148,-557 288,-557 288,-513 148,-513"/>
<text text-anchor="start" x="177.1635" y="-538" font-family="Helvetica,sans-Serif" font-size="10.00" fill="#000000"> &#45;description:string</text>
<text text-anchor="start" x="157.707" y="-526" font-family="Helvetica,sans-Serif" font-size="10.00" fill="#000000"> &#45;precedence_order:integer</text>
</g>
<!-- A10 -->
<g id="node11" class="node">
<title>A10</title>
<polygon fill="#f5deb3" stroke="#000000" points="272.2312,-495 157.7688,-495 157.7688,-439 278.2312,-439 278.2312,-489 272.2312,-495"/>
<polyline fill="none" stroke="#000000" points="272.2312,-495 272.2312,-489 "/>
<polyline fill="none" stroke="#000000" points="278.2312,-489 272.2312,-489 "/>
<text text-anchor="middle" x="218" y="-482" font-family="Helvetica,sans-Serif" font-size="10.00" fill="#000000">Taiyo Ongakutai</text>
<text text-anchor="middle" x="218" y="-470" font-family="Helvetica,sans-Serif" font-size="10.00" fill="#000000">BSGI, Coord. Geral,</text>
<text text-anchor="middle" x="218" y="-458" font-family="Helvetica,sans-Serif" font-size="10.00" fill="#000000">Coordenadoria,</text>
<text text-anchor="middle" x="218" y="-446" font-family="Helvetica,sans-Serif" font-size="10.00" fill="#000000">Núcleo, Seção, etc</text>
</g>
<!-- A5&#45;&gt;A10 -->
<g id="edge1" class="edge">
<title>A5&#45;&gt;A10</title>
<path fill="none" stroke="#000000" stroke-dasharray="5,2" d="M218,-512.6504C218,-506.8398 218,-501.0293 218,-495.2188"/>
</g>
<!-- A6 -->
<g id="node7" class="node">
<title>A6</title>
<polygon fill="none" stroke="#000000" points="0,-395 0,-427 98,-427 98,-395 0,-395"/>
<text text-anchor="start" x="26.7735" y="-408" font-family="Helvetica,sans-Serif" font-size="10.00" fill="#000000">Ensemble</text>
<polygon fill="none" stroke="#000000" points="0,-339 0,-395 98,-395 98,-339 0,-339"/>
<text text-anchor="start" x="19.831" y="-376" font-family="Helvetica,sans-Serif" font-size="10.00" fill="#000000"> &#45;name:string</text>
<text text-anchor="start" x="9.553" y="-352" font-family="Helvetica,sans-Serif" font-size="10.00" fill="#000000">&#45;description:string</text>
</g>
<!-- A6&#45;&gt;A5 -->
<g id="edge2" class="edge">
<title>A6&#45;&gt;A5</title>
<path fill="none" stroke="#000000" d="M80.0898,-427.1137C98.3251,-451.3142 122.703,-480.9859 148,-504 148.944,-504.8588 149.905,-505.7137 150.8805,-506.5639"/>
<polygon fill="#000000" stroke="#000000" points="158.6094,-512.9773 148.0402,-510.0545 154.7616,-509.7844 150.9138,-506.5915 150.9138,-506.5915 150.9138,-506.5915 154.7616,-509.7844 153.7875,-503.1285 158.6094,-512.9773 158.6094,-512.9773"/>
<text text-anchor="middle" x="139.2628" y="-504.9068" font-family="Helvetica,sans-Serif" font-size="10.00" fill="#000000">1 level</text>
</g>
<!-- A6&#45;&gt;A6 -->
<g id="edge3" class="edge">
<title>A6&#45;&gt;A6</title>
<path fill="none" stroke="#000000" d="M18.1229,-427.0244C20.6608,-437.3686 30.9531,-445 49,-445 61.1252,-445 69.75,-441.5551 74.8742,-436.157"/>
<polygon fill="#000000" stroke="#000000" points="79.8771,-427.0244 79.0192,-437.9567 77.4748,-431.4095 75.0726,-435.7947 75.0726,-435.7947 75.0726,-435.7947 77.4748,-431.4095 71.126,-433.6327 79.8771,-427.0244 79.8771,-427.0244"/>
<text text-anchor="middle" x="78.5815" y="-443.9824" font-family="Helvetica,sans-Serif" font-size="10.00" fill="#000000">ensembles *</text>
<text text-anchor="middle" x="31.8229" y="-438.5953" font-family="Helvetica,sans-Serif" font-size="10.00" fill="#000000">1</text>
</g>
<!-- A7 -->
<g id="node8" class="node">
<title>A7</title>
<polygon fill="none" stroke="#000000" points="154,-389 154,-421 282,-421 282,-389 154,-389"/>
<text text-anchor="start" x="202.438" y="-402" font-family="Helvetica,sans-Serif" font-size="10.00" fill="#000000">Leader</text>
<polygon fill="none" stroke="#000000" points="154,-345 154,-389 282,-389 282,-345 154,-345"/>
<text text-anchor="start" x="163.8115" y="-370" font-family="Helvetica,sans-Serif" font-size="10.00" fill="#000000"> &#45;appointment_date:date</text>
<text text-anchor="start" x="180.7725" y="-358" font-family="Helvetica,sans-Serif" font-size="10.00" fill="#000000"> primary:boolean</text>
</g>
<!-- A6&#45;&gt;A7 -->
<g id="edge4" class="edge">
<title>A6&#45;&gt;A7</title>
<path fill="none" stroke="#000000" d="M110.4498,-383C121.2499,-383 132.5939,-383 143.6995,-383"/>
<polygon fill="#000000" stroke="#000000" points="110.3361,-383.0001 104.3361,-387 98.3361,-383 104.3361,-379 110.3361,-383.0001"/>
<polygon fill="#000000" stroke="#000000" points="153.809,-383 143.809,-387.5001 148.809,-383 143.809,-383.0001 143.809,-383.0001 143.809,-383.0001 148.809,-383 143.8089,-378.5001 153.809,-383 153.809,-383"/>
<text text-anchor="middle" x="135.6828" y="-388.4524" font-family="Helvetica,sans-Serif" font-size="10.00" fill="#000000">leadership 1..*</text>
<text text-anchor="middle" x="116.4623" y="-371.5476" font-family="Helvetica,sans-Serif" font-size="10.00" fill="#000000">*</text>
</g>
<!-- A8 -->
<g id="node9" class="node">
<title>A8</title>
<polygon fill="none" stroke="#000000" points="338.5,-365 338.5,-397 469.5,-397 469.5,-365 338.5,-365"/>
<text text-anchor="start" x="385.668" y="-378" font-family="Helvetica,sans-Serif" font-size="10.00" fill="#000000">Member</text>
<polygon fill="none" stroke="#000000" points="338.5,-237 338.5,-365 469.5,-365 469.5,-237 338.5,-237"/>
<text text-anchor="start" x="374.831" y="-346" font-family="Helvetica,sans-Serif" font-size="10.00" fill="#000000"> &#45;name:string</text>
<text text-anchor="start" x="364.264" y="-322" font-family="Helvetica,sans-Serif" font-size="10.00" fill="#000000">&#45;joining_date:date</text>
<text text-anchor="start" x="371.7675" y="-298" font-family="Helvetica,sans-Serif" font-size="10.00" fill="#000000">&#45;birthdate:date</text>
<text text-anchor="start" x="348.156" y="-274" font-family="Helvetica,sans-Serif" font-size="10.00" fill="#000000">&#45;identity_document:string</text>
<text text-anchor="start" x="380.665" y="-262" font-family="Helvetica,sans-Serif" font-size="10.00" fill="#000000"> &#45;cpf:string</text>
<text text-anchor="start" x="350.661" y="-250" font-family="Helvetica,sans-Serif" font-size="10.00" fill="#000000"> &#45;food_restrictions:string</text>
</g>
<!-- A6&#45;&gt;A8 -->
<g id="edge5" class="edge">
<title>A6&#45;&gt;A8</title>
<path fill="none" stroke="#000000" d="M109.4229,-350.03C121.8684,-344.4736 135.115,-339.4102 148,-336 207.0572,-320.3695 276.287,-316.0417 327.7758,-315.3878"/>
<polygon fill="#000000" stroke="#000000" points="109.1281,-350.1674 105.3803,-356.3282 98.2521,-355.2382 101.9998,-349.0775 109.1281,-350.1674"/>
<polygon fill="#000000" stroke="#000000" points="337.8287,-315.3037 327.8667,-319.8873 332.8289,-315.3456 327.829,-315.3874 327.829,-315.3874 327.829,-315.3874 332.8289,-315.3456 327.7914,-310.8876 337.8287,-315.3037 337.8287,-315.3037"/>
<text text-anchor="middle" x="319.7738" y="-320.9073" font-family="Helvetica,sans-Serif" font-size="10.00" fill="#000000">members 1..*</text>
<text text-anchor="middle" x="111.1089" y="-336.9182" font-family="Helvetica,sans-Serif" font-size="10.00" fill="#000000">1</text>
</g>
<!-- A7&#45;&gt;A0 -->
<g id="edge10" class="edge">
<title>A7&#45;&gt;A0</title>
<path fill="none" stroke="#000000" d="M276.6831,-421.1458C280.5755,-424.0582 284.3824,-427.0243 288,-430 312.271,-449.9643 313.4126,-460.4267 338,-480 340.0664,-481.645 342.2023,-483.2795 344.3849,-484.8953"/>
<polygon fill="#000000" stroke="#000000" points="352.986,-491.0181 342.2296,-488.8847 348.9126,-488.1184 344.8393,-485.2187 344.8393,-485.2187 344.8393,-485.2187 348.9126,-488.1184 347.449,-481.5527 352.986,-491.0181 352.986,-491.0181"/>
<text text-anchor="middle" x="333.3174" y="-484.392" font-family="Helvetica,sans-Serif" font-size="10.00" fill="#000000">act_as 1</text>
</g>
<!-- A7&#45;&gt;A8 -->
<g id="edge12" class="edge">
<title>A7&#45;&gt;A8</title>
<path fill="none" stroke="#000000" d="M291.9449,-356.6908C307.1096,-351.2952 322.9744,-345.6506 337.8243,-340.3671"/>
<polygon fill="#000000" stroke="#000000" points="282.0983,-360.1941 290.0113,-352.6023 286.809,-358.518 291.5198,-356.842 291.5198,-356.842 291.5198,-356.842 286.809,-358.518 293.0282,-361.0816 282.0983,-360.1941 282.0983,-360.1941"/>
<text text-anchor="middle" x="323.5802" y="-351.4065" font-family="Helvetica,sans-Serif" font-size="10.00" fill="#000000">1</text>
<text text-anchor="middle" x="296.3424" y="-343.1547" font-family="Helvetica,sans-Serif" font-size="10.00" fill="#000000">positions *</text>
</g>
<!-- A8&#45;&gt;A2 -->
<g id="edge7" class="edge">
<title>A8&#45;&gt;A2</title>
<path fill="none" stroke="#000000" d="M469.0704,-386.6917C484.7042,-401.5351 501.8507,-416.4888 519,-429 524.9643,-433.3512 531.382,-437.5564 537.937,-441.5436"/>
<polygon fill="#000000" stroke="#000000" points="546.9308,-446.8389 536.0303,-445.6431 542.6221,-444.3021 538.3134,-441.7652 538.3134,-441.7652 538.3134,-441.7652 542.6221,-444.3021 540.5966,-437.8874 546.9308,-446.8389 546.9308,-446.8389"/>
<text text-anchor="middle" x="527.0225" y="-441.9261" font-family="Helvetica,sans-Serif" font-size="10.00" fill="#000000">phones *</text>
<text text-anchor="middle" x="488.0641" y="-389.9559" font-family="Helvetica,sans-Serif" font-size="10.00" fill="#000000">1</text>
</g>
<!-- A8&#45;&gt;A3 -->
<g id="edge8" class="edge">
<title>A8&#45;&gt;A3</title>
<path fill="none" stroke="#000000" d="M469.0088,-337.9242C491.0732,-344.9718 515.753,-352.8548 538.0728,-359.9839"/>
<polygon fill="#000000" stroke="#000000" points="547.8104,-363.0942 536.9153,-364.3382 543.0475,-361.5729 538.2846,-360.0515 538.2846,-360.0515 538.2846,-360.0515 543.0475,-361.5729 539.6538,-355.7649 547.8104,-363.0942 547.8104,-363.0942"/>
<text text-anchor="middle" x="527.9719" y="-362.6307" font-family="Helvetica,sans-Serif" font-size="10.00" fill="#000000">emails *</text>
<text text-anchor="middle" x="488.8473" y="-332.3878" font-family="Helvetica,sans-Serif" font-size="10.00" fill="#000000">1</text>
</g>
<!-- A8&#45;&gt;A4 -->
<g id="edge9" class="edge">
<title>A8&#45;&gt;A4</title>
<path fill="none" stroke="#000000" d="M469.0088,-296.0758C492.1888,-288.6719 518.2554,-280.346 541.4396,-272.9407"/>
<polygon fill="#000000" stroke="#000000" points="551.1825,-269.8287 543.0258,-277.1581 546.4195,-271.3501 541.6566,-272.8714 541.6566,-272.8714 541.6566,-272.8714 546.4195,-271.3501 540.2874,-268.5848 551.1825,-269.8287 551.1825,-269.8287"/>
<text text-anchor="middle" x="536.4875" y="-280.3955" font-family="Helvetica,sans-Serif" font-size="10.00" fill="#000000">addresses *</text>
<text text-anchor="middle" x="483.7038" y="-279.509" font-family="Helvetica,sans-Serif" font-size="10.00" fill="#000000">1</text>
</g>
<!-- A9 -->
<g id="node10" class="node">
<title>A9</title>
<polygon fill="none" stroke="#000000" points="519,-128 519,-160 695,-160 695,-128 519,-128"/>
<text text-anchor="start" x="546.9875" y="-141" font-family="Helvetica,sans-Serif" font-size="10.00" fill="#000000">Organizational_Information</text>
<polygon fill="none" stroke="#000000" points="519,0 519,-128 695,-128 695,0 519,0"/>
<text text-anchor="start" x="552.8195" y="-109" font-family="Helvetica,sans-Serif" font-size="10.00" fill="#000000"> &#45;associated_code:string</text>
<text text-anchor="start" x="557.26" y="-97" font-family="Helvetica,sans-Serif" font-size="10.00" fill="#000000"> &#45;convertion_date:date</text>
<text text-anchor="start" x="528.9255" y="-85" font-family="Helvetica,sans-Serif" font-size="10.00" fill="#000000"> &#45;vertical_structure:not_defined_yet</text>
<text text-anchor="start" x="573.1075" y="-73" font-family="Helvetica,sans-Serif" font-size="10.00" fill="#000000"> &#45;position:string</text>
<text text-anchor="start" x="565.328" y="-61" font-family="Helvetica,sans-Serif" font-size="10.00" fill="#000000"> &#45;study_level:string</text>
<text text-anchor="start" x="545.321" y="-49" font-family="Helvetica,sans-Serif" font-size="10.00" fill="#000000"> &#45;conversions_made:integer</text>
<text text-anchor="start" x="540.872" y="-37" font-family="Helvetica,sans-Serif" font-size="10.00" fill="#000000"> &#45;discussion_meeting:boolean</text>
<text text-anchor="start" x="533.645" y="-25" font-family="Helvetica,sans-Serif" font-size="10.00" fill="#000000"> &#45;sustaining_contribution:boolean</text>
<text text-anchor="start" x="528.925" y="-13" font-family="Helvetica,sans-Serif" font-size="10.00" fill="#000000"> &#45;publications_subscription:boolean</text>
</g>
<!-- A8&#45;&gt;A9 -->
<g id="edge6" class="edge">
<title>A8&#45;&gt;A9</title>
<path fill="none" stroke="#000000" d="M463.2698,-236.8874C480.7177,-214.4845 500.1692,-190.4177 519,-169 519.4035,-168.541 519.8088,-168.0814 520.2158,-167.6212"/>
<polygon fill="#000000" stroke="#000000" points="526.9405,-160.1254 523.6122,-170.574 523.6016,-163.8472 520.2626,-167.569 520.2626,-167.569 520.2626,-167.569 523.6016,-163.8472 516.913,-164.5639 526.9405,-160.1254 526.9405,-160.1254"/>
<text text-anchor="middle" x="521.1277" y="-176.262" font-family="Helvetica,sans-Serif" font-size="10.00" fill="#000000">1</text>
</g>
</g>
</svg>
