<?xml version="1.0" encoding="UTF-8" standalone="no"?>
<!DOCTYPE svg PUBLIC "-//W3C//DTD SVG 1.1//EN"
 "http://www.w3.org/Graphics/SVG/1.1/DTD/svg11.dtd">
<!-- Generated by graphviz version 2.40.1 (20161225.0304)
 -->
<!-- Title: G Pages: 1 -->
<svg width="949pt" height="662pt"
 viewBox="0.00 0.00 949.00 662.00" xmlns="http://www.w3.org/2000/svg" xmlns:xlink="http://www.w3.org/1999/xlink">
<g id="graph0" class="graph" transform="scale(1 1) rotate(0) translate(4 658)">
<title>G</title>
<polygon fill="#ffffff" stroke="transparent" points="-4,4 -4,-658 945,-658 945,4 -4,4"/>
<!-- A0 -->
<g id="node1" class="node">
<title>A0</title>
<polygon fill="none" stroke="#000000" points="393,-604 393,-636 533,-636 533,-604 393,-604"/>
<text text-anchor="start" x="445.2185" y="-617" font-family="Helvetica,sans-Serif" font-size="10.00" fill="#000000">Position</text>
<polygon fill="none" stroke="#000000" points="393,-560 393,-604 533,-604 533,-560 393,-560"/>
<text text-anchor="start" x="422.1635" y="-585" font-family="Helvetica,sans-Serif" font-size="10.00" fill="#000000"> &#45;description:string</text>
<text text-anchor="start" x="402.707" y="-573" font-family="Helvetica,sans-Serif" font-size="10.00" fill="#000000"> &#45;precedence_order:integer</text>
</g>
<!-- A13 -->
<g id="node14" class="node">
<title>A13</title>
<polygon fill="#f5deb3" stroke="#000000" points="509.1371,-542 410.8629,-542 410.8629,-474 515.1371,-474 515.1371,-536 509.1371,-542"/>
<polyline fill="none" stroke="#000000" points="509.1371,-542 509.1371,-536 "/>
<polyline fill="none" stroke="#000000" points="515.1371,-536 509.1371,-536 "/>
<text text-anchor="middle" x="463" y="-529" font-family="Helvetica,sans-Serif" font-size="10.00" fill="#000000">Resp.Geral</text>
<text text-anchor="middle" x="463" y="-517" font-family="Helvetica,sans-Serif" font-size="10.00" fill="#000000">Resp.Núcleo</text>
<text text-anchor="middle" x="463" y="-505" font-family="Helvetica,sans-Serif" font-size="10.00" fill="#000000">Resp.Seção</text>
<text text-anchor="middle" x="463" y="-493" font-family="Helvetica,sans-Serif" font-size="10.00" fill="#000000">Resp.Técnico</text>
<text text-anchor="middle" x="463" y="-481" font-family="Helvetica,sans-Serif" font-size="10.00" fill="#000000">Resp.Estudo etc.</text>
</g>
<!-- A0&#45;&gt;A13 -->
<g id="edge12" class="edge">
<title>A0&#45;&gt;A13</title>
<path fill="none" stroke="#000000" stroke-dasharray="5,2" d="M463,-559.5698C463,-553.7471 463,-547.9243 463,-542.1016"/>
</g>
<!-- A1 -->
<g id="node2" class="node">
<title>A1</title>
<polygon fill="none" stroke="#000000" points="825.5,-610 825.5,-642 926.5,-642 926.5,-610 825.5,-610"/>
<text text-anchor="start" x="847.6545" y="-623" font-family="Helvetica,sans-Serif" font-size="10.00" fill="#000000">Phone_Type</text>
<polygon fill="none" stroke="#000000" points="825.5,-578 825.5,-610 926.5,-610 926.5,-578 825.5,-578"/>
<text text-anchor="start" x="835.1635" y="-591" font-family="Helvetica,sans-Serif" font-size="10.00" fill="#000000"> &#45;description:string</text>
</g>
<!-- A14 -->
<g id="node15" class="node">
<title>A14</title>
<polygon fill="#f5deb3" stroke="#000000" points="924.1151,-560 820.8849,-560 820.8849,-524 930.1151,-524 930.1151,-554 924.1151,-560"/>
<polyline fill="none" stroke="#000000" points="924.1151,-560 924.1151,-554 "/>
<polyline fill="none" stroke="#000000" points="930.1151,-554 924.1151,-554 "/>
<text text-anchor="middle" x="875.5" y="-545" font-family="Helvetica,sans-Serif" font-size="10.00" fill="#000000">mobile home work</text>
<text text-anchor="middle" x="875.5" y="-533" font-family="Helvetica,sans-Serif" font-size="10.00" fill="#000000">whatsapp etc.</text>
</g>
<!-- A1&#45;&gt;A14 -->
<g id="edge15" class="edge">
<title>A1&#45;&gt;A14</title>
<path fill="none" stroke="#000000" stroke-dasharray="5,2" d="M875.5,-577.6187C875.5,-571.7666 875.5,-565.9146 875.5,-560.0625"/>
</g>
<!-- A2 -->
<g id="node3" class="node">
<title>A2</title>
<polygon fill="none" stroke="#000000" points="597,-615 597,-647 748,-647 748,-615 597,-615"/>
<text text-anchor="start" x="658.0475" y="-628" font-family="Helvetica,sans-Serif" font-size="10.00" fill="#000000">Phone</text>
<polygon fill="none" stroke="#000000" points="597,-559 597,-615 748,-615 748,-559 597,-559"/>
<text text-anchor="start" x="622.21" y="-596" font-family="Helvetica,sans-Serif" font-size="10.00" fill="#000000"> &#45;phone_number:string</text>
<text text-anchor="start" x="606.935" y="-584" font-family="Helvetica,sans-Serif" font-size="10.00" fill="#000000"> &#45;additional_information:string</text>
<text text-anchor="start" x="633.608" y="-572" font-family="Helvetica,sans-Serif" font-size="10.00" fill="#000000"> &#45;primary:boolean</text>
</g>
<!-- A2&#45;&gt;A1 -->
<g id="edge14" class="edge">
<title>A2&#45;&gt;A1</title>
<path fill="none" stroke="#000000" d="M747.7759,-605.6065C769.9176,-606.3682 793.8179,-607.1903 814.8881,-607.9151"/>
<polygon fill="#000000" stroke="#000000" points="824.9842,-608.2624 814.8354,-612.4158 819.9872,-608.0904 814.9901,-607.9185 814.9901,-607.9185 814.9901,-607.9185 819.9872,-608.0904 815.1449,-603.4211 824.9842,-608.2624 824.9842,-608.2624"/>
<text text-anchor="middle" x="806.5782" y="-613.0866" font-family="Helvetica,sans-Serif" font-size="10.00" fill="#000000">1</text>
<text text-anchor="middle" x="766.1819" y="-594.7823" font-family="Helvetica,sans-Serif" font-size="10.00" fill="#000000">*</text>
</g>
<!-- A3 -->
<g id="node4" class="node">
<title>A3</title>
<polygon fill="none" stroke="#000000" points="810.5,-474 810.5,-506 941.5,-506 941.5,-474 810.5,-474"/>
<text text-anchor="start" x="820.4295" y="-487" font-family="Helvetica,sans-Serif" font-size="10.00" fill="#000000">Identity_Document_Type</text>
<polygon fill="none" stroke="#000000" points="810.5,-442 810.5,-474 941.5,-474 941.5,-442 810.5,-442"/>
<text text-anchor="start" x="835.1635" y="-455" font-family="Helvetica,sans-Serif" font-size="10.00" fill="#000000"> &#45;description:string</text>
</g>
<!-- A15 -->
<g id="node16" class="node">
<title>A15</title>
<polygon fill="#f5deb3" stroke="#000000" points="916.6487,-424 828.3513,-424 828.3513,-356 922.6487,-356 922.6487,-418 916.6487,-424"/>
<polyline fill="none" stroke="#000000" points="916.6487,-424 916.6487,-418 "/>
<polyline fill="none" stroke="#000000" points="922.6487,-418 916.6487,-418 "/>
<text text-anchor="middle" x="875.5" y="-411" font-family="Helvetica,sans-Serif" font-size="10.00" fill="#000000">id&#45;card</text>
<text text-anchor="middle" x="875.5" y="-399" font-family="Helvetica,sans-Serif" font-size="10.00" fill="#000000">birth&#45;certificate</text>
<text text-anchor="middle" x="875.5" y="-387" font-family="Helvetica,sans-Serif" font-size="10.00" fill="#000000">passport</text>
<text text-anchor="middle" x="875.5" y="-375" font-family="Helvetica,sans-Serif" font-size="10.00" fill="#000000">driver&#39;s&#45;license</text>
<text text-anchor="middle" x="875.5" y="-363" font-family="Helvetica,sans-Serif" font-size="10.00" fill="#000000">etc.</text>
</g>
<!-- A3&#45;&gt;A15 -->
<g id="edge17" class="edge">
<title>A3&#45;&gt;A15</title>
<path fill="none" stroke="#000000" stroke-dasharray="5,2" d="M875.5,-441.6592C875.5,-435.8145 875.5,-429.9697 875.5,-424.125"/>
</g>
<!-- A4 -->
<g id="node5" class="node">
<title>A4</title>
<polygon fill="none" stroke="#000000" points="620,-494 620,-526 725,-526 725,-494 620,-494"/>
<text text-anchor="start" x="630.8225" y="-507" font-family="Helvetica,sans-Serif" font-size="10.00" fill="#000000">Identity_Document</text>
<polygon fill="none" stroke="#000000" points="620,-438 620,-494 725,-494 725,-438 620,-438"/>
<text text-anchor="start" x="638.887" y="-475" font-family="Helvetica,sans-Serif" font-size="10.00" fill="#000000"> &#45;number:string</text>
<text text-anchor="start" x="629.998" y="-451" font-family="Helvetica,sans-Serif" font-size="10.00" fill="#000000">&#45;complement:string</text>
</g>
<!-- A4&#45;&gt;A3 -->
<g id="edge16" class="edge">
<title>A4&#45;&gt;A3</title>
<path fill="none" stroke="#000000" d="M724.671,-479.9294C747.5456,-479.0301 774.7721,-477.9598 799.7562,-476.9776"/>
<polygon fill="#000000" stroke="#000000" points="809.938,-476.5774 800.1225,-481.4668 804.9419,-476.7738 799.9457,-476.9703 799.9457,-476.9703 799.9457,-476.9703 804.9419,-476.7738 799.7689,-472.4738 809.938,-476.5774 809.938,-476.5774"/>
<text text-anchor="middle" x="792.1579" y="-482.7352" font-family="Helvetica,sans-Serif" font-size="10.00" fill="#000000">1</text>
<text text-anchor="middle" x="742.4511" y="-467.7715" font-family="Helvetica,sans-Serif" font-size="10.00" fill="#000000">*</text>
</g>
<!-- A5 -->
<g id="node6" class="node">
<title>A5</title>
<polygon fill="none" stroke="#000000" points="613,-388 613,-420 731,-420 731,-388 613,-388"/>
<text text-anchor="start" x="659.5025" y="-401" font-family="Helvetica,sans-Serif" font-size="10.00" fill="#000000">Email</text>
<polygon fill="none" stroke="#000000" points="613,-344 613,-388 731,-388 731,-344 613,-344"/>
<text text-anchor="start" x="622.8295" y="-369" font-family="Helvetica,sans-Serif" font-size="10.00" fill="#000000"> &#45;email_address:string</text>
<text text-anchor="start" x="633.108" y="-357" font-family="Helvetica,sans-Serif" font-size="10.00" fill="#000000"> &#45;primary:boolean</text>
</g>
<!-- A6 -->
<g id="node7" class="node">
<title>A6</title>
<polygon fill="none" stroke="#000000" points="597,-294 597,-326 748,-326 748,-294 597,-294"/>
<text text-anchor="start" x="654.1625" y="-307" font-family="Helvetica,sans-Serif" font-size="10.00" fill="#000000">Address</text>
<polygon fill="none" stroke="#000000" points="597,-178 597,-294 748,-294 748,-178 597,-178"/>
<text text-anchor="start" x="628.8785" y="-275" font-family="Helvetica,sans-Serif" font-size="10.00" fill="#000000"> &#45;postal_code:string</text>
<text text-anchor="start" x="643.3315" y="-263" font-family="Helvetica,sans-Serif" font-size="10.00" fill="#000000"> &#45;street:string</text>
<text text-anchor="start" x="638.887" y="-251" font-family="Helvetica,sans-Serif" font-size="10.00" fill="#000000"> &#45;number:string</text>
<text text-anchor="start" x="606.935" y="-239" font-family="Helvetica,sans-Serif" font-size="10.00" fill="#000000"> &#45;additional_information:string</text>
<text text-anchor="start" x="625.265" y="-227" font-family="Helvetica,sans-Serif" font-size="10.00" fill="#000000"> &#45;neighborhood:string</text>
<text text-anchor="start" x="648.335" y="-215" font-family="Helvetica,sans-Serif" font-size="10.00" fill="#000000"> &#45;city:string</text>
<text text-anchor="start" x="644.996" y="-203" font-family="Helvetica,sans-Serif" font-size="10.00" fill="#000000"> &#45;state:string</text>
<text text-anchor="start" x="633.608" y="-191" font-family="Helvetica,sans-Serif" font-size="10.00" fill="#000000"> &#45;primary:boolean</text>
</g>
<!-- A7 -->
<g id="node8" class="node">
<title>A7</title>
<polygon fill="none" stroke="#000000" points="202,-622 202,-654 342,-654 342,-622 202,-622"/>
<text text-anchor="start" x="235.046" y="-635" font-family="Helvetica,sans-Serif" font-size="10.00" fill="#000000">Ensemble_Level</text>
<polygon fill="none" stroke="#000000" points="202,-578 202,-622 342,-622 342,-578 202,-578"/>
<text text-anchor="start" x="231.1635" y="-603" font-family="Helvetica,sans-Serif" font-size="10.00" fill="#000000"> &#45;description:string</text>
<text text-anchor="start" x="211.707" y="-591" font-family="Helvetica,sans-Serif" font-size="10.00" fill="#000000"> &#45;precedence_order:integer</text>
</g>
<!-- A12 -->
<g id="node13" class="node">
<title>A12</title>
<polygon fill="#f5deb3" stroke="#000000" points="330.6201,-560 207.3799,-560 207.3799,-504 336.6201,-504 336.6201,-554 330.6201,-560"/>
<polyline fill="none" stroke="#000000" points="330.6201,-560 330.6201,-554 "/>
<polyline fill="none" stroke="#000000" points="336.6201,-554 330.6201,-554 "/>
<text text-anchor="middle" x="272" y="-547" font-family="Helvetica,sans-Serif" font-size="10.00" fill="#000000">TONacional</text>
<text text-anchor="middle" x="272" y="-535" font-family="Helvetica,sans-Serif" font-size="10.00" fill="#000000">Coord.Geral</text>
<text text-anchor="middle" x="272" y="-523" font-family="Helvetica,sans-Serif" font-size="10.00" fill="#000000">Coordenadoria Núcleo</text>
<text text-anchor="middle" x="272" y="-511" font-family="Helvetica,sans-Serif" font-size="10.00" fill="#000000">Seção etc.</text>
</g>
<!-- A7&#45;&gt;A12 -->
<g id="edge1" class="edge">
<title>A7&#45;&gt;A12</title>
<path fill="none" stroke="#000000" stroke-dasharray="5,2" d="M272,-577.6504C272,-571.8398 272,-566.0293 272,-560.2188"/>
</g>
<!-- A8 -->
<g id="node9" class="node">
<title>A8</title>
<polygon fill="none" stroke="#000000" points="0,-472 0,-504 152,-504 152,-472 0,-472"/>
<text text-anchor="start" x="53.7735" y="-485" font-family="Helvetica,sans-Serif" font-size="10.00" fill="#000000">Ensemble</text>
<polygon fill="none" stroke="#000000" points="0,-392 0,-472 152,-472 152,-392 0,-392"/>
<text text-anchor="start" x="46.831" y="-453" font-family="Helvetica,sans-Serif" font-size="10.00" fill="#000000"> &#45;name:string</text>
<text text-anchor="start" x="27.3655" y="-429" font-family="Helvetica,sans-Serif" font-size="10.00" fill="#000000">&#45;foundation_date:date</text>
<text text-anchor="start" x="9.868" y="-417" font-family="Helvetica,sans-Serif" font-size="10.00" fill="#000000"> &#45;leadership_purpose:boolean</text>
<text text-anchor="start" x="48.7755" y="-405" font-family="Helvetica,sans-Serif" font-size="10.00" fill="#000000"> &#45;history:text</text>
</g>
<!-- A8&#45;&gt;A7 -->
<g id="edge2" class="edge">
<title>A8&#45;&gt;A7</title>
<path fill="none" stroke="#000000" d="M130.2252,-504.0817C151.7947,-525.3025 177.321,-549.1154 202,-569 203.0259,-569.8266 204.0661,-570.6531 205.1185,-571.4786"/>
<polygon fill="#000000" stroke="#000000" points="213.3857,-577.7698 202.7027,-575.295 209.4067,-574.7419 205.4278,-571.714 205.4278,-571.714 205.4278,-571.714 209.4067,-574.7419 208.1529,-568.1329 213.3857,-577.7698 213.3857,-577.7698"/>
<text text-anchor="middle" x="193.8426" y="-570.5192" font-family="Helvetica,sans-Serif" font-size="10.00" fill="#000000">1 level</text>
</g>
<!-- A8&#45;&gt;A8 -->
<g id="edge3" class="edge">
<title>A8&#45;&gt;A8</title>
<path fill="none" stroke="#000000" d="M41.1364,-504.1461C45.4296,-514.6221 57.0508,-522 76,-522 89.3237,-522 99.0245,-518.3525 105.1024,-512.5452"/>
<polygon fill="#000000" stroke="#000000" points="110.8636,-504.1461 108.918,-514.938 108.0353,-508.2694 105.2071,-512.3926 105.2071,-512.3926 105.2071,-512.3926 108.0353,-508.2694 101.4961,-509.8472 110.8636,-504.1461 110.8636,-504.1461"/>
<text text-anchor="middle" x="107.5807" y="-520.8749" font-family="Helvetica,sans-Serif" font-size="10.00" fill="#000000">ensembles *</text>
<text text-anchor="middle" x="56.7535" y="-513.6404" font-family="Helvetica,sans-Serif" font-size="10.00" fill="#000000">1</text>
</g>
<!-- A9 -->
<g id="node10" class="node">
<title>A9</title>
<polygon fill="none" stroke="#000000" points="208,-454 208,-486 336,-486 336,-454 208,-454"/>
<text text-anchor="start" x="247.2695" y="-467" font-family="Helvetica,sans-Serif" font-size="10.00" fill="#000000">Leadership</text>
<polygon fill="none" stroke="#000000" points="208,-410 208,-454 336,-454 336,-410 208,-410"/>
<text text-anchor="start" x="217.8115" y="-435" font-family="Helvetica,sans-Serif" font-size="10.00" fill="#000000"> &#45;appointment_date:date</text>
<text text-anchor="start" x="233.108" y="-423" font-family="Helvetica,sans-Serif" font-size="10.00" fill="#000000"> &#45;primary:boolean</text>
</g>
<!-- A8&#45;&gt;A9 -->
<g id="edge4" class="edge">
<title>A8&#45;&gt;A9</title>
<path fill="none" stroke="#000000" d="M164.2617,-448C175.3587,-448 186.6238,-448 197.4805,-448"/>
<polygon fill="#000000" stroke="#000000" points="164.0592,-448.0001 158.0592,-452 152.0592,-448 158.0593,-444 164.0592,-448.0001"/>
<polygon fill="#000000" stroke="#000000" points="207.7454,-448 197.7455,-452.5001 202.7454,-448 197.7454,-448.0001 197.7454,-448.0001 197.7454,-448.0001 202.7454,-448 197.7454,-443.5001 207.7454,-448 207.7454,-448"/>
<text text-anchor="middle" x="189.6193" y="-453.4524" font-family="Helvetica,sans-Serif" font-size="10.00" fill="#000000">1..*</text>
<text text-anchor="middle" x="170.1854" y="-436.5476" font-family="Helvetica,sans-Serif" font-size="10.00" fill="#000000">*</text>
</g>
<!-- A10 -->
<g id="node11" class="node">
<title>A10</title>
<polygon fill="none" stroke="#000000" points="392,-424 392,-456 534,-456 534,-424 392,-424"/>
<text text-anchor="start" x="444.668" y="-437" font-family="Helvetica,sans-Serif" font-size="10.00" fill="#000000">Member</text>
<polygon fill="none" stroke="#000000" points="392,-308 392,-424 534,-424 534,-308 392,-308"/>
<text text-anchor="start" x="433.831" y="-405" font-family="Helvetica,sans-Serif" font-size="10.00" fill="#000000"> &#45;name:string</text>
<text text-anchor="start" x="423.264" y="-381" font-family="Helvetica,sans-Serif" font-size="10.00" fill="#000000">&#45;joining_date:date</text>
<text text-anchor="start" x="430.7675" y="-357" font-family="Helvetica,sans-Serif" font-size="10.00" fill="#000000">&#45;birthdate:date</text>
<text text-anchor="start" x="411.0505" y="-333" font-family="Helvetica,sans-Serif" font-size="10.00" fill="#000000">&#45;food_restrictions:string</text>
<text text-anchor="start" x="401.599" y="-321" font-family="Helvetica,sans-Serif" font-size="10.00" fill="#000000"> &#45;additional_information:text</text>
</g>
<!-- A8&#45;&gt;A10 -->
<g id="edge5" class="edge">
<title>A8&#45;&gt;A10</title>
<path fill="none" stroke="#000000" d="M163.7629,-411.6677C176.4243,-407.4854 189.4257,-403.7439 202,-401 261.2994,-388.0598 329.7856,-383.4511 381.7214,-382.0023"/>
<polygon fill="#000000" stroke="#000000" points="163.6032,-411.7224 159.2259,-417.453 152.2526,-415.6164 156.6299,-409.8859 163.6032,-411.7224"/>
<polygon fill="#000000" stroke="#000000" points="391.8802,-381.7531 381.9936,-386.497 386.8817,-381.8757 381.8832,-381.9984 381.8832,-381.9984 381.8832,-381.9984 386.8817,-381.8757 381.7728,-377.4997 391.8802,-381.7531 391.8802,-381.7531"/>
<text text-anchor="middle" x="373.9668" y="-387.6474" font-family="Helvetica,sans-Serif" font-size="10.00" fill="#000000">members 1..*</text>
<text text-anchor="middle" x="166.6551" y="-398.7395" font-family="Helvetica,sans-Serif" font-size="10.00" fill="#000000">1</text>
</g>
<!-- A9&#45;&gt;A0 -->
<g id="edge11" class="edge">
<title>A9&#45;&gt;A0</title>
<path fill="none" stroke="#000000" d="M331.2398,-486.192C334.959,-489.0715 338.5784,-492.0194 342,-495 367.159,-516.916 366.7694,-529.1665 392,-551 392.9746,-551.8434 393.9652,-552.6838 394.9695,-553.5206"/>
<polygon fill="#000000" stroke="#000000" points="402.9016,-559.8499 392.2784,-557.1302 398.9934,-556.7313 395.0851,-553.6128 395.0851,-553.6128 395.0851,-553.6128 398.9934,-556.7313 397.8918,-550.0953 402.9016,-559.8499 402.9016,-559.8499"/>
<text text-anchor="middle" x="383.4614" y="-552.1513" font-family="Helvetica,sans-Serif" font-size="10.00" fill="#000000">act_as 1</text>
</g>
<!-- A9&#45;&gt;A10 -->
<g id="edge13" class="edge">
<title>A9&#45;&gt;A10</title>
<path fill="none" stroke="#000000" d="M345.9139,-422.4591C360.9917,-417.2489 376.8271,-411.777 391.8076,-406.6005"/>
<polygon fill="#000000" stroke="#000000" points="336.1316,-425.8394 344.1135,-418.32 340.8574,-424.2063 345.5832,-422.5733 345.5832,-422.5733 345.5832,-422.5733 340.8574,-424.2063 347.0529,-426.8265 336.1316,-425.8394 336.1316,-425.8394"/>
<text text-anchor="middle" x="377.436" y="-417.5094" font-family="Helvetica,sans-Serif" font-size="10.00" fill="#000000">1</text>
<text text-anchor="middle" x="350.5032" y="-408.9305" font-family="Helvetica,sans-Serif" font-size="10.00" fill="#000000">positions *</text>
</g>
<!-- A10&#45;&gt;A2 -->
<g id="edge7" class="edge">
<title>A10&#45;&gt;A2</title>
<path fill="none" stroke="#000000" d="M527.1762,-456.4004C529.4981,-459.2889 531.7798,-462.1625 534,-465 557.5599,-495.1108 557.479,-507.4615 584,-535 589.5561,-540.7692 595.6223,-546.4543 601.8874,-551.9311"/>
<polygon fill="#000000" stroke="#000000" points="609.9062,-558.7475 599.3724,-555.6994 606.0966,-555.5091 602.287,-552.2707 602.287,-552.2707 602.287,-552.2707 606.0966,-555.5091 605.2015,-548.8421 609.9062,-558.7475 609.9062,-558.7475"/>
<text text-anchor="middle" x="590.6212" y="-550.4477" font-family="Helvetica,sans-Serif" font-size="10.00" fill="#000000">phones *</text>
<text text-anchor="middle" x="545.115" y="-462.2433" font-family="Helvetica,sans-Serif" font-size="10.00" fill="#000000">1</text>
</g>
<!-- A10&#45;&gt;A4 -->
<g id="edge10" class="edge">
<title>A10&#45;&gt;A4</title>
<path fill="none" stroke="#000000" d="M534.0495,-415.995C558.7046,-427.7917 586.1369,-440.9172 610.0036,-452.3367"/>
<polygon fill="#000000" stroke="#000000" points="619.3048,-456.787 608.3419,-456.5301 614.7945,-454.6289 610.2841,-452.4708 610.2841,-452.4708 610.2841,-452.4708 614.7945,-454.6289 612.2264,-448.4116 619.3048,-456.787 619.3048,-456.787"/>
<text text-anchor="middle" x="599.3058" y="-453.5881" font-family="Helvetica,sans-Serif" font-size="10.00" fill="#000000">*</text>
<text text-anchor="middle" x="554.0485" y="-413.1938" font-family="Helvetica,sans-Serif" font-size="10.00" fill="#000000">1</text>
</g>
<!-- A10&#45;&gt;A5 -->
<g id="edge8" class="edge">
<title>A10&#45;&gt;A5</title>
<path fill="none" stroke="#000000" d="M534.0495,-382C556.2181,-382 580.632,-382 602.6804,-382"/>
<polygon fill="#000000" stroke="#000000" points="612.9596,-382 602.9596,-386.5001 607.9596,-382 602.9596,-382.0001 602.9596,-382.0001 602.9596,-382.0001 607.9596,-382 602.9595,-377.5001 612.9596,-382 612.9596,-382"/>
<text text-anchor="middle" x="594.8334" y="-387.4524" font-family="Helvetica,sans-Serif" font-size="10.00" fill="#000000">emails *</text>
<text text-anchor="middle" x="552.1757" y="-370.5476" font-family="Helvetica,sans-Serif" font-size="10.00" fill="#000000">1</text>
</g>
<!-- A10&#45;&gt;A6 -->
<g id="edge9" class="edge">
<title>A10&#45;&gt;A6</title>
<path fill="none" stroke="#000000" d="M534.0495,-337.8065C551.2364,-327.1161 569.7727,-315.5864 587.5101,-304.5536"/>
<polygon fill="#000000" stroke="#000000" points="596.1439,-299.1832 590.0293,-308.2861 591.8982,-301.8241 587.6525,-304.465 587.6525,-304.465 587.6525,-304.465 591.8982,-301.8241 585.2757,-300.6439 596.1439,-299.1832 596.1439,-299.1832"/>
<text text-anchor="middle" x="585.2166" y="-312.9342" font-family="Helvetica,sans-Serif" font-size="10.00" fill="#000000">addresses *</text>
<text text-anchor="middle" x="544.9768" y="-318.0556" font-family="Helvetica,sans-Serif" font-size="10.00" fill="#000000">1</text>
</g>
<!-- A11 -->
<g id="node12" class="node">
<title>A11</title>
<polygon fill="none" stroke="#000000" points="584,-128 584,-160 760,-160 760,-128 584,-128"/>
<text text-anchor="start" x="611.9875" y="-141" font-family="Helvetica,sans-Serif" font-size="10.00" fill="#000000">Organizational_Information</text>
<polygon fill="none" stroke="#000000" points="584,0 584,-128 760,-128 760,0 584,0"/>
<text text-anchor="start" x="617.8195" y="-109" font-family="Helvetica,sans-Serif" font-size="10.00" fill="#000000"> &#45;associated_code:string</text>
<text text-anchor="start" x="622.26" y="-97" font-family="Helvetica,sans-Serif" font-size="10.00" fill="#000000"> &#45;convertion_date:date</text>
<text text-anchor="start" x="593.9255" y="-85" font-family="Helvetica,sans-Serif" font-size="10.00" fill="#000000"> &#45;vertical_structure:not_defined_yet</text>
<text text-anchor="start" x="638.1075" y="-73" font-family="Helvetica,sans-Serif" font-size="10.00" fill="#000000"> &#45;position:string</text>
<text text-anchor="start" x="630.328" y="-61" font-family="Helvetica,sans-Serif" font-size="10.00" fill="#000000"> &#45;study_level:string</text>
<text text-anchor="start" x="610.321" y="-49" font-family="Helvetica,sans-Serif" font-size="10.00" fill="#000000"> &#45;conversions_made:integer</text>
<text text-anchor="start" x="605.872" y="-37" font-family="Helvetica,sans-Serif" font-size="10.00" fill="#000000"> &#45;discussion_meeting:boolean</text>
<text text-anchor="start" x="598.645" y="-25" font-family="Helvetica,sans-Serif" font-size="10.00" fill="#000000"> &#45;sustaining_contribution:boolean</text>
<text text-anchor="start" x="593.925" y="-13" font-family="Helvetica,sans-Serif" font-size="10.00" fill="#000000"> &#45;publications_subscription:boolean</text>
</g>
<!-- A10&#45;&gt;A11 -->
<g id="edge6" class="edge">
<title>A10&#45;&gt;A11</title>
<path fill="none" stroke="#000000" d="M499.109,-307.5502C521.1203,-265.2309 551.2623,-212.2272 584,-169 584.2091,-168.7239 584.419,-168.4478 584.6296,-168.1718"/>
<polygon fill="#000000" stroke="#000000" points="590.9441,-160.1748 588.2787,-170.8118 587.8455,-164.099 584.747,-168.0231 584.747,-168.0231 584.747,-168.0231 587.8455,-164.099 581.2152,-165.2344 590.9441,-160.1748 590.9441,-160.1748"/>
<text text-anchor="middle" x="586.3449" y="-176.6388" font-family="Helvetica,sans-Serif" font-size="10.00" fill="#000000">1</text>
</g>
</g>
</svg>
