<?xml version="1.0" encoding="UTF-8" standalone="no"?>
<!DOCTYPE svg PUBLIC "-//W3C//DTD SVG 1.1//EN"
 "http://www.w3.org/Graphics/SVG/1.1/DTD/svg11.dtd">
<!-- Generated by graphviz version 2.40.1 (20161225.0304)
 -->
<!-- Title: G Pages: 1 -->
<svg width="914pt" height="662pt"
 viewBox="0.00 0.00 914.00 662.00" xmlns="http://www.w3.org/2000/svg" xmlns:xlink="http://www.w3.org/1999/xlink">
<g id="graph0" class="graph" transform="scale(1 1) rotate(0) translate(4 658)">
<title>G</title>
<polygon fill="#ffffff" stroke="transparent" points="-4,4 -4,-658 910,-658 910,4 -4,4"/>
<!-- A0 -->
<g id="node1" class="node">
<title>A0</title>
<polygon fill="none" stroke="#000000" points="358,-604 358,-636 498,-636 498,-604 358,-604"/>
<text text-anchor="start" x="410.2185" y="-617" font-family="Helvetica,sans-Serif" font-size="10.00" fill="#000000">Position</text>
<polygon fill="none" stroke="#000000" points="358,-560 358,-604 498,-604 498,-560 358,-560"/>
<text text-anchor="start" x="387.1635" y="-585" font-family="Helvetica,sans-Serif" font-size="10.00" fill="#000000"> &#45;description:string</text>
<text text-anchor="start" x="367.707" y="-573" font-family="Helvetica,sans-Serif" font-size="10.00" fill="#000000"> &#45;precedence_order:integer</text>
</g>
<!-- A13 -->
<g id="node14" class="node">
<title>A13</title>
<polygon fill="#f5deb3" stroke="#000000" points="474.1371,-542 375.8629,-542 375.8629,-474 480.1371,-474 480.1371,-536 474.1371,-542"/>
<polyline fill="none" stroke="#000000" points="474.1371,-542 474.1371,-536 "/>
<polyline fill="none" stroke="#000000" points="480.1371,-536 474.1371,-536 "/>
<text text-anchor="middle" x="428" y="-529" font-family="Helvetica,sans-Serif" font-size="10.00" fill="#000000">Resp.Geral</text>
<text text-anchor="middle" x="428" y="-517" font-family="Helvetica,sans-Serif" font-size="10.00" fill="#000000">Resp.Núcleo</text>
<text text-anchor="middle" x="428" y="-505" font-family="Helvetica,sans-Serif" font-size="10.00" fill="#000000">Resp.Seção</text>
<text text-anchor="middle" x="428" y="-493" font-family="Helvetica,sans-Serif" font-size="10.00" fill="#000000">Resp.Técnico</text>
<text text-anchor="middle" x="428" y="-481" font-family="Helvetica,sans-Serif" font-size="10.00" fill="#000000">Resp.Estudo etc.</text>
</g>
<!-- A0&#45;&gt;A13 -->
<g id="edge12" class="edge">
<title>A0&#45;&gt;A13</title>
<path fill="none" stroke="#000000" stroke-dasharray="5,2" d="M428,-559.5698C428,-553.7471 428,-547.9243 428,-542.1016"/>
</g>
<!-- A1 -->
<g id="node2" class="node">
<title>A1</title>
<polygon fill="none" stroke="#000000" points="790.5,-610 790.5,-642 891.5,-642 891.5,-610 790.5,-610"/>
<text text-anchor="start" x="812.6545" y="-623" font-family="Helvetica,sans-Serif" font-size="10.00" fill="#000000">Phone_Type</text>
<polygon fill="none" stroke="#000000" points="790.5,-578 790.5,-610 891.5,-610 891.5,-578 790.5,-578"/>
<text text-anchor="start" x="800.1635" y="-591" font-family="Helvetica,sans-Serif" font-size="10.00" fill="#000000"> &#45;description:string</text>
</g>
<!-- A14 -->
<g id="node15" class="node">
<title>A14</title>
<polygon fill="#f5deb3" stroke="#000000" points="889.1151,-560 785.8849,-560 785.8849,-524 895.1151,-524 895.1151,-554 889.1151,-560"/>
<polyline fill="none" stroke="#000000" points="889.1151,-560 889.1151,-554 "/>
<polyline fill="none" stroke="#000000" points="895.1151,-554 889.1151,-554 "/>
<text text-anchor="middle" x="840.5" y="-545" font-family="Helvetica,sans-Serif" font-size="10.00" fill="#000000">mobile home work</text>
<text text-anchor="middle" x="840.5" y="-533" font-family="Helvetica,sans-Serif" font-size="10.00" fill="#000000">whatsapp etc.</text>
</g>
<!-- A1&#45;&gt;A14 -->
<g id="edge15" class="edge">
<title>A1&#45;&gt;A14</title>
<path fill="none" stroke="#000000" stroke-dasharray="5,2" d="M840.5,-577.6187C840.5,-571.7666 840.5,-565.9146 840.5,-560.0625"/>
</g>
<!-- A2 -->
<g id="node3" class="node">
<title>A2</title>
<polygon fill="none" stroke="#000000" points="562,-615 562,-647 713,-647 713,-615 562,-615"/>
<text text-anchor="start" x="623.0475" y="-628" font-family="Helvetica,sans-Serif" font-size="10.00" fill="#000000">Phone</text>
<polygon fill="none" stroke="#000000" points="562,-559 562,-615 713,-615 713,-559 562,-559"/>
<text text-anchor="start" x="587.21" y="-596" font-family="Helvetica,sans-Serif" font-size="10.00" fill="#000000"> &#45;phone_number:string</text>
<text text-anchor="start" x="571.935" y="-584" font-family="Helvetica,sans-Serif" font-size="10.00" fill="#000000"> &#45;additional_information:string</text>
<text text-anchor="start" x="598.608" y="-572" font-family="Helvetica,sans-Serif" font-size="10.00" fill="#000000"> &#45;primary:boolean</text>
</g>
<!-- A2&#45;&gt;A1 -->
<g id="edge14" class="edge">
<title>A2&#45;&gt;A1</title>
<path fill="none" stroke="#000000" d="M712.7759,-605.6065C734.9176,-606.3682 758.8179,-607.1903 779.8881,-607.9151"/>
<polygon fill="#000000" stroke="#000000" points="789.9842,-608.2624 779.8354,-612.4158 784.9872,-608.0904 779.9901,-607.9185 779.9901,-607.9185 779.9901,-607.9185 784.9872,-608.0904 780.1449,-603.4211 789.9842,-608.2624 789.9842,-608.2624"/>
<text text-anchor="middle" x="771.5782" y="-613.0866" font-family="Helvetica,sans-Serif" font-size="10.00" fill="#000000">1</text>
<text text-anchor="middle" x="731.1819" y="-594.7823" font-family="Helvetica,sans-Serif" font-size="10.00" fill="#000000">*</text>
</g>
<!-- A3 -->
<g id="node4" class="node">
<title>A3</title>
<polygon fill="none" stroke="#000000" points="775.5,-474 775.5,-506 906.5,-506 906.5,-474 775.5,-474"/>
<text text-anchor="start" x="785.4295" y="-487" font-family="Helvetica,sans-Serif" font-size="10.00" fill="#000000">Identity_Document_Type</text>
<polygon fill="none" stroke="#000000" points="775.5,-442 775.5,-474 906.5,-474 906.5,-442 775.5,-442"/>
<text text-anchor="start" x="800.1635" y="-455" font-family="Helvetica,sans-Serif" font-size="10.00" fill="#000000"> &#45;description:string</text>
</g>
<!-- A15 -->
<g id="node16" class="node">
<title>A15</title>
<polygon fill="#f5deb3" stroke="#000000" points="881.6487,-424 793.3513,-424 793.3513,-356 887.6487,-356 887.6487,-418 881.6487,-424"/>
<polyline fill="none" stroke="#000000" points="881.6487,-424 881.6487,-418 "/>
<polyline fill="none" stroke="#000000" points="887.6487,-418 881.6487,-418 "/>
<text text-anchor="middle" x="840.5" y="-411" font-family="Helvetica,sans-Serif" font-size="10.00" fill="#000000">id&#45;card</text>
<text text-anchor="middle" x="840.5" y="-399" font-family="Helvetica,sans-Serif" font-size="10.00" fill="#000000">birth&#45;certificate</text>
<text text-anchor="middle" x="840.5" y="-387" font-family="Helvetica,sans-Serif" font-size="10.00" fill="#000000">passport</text>
<text text-anchor="middle" x="840.5" y="-375" font-family="Helvetica,sans-Serif" font-size="10.00" fill="#000000">driver&#39;s&#45;license</text>
<text text-anchor="middle" x="840.5" y="-363" font-family="Helvetica,sans-Serif" font-size="10.00" fill="#000000">etc.</text>
</g>
<!-- A3&#45;&gt;A15 -->
<g id="edge17" class="edge">
<title>A3&#45;&gt;A15</title>
<path fill="none" stroke="#000000" stroke-dasharray="5,2" d="M840.5,-441.6592C840.5,-435.8145 840.5,-429.9697 840.5,-424.125"/>
</g>
<!-- A4 -->
<g id="node5" class="node">
<title>A4</title>
<polygon fill="none" stroke="#000000" points="585,-494 585,-526 690,-526 690,-494 585,-494"/>
<text text-anchor="start" x="595.8225" y="-507" font-family="Helvetica,sans-Serif" font-size="10.00" fill="#000000">Identity_Document</text>
<polygon fill="none" stroke="#000000" points="585,-438 585,-494 690,-494 690,-438 585,-438"/>
<text text-anchor="start" x="603.887" y="-475" font-family="Helvetica,sans-Serif" font-size="10.00" fill="#000000"> &#45;number:string</text>
<text text-anchor="start" x="594.998" y="-451" font-family="Helvetica,sans-Serif" font-size="10.00" fill="#000000">&#45;complement:string</text>
</g>
<!-- A4&#45;&gt;A3 -->
<g id="edge16" class="edge">
<title>A4&#45;&gt;A3</title>
<path fill="none" stroke="#000000" d="M689.671,-479.9294C712.5456,-479.0301 739.7721,-477.9598 764.7562,-476.9776"/>
<polygon fill="#000000" stroke="#000000" points="774.938,-476.5774 765.1225,-481.4668 769.9419,-476.7738 764.9457,-476.9703 764.9457,-476.9703 764.9457,-476.9703 769.9419,-476.7738 764.7689,-472.4738 774.938,-476.5774 774.938,-476.5774"/>
<text text-anchor="middle" x="757.1579" y="-482.7352" font-family="Helvetica,sans-Serif" font-size="10.00" fill="#000000">1</text>
<text text-anchor="middle" x="707.4511" y="-467.7715" font-family="Helvetica,sans-Serif" font-size="10.00" fill="#000000">*</text>
</g>
<!-- A5 -->
<g id="node6" class="node">
<title>A5</title>
<polygon fill="none" stroke="#000000" points="578,-388 578,-420 696,-420 696,-388 578,-388"/>
<text text-anchor="start" x="624.5025" y="-401" font-family="Helvetica,sans-Serif" font-size="10.00" fill="#000000">Email</text>
<polygon fill="none" stroke="#000000" points="578,-344 578,-388 696,-388 696,-344 578,-344"/>
<text text-anchor="start" x="587.8295" y="-369" font-family="Helvetica,sans-Serif" font-size="10.00" fill="#000000"> &#45;email_address:string</text>
<text text-anchor="start" x="598.108" y="-357" font-family="Helvetica,sans-Serif" font-size="10.00" fill="#000000"> &#45;primary:boolean</text>
</g>
<!-- A6 -->
<g id="node7" class="node">
<title>A6</title>
<polygon fill="none" stroke="#000000" points="562,-294 562,-326 713,-326 713,-294 562,-294"/>
<text text-anchor="start" x="619.1625" y="-307" font-family="Helvetica,sans-Serif" font-size="10.00" fill="#000000">Address</text>
<polygon fill="none" stroke="#000000" points="562,-178 562,-294 713,-294 713,-178 562,-178"/>
<text text-anchor="start" x="593.8785" y="-275" font-family="Helvetica,sans-Serif" font-size="10.00" fill="#000000"> &#45;postal_code:string</text>
<text text-anchor="start" x="608.3315" y="-263" font-family="Helvetica,sans-Serif" font-size="10.00" fill="#000000"> &#45;street:string</text>
<text text-anchor="start" x="603.887" y="-251" font-family="Helvetica,sans-Serif" font-size="10.00" fill="#000000"> &#45;number:string</text>
<text text-anchor="start" x="571.935" y="-239" font-family="Helvetica,sans-Serif" font-size="10.00" fill="#000000"> &#45;additional_information:string</text>
<text text-anchor="start" x="590.265" y="-227" font-family="Helvetica,sans-Serif" font-size="10.00" fill="#000000"> &#45;neighborhood:string</text>
<text text-anchor="start" x="613.335" y="-215" font-family="Helvetica,sans-Serif" font-size="10.00" fill="#000000"> &#45;city:string</text>
<text text-anchor="start" x="609.996" y="-203" font-family="Helvetica,sans-Serif" font-size="10.00" fill="#000000"> &#45;state:string</text>
<text text-anchor="start" x="598.608" y="-191" font-family="Helvetica,sans-Serif" font-size="10.00" fill="#000000"> &#45;primary:boolean</text>
</g>
<!-- A7 -->
<g id="node8" class="node">
<title>A7</title>
<polygon fill="none" stroke="#000000" points="167,-622 167,-654 307,-654 307,-622 167,-622"/>
<text text-anchor="start" x="200.046" y="-635" font-family="Helvetica,sans-Serif" font-size="10.00" fill="#000000">Ensemble_Level</text>
<polygon fill="none" stroke="#000000" points="167,-578 167,-622 307,-622 307,-578 167,-578"/>
<text text-anchor="start" x="196.1635" y="-603" font-family="Helvetica,sans-Serif" font-size="10.00" fill="#000000"> &#45;description:string</text>
<text text-anchor="start" x="176.707" y="-591" font-family="Helvetica,sans-Serif" font-size="10.00" fill="#000000"> &#45;precedence_order:integer</text>
</g>
<!-- A12 -->
<g id="node13" class="node">
<title>A12</title>
<polygon fill="#f5deb3" stroke="#000000" points="295.6201,-560 172.3799,-560 172.3799,-504 301.6201,-504 301.6201,-554 295.6201,-560"/>
<polyline fill="none" stroke="#000000" points="295.6201,-560 295.6201,-554 "/>
<polyline fill="none" stroke="#000000" points="301.6201,-554 295.6201,-554 "/>
<text text-anchor="middle" x="237" y="-547" font-family="Helvetica,sans-Serif" font-size="10.00" fill="#000000">TONacional</text>
<text text-anchor="middle" x="237" y="-535" font-family="Helvetica,sans-Serif" font-size="10.00" fill="#000000">Coord.Geral</text>
<text text-anchor="middle" x="237" y="-523" font-family="Helvetica,sans-Serif" font-size="10.00" fill="#000000">Coordenadoria Núcleo</text>
<text text-anchor="middle" x="237" y="-511" font-family="Helvetica,sans-Serif" font-size="10.00" fill="#000000">Seção etc.</text>
</g>
<!-- A7&#45;&gt;A12 -->
<g id="edge1" class="edge">
<title>A7&#45;&gt;A12</title>
<path fill="none" stroke="#000000" stroke-dasharray="5,2" d="M237,-577.6504C237,-571.8398 237,-566.0293 237,-560.2188"/>
</g>
<!-- A8 -->
<g id="node9" class="node">
<title>A8</title>
<polygon fill="none" stroke="#000000" points=".5,-466 .5,-498 117.5,-498 117.5,-466 .5,-466"/>
<text text-anchor="start" x="36.7735" y="-479" font-family="Helvetica,sans-Serif" font-size="10.00" fill="#000000">Ensemble</text>
<polygon fill="none" stroke="#000000" points=".5,-398 .5,-466 117.5,-466 117.5,-398 .5,-398"/>
<text text-anchor="start" x="29.831" y="-447" font-family="Helvetica,sans-Serif" font-size="10.00" fill="#000000"> &#45;name:string</text>
<text text-anchor="start" x="10.3655" y="-423" font-family="Helvetica,sans-Serif" font-size="10.00" fill="#000000">&#45;foundation_date:date</text>
<text text-anchor="start" x="31.7755" y="-411" font-family="Helvetica,sans-Serif" font-size="10.00" fill="#000000"> &#45;history:text</text>
</g>
<!-- A8&#45;&gt;A7 -->
<g id="edge2" class="edge">
<title>A8&#45;&gt;A7</title>
<path fill="none" stroke="#000000" d="M98.4457,-498.0149C117.9163,-520.9024 142.4041,-547.6205 167,-569 167.9632,-569.8373 168.942,-570.672 169.9343,-571.5034"/>
<polygon fill="#000000" stroke="#000000" points="177.7675,-577.7995 167.154,-575.0422 173.8703,-574.6671 169.9731,-571.5347 169.9731,-571.5347 169.9731,-571.5347 173.8703,-574.6671 172.7923,-568.0272 177.7675,-577.7995 177.7675,-577.7995"/>
<text text-anchor="middle" x="158.3441" y="-570.0319" font-family="Helvetica,sans-Serif" font-size="10.00" fill="#000000">1 level</text>
</g>
<!-- A8&#45;&gt;A8 -->
<g id="edge3" class="edge">
<title>A8&#45;&gt;A8</title>
<path fill="none" stroke="#000000" d="M26.2983,-498.1139C29.688,-508.5182 40.4219,-516 58.5,-516 70.9287,-516 79.8861,-512.4637 85.3722,-506.8726"/>
<polygon fill="#000000" stroke="#000000" points="90.7017,-498.1139 89.3478,-508.9959 88.1026,-502.3853 85.5035,-506.6567 85.5035,-506.6567 85.5035,-506.6567 88.1026,-502.3853 81.6593,-504.3176 90.7017,-498.1139 90.7017,-498.1139"/>
<text text-anchor="middle" x="88.5003" y="-514.9924" font-family="Helvetica,sans-Serif" font-size="10.00" fill="#000000">ensembles *</text>
<text text-anchor="middle" x="40.9771" y="-508.6982" font-family="Helvetica,sans-Serif" font-size="10.00" fill="#000000">1</text>
</g>
<!-- A9 -->
<g id="node10" class="node">
<title>A9</title>
<polygon fill="none" stroke="#000000" points="173,-454 173,-486 301,-486 301,-454 173,-454"/>
<text text-anchor="start" x="212.2695" y="-467" font-family="Helvetica,sans-Serif" font-size="10.00" fill="#000000">Leadership</text>
<polygon fill="none" stroke="#000000" points="173,-410 173,-454 301,-454 301,-410 173,-410"/>
<text text-anchor="start" x="182.8115" y="-435" font-family="Helvetica,sans-Serif" font-size="10.00" fill="#000000"> &#45;appointment_date:date</text>
<text text-anchor="start" x="198.108" y="-423" font-family="Helvetica,sans-Serif" font-size="10.00" fill="#000000"> &#45;primary:boolean</text>
</g>
<!-- A8&#45;&gt;A9 -->
<g id="edge4" class="edge">
<title>A8&#45;&gt;A9</title>
<path fill="none" stroke="#000000" d="M129.7626,-448C140.5618,-448 151.7277,-448 162.5916,-448"/>
<polygon fill="#000000" stroke="#000000" points="129.4423,-448.0001 123.4422,-452 117.4423,-448 123.4423,-444 129.4423,-448.0001"/>
<polygon fill="#000000" stroke="#000000" points="172.8933,-448 162.8933,-452.5001 167.8933,-448 162.8933,-448.0001 162.8933,-448.0001 162.8933,-448.0001 167.8933,-448 162.8932,-443.5001 172.8933,-448 172.8933,-448"/>
<text text-anchor="middle" x="154.7671" y="-453.4524" font-family="Helvetica,sans-Serif" font-size="10.00" fill="#000000">1..*</text>
<text text-anchor="middle" x="135.5684" y="-436.5476" font-family="Helvetica,sans-Serif" font-size="10.00" fill="#000000">*</text>
</g>
<!-- A10 -->
<g id="node11" class="node">
<title>A10</title>
<polygon fill="none" stroke="#000000" points="357,-424 357,-456 499,-456 499,-424 357,-424"/>
<text text-anchor="start" x="409.668" y="-437" font-family="Helvetica,sans-Serif" font-size="10.00" fill="#000000">Member</text>
<polygon fill="none" stroke="#000000" points="357,-308 357,-424 499,-424 499,-308 357,-308"/>
<text text-anchor="start" x="398.831" y="-405" font-family="Helvetica,sans-Serif" font-size="10.00" fill="#000000"> &#45;name:string</text>
<text text-anchor="start" x="388.264" y="-381" font-family="Helvetica,sans-Serif" font-size="10.00" fill="#000000">&#45;joining_date:date</text>
<text text-anchor="start" x="395.7675" y="-357" font-family="Helvetica,sans-Serif" font-size="10.00" fill="#000000">&#45;birthdate:date</text>
<text text-anchor="start" x="376.0505" y="-333" font-family="Helvetica,sans-Serif" font-size="10.00" fill="#000000">&#45;food_restrictions:string</text>
<text text-anchor="start" x="366.599" y="-321" font-family="Helvetica,sans-Serif" font-size="10.00" fill="#000000"> &#45;additional_information:text</text>
</g>
<!-- A8&#45;&gt;A10 -->
<g id="edge5" class="edge">
<title>A8&#45;&gt;A10</title>
<path fill="none" stroke="#000000" d="M128.5571,-413.6128C141.1089,-408.6259 154.2548,-404.1287 167,-401 226.0482,-386.5046 294.6868,-381.9722 346.7518,-380.9476"/>
<polygon fill="#000000" stroke="#000000" points="128.3126,-413.714 124.2995,-419.7053 117.2256,-418.3052 121.2387,-412.314 128.3126,-413.714"/>
<polygon fill="#000000" stroke="#000000" points="356.9361,-380.7875 347.0081,-385.4442 351.9367,-380.8661 346.9373,-380.9447 346.9373,-380.9447 346.9373,-380.9447 351.9367,-380.8661 346.8666,-376.4453 356.9361,-380.7875 356.9361,-380.7875"/>
<text text-anchor="middle" x="338.945" y="-386.5237" font-family="Helvetica,sans-Serif" font-size="10.00" fill="#000000">members 1..*</text>
<text text-anchor="middle" x="130.7388" y="-400.561" font-family="Helvetica,sans-Serif" font-size="10.00" fill="#000000">1</text>
</g>
<!-- A9&#45;&gt;A0 -->
<g id="edge11" class="edge">
<title>A9&#45;&gt;A0</title>
<path fill="none" stroke="#000000" d="M296.2398,-486.192C299.959,-489.0715 303.5784,-492.0194 307,-495 332.159,-516.916 331.7694,-529.1665 357,-551 357.9746,-551.8434 358.9652,-552.6838 359.9695,-553.5206"/>
<polygon fill="#000000" stroke="#000000" points="367.9016,-559.8499 357.2784,-557.1302 363.9934,-556.7313 360.0851,-553.6128 360.0851,-553.6128 360.0851,-553.6128 363.9934,-556.7313 362.8918,-550.0953 367.9016,-559.8499 367.9016,-559.8499"/>
<text text-anchor="middle" x="348.4614" y="-552.1513" font-family="Helvetica,sans-Serif" font-size="10.00" fill="#000000">act_as 1</text>
</g>
<!-- A9&#45;&gt;A10 -->
<g id="edge13" class="edge">
<title>A9&#45;&gt;A10</title>
<path fill="none" stroke="#000000" d="M310.9139,-422.4591C325.9917,-417.2489 341.8271,-411.777 356.8076,-406.6005"/>
<polygon fill="#000000" stroke="#000000" points="301.1316,-425.8394 309.1135,-418.32 305.8574,-424.2063 310.5832,-422.5733 310.5832,-422.5733 310.5832,-422.5733 305.8574,-424.2063 312.0529,-426.8265 301.1316,-425.8394 301.1316,-425.8394"/>
<text text-anchor="middle" x="342.436" y="-417.5094" font-family="Helvetica,sans-Serif" font-size="10.00" fill="#000000">1</text>
<text text-anchor="middle" x="315.5032" y="-408.9305" font-family="Helvetica,sans-Serif" font-size="10.00" fill="#000000">positions *</text>
</g>
<!-- A10&#45;&gt;A2 -->
<g id="edge7" class="edge">
<title>A10&#45;&gt;A2</title>
<path fill="none" stroke="#000000" d="M492.1762,-456.4004C494.4981,-459.2889 496.7798,-462.1625 499,-465 522.5599,-495.1108 522.479,-507.4615 549,-535 554.5561,-540.7692 560.6223,-546.4543 566.8874,-551.9311"/>
<polygon fill="#000000" stroke="#000000" points="574.9062,-558.7475 564.3724,-555.6994 571.0966,-555.5091 567.287,-552.2707 567.287,-552.2707 567.287,-552.2707 571.0966,-555.5091 570.2015,-548.8421 574.9062,-558.7475 574.9062,-558.7475"/>
<text text-anchor="middle" x="555.6212" y="-550.4477" font-family="Helvetica,sans-Serif" font-size="10.00" fill="#000000">phones *</text>
<text text-anchor="middle" x="510.115" y="-462.2433" font-family="Helvetica,sans-Serif" font-size="10.00" fill="#000000">1</text>
</g>
<!-- A10&#45;&gt;A4 -->
<g id="edge10" class="edge">
<title>A10&#45;&gt;A4</title>
<path fill="none" stroke="#000000" d="M499.0495,-415.995C523.7046,-427.7917 551.1369,-440.9172 575.0036,-452.3367"/>
<polygon fill="#000000" stroke="#000000" points="584.3048,-456.787 573.3419,-456.5301 579.7945,-454.6289 575.2841,-452.4708 575.2841,-452.4708 575.2841,-452.4708 579.7945,-454.6289 577.2264,-448.4116 584.3048,-456.787 584.3048,-456.787"/>
<text text-anchor="middle" x="564.3058" y="-453.5881" font-family="Helvetica,sans-Serif" font-size="10.00" fill="#000000">*</text>
<text text-anchor="middle" x="519.0485" y="-413.1938" font-family="Helvetica,sans-Serif" font-size="10.00" fill="#000000">1</text>
</g>
<!-- A10&#45;&gt;A5 -->
<g id="edge8" class="edge">
<title>A10&#45;&gt;A5</title>
<path fill="none" stroke="#000000" d="M499.0495,-382C521.2181,-382 545.632,-382 567.6804,-382"/>
<polygon fill="#000000" stroke="#000000" points="577.9596,-382 567.9596,-386.5001 572.9596,-382 567.9596,-382.0001 567.9596,-382.0001 567.9596,-382.0001 572.9596,-382 567.9595,-377.5001 577.9596,-382 577.9596,-382"/>
<text text-anchor="middle" x="559.8334" y="-387.4524" font-family="Helvetica,sans-Serif" font-size="10.00" fill="#000000">emails *</text>
<text text-anchor="middle" x="517.1757" y="-370.5476" font-family="Helvetica,sans-Serif" font-size="10.00" fill="#000000">1</text>
</g>
<!-- A10&#45;&gt;A6 -->
<g id="edge9" class="edge">
<title>A10&#45;&gt;A6</title>
<path fill="none" stroke="#000000" d="M499.0495,-337.8065C516.2364,-327.1161 534.7727,-315.5864 552.5101,-304.5536"/>
<polygon fill="#000000" stroke="#000000" points="561.1439,-299.1832 555.0293,-308.2861 556.8982,-301.8241 552.6525,-304.465 552.6525,-304.465 552.6525,-304.465 556.8982,-301.8241 550.2757,-300.6439 561.1439,-299.1832 561.1439,-299.1832"/>
<text text-anchor="middle" x="550.2166" y="-312.9342" font-family="Helvetica,sans-Serif" font-size="10.00" fill="#000000">addresses *</text>
<text text-anchor="middle" x="509.9768" y="-318.0556" font-family="Helvetica,sans-Serif" font-size="10.00" fill="#000000">1</text>
</g>
<!-- A11 -->
<g id="node12" class="node">
<title>A11</title>
<polygon fill="none" stroke="#000000" points="549,-128 549,-160 725,-160 725,-128 549,-128"/>
<text text-anchor="start" x="576.9875" y="-141" font-family="Helvetica,sans-Serif" font-size="10.00" fill="#000000">Organizational_Information</text>
<polygon fill="none" stroke="#000000" points="549,0 549,-128 725,-128 725,0 549,0"/>
<text text-anchor="start" x="582.8195" y="-109" font-family="Helvetica,sans-Serif" font-size="10.00" fill="#000000"> &#45;associated_code:string</text>
<text text-anchor="start" x="587.26" y="-97" font-family="Helvetica,sans-Serif" font-size="10.00" fill="#000000"> &#45;convertion_date:date</text>
<text text-anchor="start" x="558.9255" y="-85" font-family="Helvetica,sans-Serif" font-size="10.00" fill="#000000"> &#45;vertical_structure:not_defined_yet</text>
<text text-anchor="start" x="603.1075" y="-73" font-family="Helvetica,sans-Serif" font-size="10.00" fill="#000000"> &#45;position:string</text>
<text text-anchor="start" x="595.328" y="-61" font-family="Helvetica,sans-Serif" font-size="10.00" fill="#000000"> &#45;study_level:string</text>
<text text-anchor="start" x="575.321" y="-49" font-family="Helvetica,sans-Serif" font-size="10.00" fill="#000000"> &#45;conversions_made:integer</text>
<text text-anchor="start" x="570.872" y="-37" font-family="Helvetica,sans-Serif" font-size="10.00" fill="#000000"> &#45;discussion_meeting:boolean</text>
<text text-anchor="start" x="563.645" y="-25" font-family="Helvetica,sans-Serif" font-size="10.00" fill="#000000"> &#45;sustaining_contribution:boolean</text>
<text text-anchor="start" x="558.925" y="-13" font-family="Helvetica,sans-Serif" font-size="10.00" fill="#000000"> &#45;publications_subscription:boolean</text>
</g>
<!-- A10&#45;&gt;A11 -->
<g id="edge6" class="edge">
<title>A10&#45;&gt;A11</title>
<path fill="none" stroke="#000000" d="M464.109,-307.5502C486.1203,-265.2309 516.2623,-212.2272 549,-169 549.2091,-168.7239 549.419,-168.4478 549.6296,-168.1718"/>
<polygon fill="#000000" stroke="#000000" points="555.9441,-160.1748 553.2787,-170.8118 552.8455,-164.099 549.747,-168.0231 549.747,-168.0231 549.747,-168.0231 552.8455,-164.099 546.2152,-165.2344 555.9441,-160.1748 555.9441,-160.1748"/>
<text text-anchor="middle" x="551.3449" y="-176.6388" font-family="Helvetica,sans-Serif" font-size="10.00" fill="#000000">1</text>
</g>
</g>
</svg>
