<?xml version="1.0" encoding="UTF-8" standalone="no"?>
<!DOCTYPE svg PUBLIC "-//W3C//DTD SVG 1.1//EN"
 "http://www.w3.org/Graphics/SVG/1.1/DTD/svg11.dtd">
<!-- Generated by graphviz version 2.40.1 (20161225.0304)
 -->
<!-- Title: G Pages: 1 -->
<svg width="895pt" height="662pt"
 viewBox="0.00 0.00 895.00 662.00" xmlns="http://www.w3.org/2000/svg" xmlns:xlink="http://www.w3.org/1999/xlink">
<g id="graph0" class="graph" transform="scale(1 1) rotate(0) translate(4 658)">
<title>G</title>
<polygon fill="#ffffff" stroke="transparent" points="-4,4 -4,-658 891,-658 891,4 -4,4"/>
<!-- A0 -->
<g id="node1" class="node">
<title>A0</title>
<polygon fill="none" stroke="#000000" points="368.5,-586 368.5,-618 469.5,-618 469.5,-586 368.5,-586"/>
<text text-anchor="start" x="401.2185" y="-599" font-family="Helvetica,sans-Serif" font-size="10.00" fill="#000000">Position</text>
<polygon fill="none" stroke="#000000" points="368.5,-554 368.5,-586 469.5,-586 469.5,-554 368.5,-554"/>
<text text-anchor="start" x="378.1635" y="-567" font-family="Helvetica,sans-Serif" font-size="10.00" fill="#000000"> &#45;description:string</text>
</g>
<!-- A13 -->
<g id="node14" class="node">
<title>A13</title>
<polygon fill="#f5deb3" stroke="#000000" points="464.6371,-536 366.3629,-536 366.3629,-468 470.6371,-468 470.6371,-530 464.6371,-536"/>
<polyline fill="none" stroke="#000000" points="464.6371,-536 464.6371,-530 "/>
<polyline fill="none" stroke="#000000" points="470.6371,-530 464.6371,-530 "/>
<text text-anchor="middle" x="418.5" y="-523" font-family="Helvetica,sans-Serif" font-size="10.00" fill="#000000">Resp.Geral</text>
<text text-anchor="middle" x="418.5" y="-511" font-family="Helvetica,sans-Serif" font-size="10.00" fill="#000000">Resp.Núcleo</text>
<text text-anchor="middle" x="418.5" y="-499" font-family="Helvetica,sans-Serif" font-size="10.00" fill="#000000">Resp.Seção</text>
<text text-anchor="middle" x="418.5" y="-487" font-family="Helvetica,sans-Serif" font-size="10.00" fill="#000000">Resp.Técnico</text>
<text text-anchor="middle" x="418.5" y="-475" font-family="Helvetica,sans-Serif" font-size="10.00" fill="#000000">Resp.Estudo etc.</text>
</g>
<!-- A0&#45;&gt;A13 -->
<g id="edge12" class="edge">
<title>A0&#45;&gt;A13</title>
<path fill="none" stroke="#000000" stroke-dasharray="5,2" d="M418.5,-553.6592C418.5,-547.8145 418.5,-541.9697 418.5,-536.125"/>
</g>
<!-- A1 -->
<g id="node2" class="node">
<title>A1</title>
<polygon fill="none" stroke="#000000" points="771.5,-609 771.5,-641 872.5,-641 872.5,-609 771.5,-609"/>
<text text-anchor="start" x="793.6545" y="-622" font-family="Helvetica,sans-Serif" font-size="10.00" fill="#000000">Phone_Type</text>
<polygon fill="none" stroke="#000000" points="771.5,-577 771.5,-609 872.5,-609 872.5,-577 771.5,-577"/>
<text text-anchor="start" x="781.1635" y="-590" font-family="Helvetica,sans-Serif" font-size="10.00" fill="#000000"> &#45;description:string</text>
</g>
<!-- A14 -->
<g id="node15" class="node">
<title>A14</title>
<polygon fill="#f5deb3" stroke="#000000" points="870.1151,-559 766.8849,-559 766.8849,-523 876.1151,-523 876.1151,-553 870.1151,-559"/>
<polyline fill="none" stroke="#000000" points="870.1151,-559 870.1151,-553 "/>
<polyline fill="none" stroke="#000000" points="876.1151,-553 870.1151,-553 "/>
<text text-anchor="middle" x="821.5" y="-544" font-family="Helvetica,sans-Serif" font-size="10.00" fill="#000000">mobile home work</text>
<text text-anchor="middle" x="821.5" y="-532" font-family="Helvetica,sans-Serif" font-size="10.00" fill="#000000">whatsapp etc.</text>
</g>
<!-- A1&#45;&gt;A14 -->
<g id="edge15" class="edge">
<title>A1&#45;&gt;A14</title>
<path fill="none" stroke="#000000" stroke-dasharray="5,2" d="M821.5,-576.6187C821.5,-570.7666 821.5,-564.9146 821.5,-559.0625"/>
</g>
<!-- A2 -->
<g id="node3" class="node">
<title>A2</title>
<polygon fill="none" stroke="#000000" points="558,-606 558,-638 678,-638 678,-606 558,-606"/>
<text text-anchor="start" x="603.5475" y="-619" font-family="Helvetica,sans-Serif" font-size="10.00" fill="#000000">Phone</text>
<polygon fill="none" stroke="#000000" points="558,-562 558,-606 678,-606 678,-562 558,-562"/>
<text text-anchor="start" x="567.71" y="-587" font-family="Helvetica,sans-Serif" font-size="10.00" fill="#000000"> &#45;phone_number:string</text>
<text text-anchor="start" x="579.108" y="-575" font-family="Helvetica,sans-Serif" font-size="10.00" fill="#000000"> &#45;primary:boolean</text>
</g>
<!-- A2&#45;&gt;A1 -->
<g id="edge14" class="edge">
<title>A2&#45;&gt;A1</title>
<path fill="none" stroke="#000000" d="M678.2307,-602.6638C704.201,-603.8123 734.5269,-605.1535 760.574,-606.3055"/>
<polygon fill="#000000" stroke="#000000" points="770.7004,-606.7533 760.5113,-610.807 765.7053,-606.5324 760.7102,-606.3114 760.7102,-606.3114 760.7102,-606.3114 765.7053,-606.5324 760.9091,-601.8158 770.7004,-606.7533 770.7004,-606.7533"/>
<text text-anchor="middle" x="752.2185" y="-611.3966" font-family="Helvetica,sans-Serif" font-size="10.00" fill="#000000">1</text>
<text text-anchor="middle" x="696.7126" y="-592.0205" font-family="Helvetica,sans-Serif" font-size="10.00" fill="#000000">*</text>
</g>
<!-- A3 -->
<g id="node4" class="node">
<title>A3</title>
<polygon fill="none" stroke="#000000" points="756.5,-473 756.5,-505 887.5,-505 887.5,-473 756.5,-473"/>
<text text-anchor="start" x="766.4295" y="-486" font-family="Helvetica,sans-Serif" font-size="10.00" fill="#000000">Identity_Document_Type</text>
<polygon fill="none" stroke="#000000" points="756.5,-441 756.5,-473 887.5,-473 887.5,-441 756.5,-441"/>
<text text-anchor="start" x="781.1635" y="-454" font-family="Helvetica,sans-Serif" font-size="10.00" fill="#000000"> &#45;description:string</text>
</g>
<!-- A15 -->
<g id="node16" class="node">
<title>A15</title>
<polygon fill="#f5deb3" stroke="#000000" points="862.6487,-423 774.3513,-423 774.3513,-355 868.6487,-355 868.6487,-417 862.6487,-423"/>
<polyline fill="none" stroke="#000000" points="862.6487,-423 862.6487,-417 "/>
<polyline fill="none" stroke="#000000" points="868.6487,-417 862.6487,-417 "/>
<text text-anchor="middle" x="821.5" y="-410" font-family="Helvetica,sans-Serif" font-size="10.00" fill="#000000">id&#45;card</text>
<text text-anchor="middle" x="821.5" y="-398" font-family="Helvetica,sans-Serif" font-size="10.00" fill="#000000">birth&#45;certificate</text>
<text text-anchor="middle" x="821.5" y="-386" font-family="Helvetica,sans-Serif" font-size="10.00" fill="#000000">passport</text>
<text text-anchor="middle" x="821.5" y="-374" font-family="Helvetica,sans-Serif" font-size="10.00" fill="#000000">driver&#39;s&#45;license</text>
<text text-anchor="middle" x="821.5" y="-362" font-family="Helvetica,sans-Serif" font-size="10.00" fill="#000000">etc.</text>
</g>
<!-- A3&#45;&gt;A15 -->
<g id="edge17" class="edge">
<title>A3&#45;&gt;A15</title>
<path fill="none" stroke="#000000" stroke-dasharray="5,2" d="M821.5,-440.6592C821.5,-434.8145 821.5,-428.9697 821.5,-423.125"/>
</g>
<!-- A4 -->
<g id="node5" class="node">
<title>A4</title>
<polygon fill="none" stroke="#000000" points="566,-494 566,-526 671,-526 671,-494 566,-494"/>
<text text-anchor="start" x="576.8225" y="-507" font-family="Helvetica,sans-Serif" font-size="10.00" fill="#000000">Identity_Document</text>
<polygon fill="none" stroke="#000000" points="566,-438 566,-494 671,-494 671,-438 566,-438"/>
<text text-anchor="start" x="584.887" y="-475" font-family="Helvetica,sans-Serif" font-size="10.00" fill="#000000"> &#45;number:string</text>
<text text-anchor="start" x="575.998" y="-451" font-family="Helvetica,sans-Serif" font-size="10.00" fill="#000000">&#45;complement:string</text>
</g>
<!-- A4&#45;&gt;A3 -->
<g id="edge16" class="edge">
<title>A4&#45;&gt;A3</title>
<path fill="none" stroke="#000000" d="M670.671,-479.6706C693.5456,-478.6589 720.7721,-477.4548 745.7562,-476.3498"/>
<polygon fill="#000000" stroke="#000000" points="755.938,-475.8995 746.1466,-480.8371 750.9429,-476.1205 745.9478,-476.3415 745.9478,-476.3415 745.9478,-476.3415 750.9429,-476.1205 745.7489,-471.8459 755.938,-475.8995 755.938,-475.8995"/>
<text text-anchor="middle" x="738.203" y="-482.1445" font-family="Helvetica,sans-Serif" font-size="10.00" fill="#000000">1</text>
<text text-anchor="middle" x="688.406" y="-467.4256" font-family="Helvetica,sans-Serif" font-size="10.00" fill="#000000">*</text>
</g>
<!-- A5 -->
<g id="node6" class="node">
<title>A5</title>
<polygon fill="none" stroke="#000000" points="559,-388 559,-420 677,-420 677,-388 559,-388"/>
<text text-anchor="start" x="605.5025" y="-401" font-family="Helvetica,sans-Serif" font-size="10.00" fill="#000000">Email</text>
<polygon fill="none" stroke="#000000" points="559,-344 559,-388 677,-388 677,-344 559,-344"/>
<text text-anchor="start" x="568.8295" y="-369" font-family="Helvetica,sans-Serif" font-size="10.00" fill="#000000"> &#45;email_address:string</text>
<text text-anchor="start" x="579.108" y="-357" font-family="Helvetica,sans-Serif" font-size="10.00" fill="#000000"> &#45;primary:boolean</text>
</g>
<!-- A6 -->
<g id="node7" class="node">
<title>A6</title>
<polygon fill="none" stroke="#000000" points="561,-294 561,-326 675,-326 675,-294 561,-294"/>
<text text-anchor="start" x="599.6625" y="-307" font-family="Helvetica,sans-Serif" font-size="10.00" fill="#000000">Address</text>
<polygon fill="none" stroke="#000000" points="561,-178 561,-294 675,-294 675,-178 561,-178"/>
<text text-anchor="start" x="574.3785" y="-275" font-family="Helvetica,sans-Serif" font-size="10.00" fill="#000000"> &#45;postal_code:string</text>
<text text-anchor="start" x="588.8315" y="-263" font-family="Helvetica,sans-Serif" font-size="10.00" fill="#000000"> &#45;street:string</text>
<text text-anchor="start" x="584.387" y="-251" font-family="Helvetica,sans-Serif" font-size="10.00" fill="#000000"> &#45;number:string</text>
<text text-anchor="start" x="574.1085" y="-239" font-family="Helvetica,sans-Serif" font-size="10.00" fill="#000000"> &#45;complement:string</text>
<text text-anchor="start" x="570.765" y="-227" font-family="Helvetica,sans-Serif" font-size="10.00" fill="#000000"> &#45;neighborhood:string</text>
<text text-anchor="start" x="593.835" y="-215" font-family="Helvetica,sans-Serif" font-size="10.00" fill="#000000"> &#45;city:string</text>
<text text-anchor="start" x="590.496" y="-203" font-family="Helvetica,sans-Serif" font-size="10.00" fill="#000000"> &#45;state:string</text>
<text text-anchor="start" x="579.108" y="-191" font-family="Helvetica,sans-Serif" font-size="10.00" fill="#000000"> &#45;primary:boolean</text>
</g>
<!-- A7 -->
<g id="node8" class="node">
<title>A7</title>
<polygon fill="none" stroke="#000000" points="167,-622 167,-654 307,-654 307,-622 167,-622"/>
<text text-anchor="start" x="200.046" y="-635" font-family="Helvetica,sans-Serif" font-size="10.00" fill="#000000">Ensemble_Level</text>
<polygon fill="none" stroke="#000000" points="167,-578 167,-622 307,-622 307,-578 167,-578"/>
<text text-anchor="start" x="196.1635" y="-603" font-family="Helvetica,sans-Serif" font-size="10.00" fill="#000000"> &#45;description:string</text>
<text text-anchor="start" x="176.707" y="-591" font-family="Helvetica,sans-Serif" font-size="10.00" fill="#000000"> &#45;precedence_order:integer</text>
</g>
<!-- A12 -->
<g id="node13" class="node">
<title>A12</title>
<polygon fill="#f5deb3" stroke="#000000" points="295.6201,-560 172.3799,-560 172.3799,-504 301.6201,-504 301.6201,-554 295.6201,-560"/>
<polyline fill="none" stroke="#000000" points="295.6201,-560 295.6201,-554 "/>
<polyline fill="none" stroke="#000000" points="301.6201,-554 295.6201,-554 "/>
<text text-anchor="middle" x="237" y="-547" font-family="Helvetica,sans-Serif" font-size="10.00" fill="#000000">TONacional</text>
<text text-anchor="middle" x="237" y="-535" font-family="Helvetica,sans-Serif" font-size="10.00" fill="#000000">Coord.Geral</text>
<text text-anchor="middle" x="237" y="-523" font-family="Helvetica,sans-Serif" font-size="10.00" fill="#000000">Coordenadoria Núcleo</text>
<text text-anchor="middle" x="237" y="-511" font-family="Helvetica,sans-Serif" font-size="10.00" fill="#000000">Seção etc.</text>
</g>
<!-- A7&#45;&gt;A12 -->
<g id="edge1" class="edge">
<title>A7&#45;&gt;A12</title>
<path fill="none" stroke="#000000" stroke-dasharray="5,2" d="M237,-577.6504C237,-571.8398 237,-566.0293 237,-560.2188"/>
</g>
<!-- A8 -->
<g id="node9" class="node">
<title>A8</title>
<polygon fill="none" stroke="#000000" points=".5,-466 .5,-498 117.5,-498 117.5,-466 .5,-466"/>
<text text-anchor="start" x="36.7735" y="-479" font-family="Helvetica,sans-Serif" font-size="10.00" fill="#000000">Ensemble</text>
<polygon fill="none" stroke="#000000" points=".5,-398 .5,-466 117.5,-466 117.5,-398 .5,-398"/>
<text text-anchor="start" x="29.831" y="-447" font-family="Helvetica,sans-Serif" font-size="10.00" fill="#000000"> &#45;name:string</text>
<text text-anchor="start" x="10.3655" y="-423" font-family="Helvetica,sans-Serif" font-size="10.00" fill="#000000">&#45;foundation_date:date</text>
<text text-anchor="start" x="31.7755" y="-411" font-family="Helvetica,sans-Serif" font-size="10.00" fill="#000000"> &#45;history:text</text>
</g>
<!-- A8&#45;&gt;A7 -->
<g id="edge2" class="edge">
<title>A8&#45;&gt;A7</title>
<path fill="none" stroke="#000000" d="M98.4457,-498.0149C117.9163,-520.9024 142.4041,-547.6205 167,-569 167.9632,-569.8373 168.942,-570.672 169.9343,-571.5034"/>
<polygon fill="#000000" stroke="#000000" points="177.7675,-577.7995 167.154,-575.0422 173.8703,-574.6671 169.9731,-571.5347 169.9731,-571.5347 169.9731,-571.5347 173.8703,-574.6671 172.7923,-568.0272 177.7675,-577.7995 177.7675,-577.7995"/>
<text text-anchor="middle" x="158.3441" y="-570.0319" font-family="Helvetica,sans-Serif" font-size="10.00" fill="#000000">1 level</text>
</g>
<!-- A8&#45;&gt;A8 -->
<g id="edge3" class="edge">
<title>A8&#45;&gt;A8</title>
<path fill="none" stroke="#000000" d="M26.2983,-498.1139C29.688,-508.5182 40.4219,-516 58.5,-516 70.9287,-516 79.8861,-512.4637 85.3722,-506.8726"/>
<polygon fill="#000000" stroke="#000000" points="90.7017,-498.1139 89.3478,-508.9959 88.1026,-502.3853 85.5035,-506.6567 85.5035,-506.6567 85.5035,-506.6567 88.1026,-502.3853 81.6593,-504.3176 90.7017,-498.1139 90.7017,-498.1139"/>
<text text-anchor="middle" x="88.5003" y="-514.9924" font-family="Helvetica,sans-Serif" font-size="10.00" fill="#000000">ensembles *</text>
<text text-anchor="middle" x="40.9771" y="-508.6982" font-family="Helvetica,sans-Serif" font-size="10.00" fill="#000000">1</text>
</g>
<!-- A9 -->
<g id="node10" class="node">
<title>A9</title>
<polygon fill="none" stroke="#000000" points="173,-454 173,-486 301,-486 301,-454 173,-454"/>
<text text-anchor="start" x="212.2695" y="-467" font-family="Helvetica,sans-Serif" font-size="10.00" fill="#000000">Leadership</text>
<polygon fill="none" stroke="#000000" points="173,-410 173,-454 301,-454 301,-410 173,-410"/>
<text text-anchor="start" x="182.8115" y="-435" font-family="Helvetica,sans-Serif" font-size="10.00" fill="#000000"> &#45;appointment_date:date</text>
<text text-anchor="start" x="198.108" y="-423" font-family="Helvetica,sans-Serif" font-size="10.00" fill="#000000"> &#45;primary:boolean</text>
</g>
<!-- A8&#45;&gt;A9 -->
<g id="edge4" class="edge">
<title>A8&#45;&gt;A9</title>
<path fill="none" stroke="#000000" d="M129.7626,-448C140.5618,-448 151.7277,-448 162.5916,-448"/>
<polygon fill="#000000" stroke="#000000" points="129.4423,-448.0001 123.4422,-452 117.4423,-448 123.4423,-444 129.4423,-448.0001"/>
<polygon fill="#000000" stroke="#000000" points="172.8933,-448 162.8933,-452.5001 167.8933,-448 162.8933,-448.0001 162.8933,-448.0001 162.8933,-448.0001 167.8933,-448 162.8932,-443.5001 172.8933,-448 172.8933,-448"/>
<text text-anchor="middle" x="154.7671" y="-453.4524" font-family="Helvetica,sans-Serif" font-size="10.00" fill="#000000">1..*</text>
<text text-anchor="middle" x="135.5684" y="-436.5476" font-family="Helvetica,sans-Serif" font-size="10.00" fill="#000000">*</text>
</g>
<!-- A10 -->
<g id="node11" class="node">
<title>A10</title>
<polygon fill="none" stroke="#000000" points="357.5,-418 357.5,-450 480.5,-450 480.5,-418 357.5,-418"/>
<text text-anchor="start" x="400.668" y="-431" font-family="Helvetica,sans-Serif" font-size="10.00" fill="#000000">Member</text>
<polygon fill="none" stroke="#000000" points="357.5,-314 357.5,-418 480.5,-418 480.5,-314 357.5,-314"/>
<text text-anchor="start" x="389.831" y="-399" font-family="Helvetica,sans-Serif" font-size="10.00" fill="#000000"> &#45;name:string</text>
<text text-anchor="start" x="379.264" y="-375" font-family="Helvetica,sans-Serif" font-size="10.00" fill="#000000">&#45;joining_date:date</text>
<text text-anchor="start" x="386.7675" y="-351" font-family="Helvetica,sans-Serif" font-size="10.00" fill="#000000">&#45;birthdate:date</text>
<text text-anchor="start" x="367.0505" y="-327" font-family="Helvetica,sans-Serif" font-size="10.00" fill="#000000">&#45;food_restrictions:string</text>
</g>
<!-- A8&#45;&gt;A10 -->
<g id="edge5" class="edge">
<title>A8&#45;&gt;A10</title>
<path fill="none" stroke="#000000" d="M128.5644,-413.6423C141.1153,-408.652 154.2591,-404.1462 167,-401 226.3579,-386.3425 295.7845,-382.0219 346.6376,-381.1226"/>
<polygon fill="#000000" stroke="#000000" points="128.3197,-413.7436 124.3073,-419.7354 117.2332,-418.3362 121.2456,-412.3444 128.3197,-413.7436"/>
<polygon fill="#000000" stroke="#000000" points="356.8741,-380.9832 346.9364,-385.6191 351.8746,-381.0513 346.875,-381.1195 346.875,-381.1195 346.875,-381.1195 351.8746,-381.0513 346.8137,-376.6199 356.8741,-380.9832 356.8741,-380.9832"/>
<text text-anchor="middle" x="338.8647" y="-386.6816" font-family="Helvetica,sans-Serif" font-size="10.00" fill="#000000">members 1..*</text>
<text text-anchor="middle" x="130.7446" y="-400.5902" font-family="Helvetica,sans-Serif" font-size="10.00" fill="#000000">1</text>
</g>
<!-- A9&#45;&gt;A0 -->
<g id="edge11" class="edge">
<title>A9&#45;&gt;A0</title>
<path fill="none" stroke="#000000" d="M295.6831,-486.1458C299.5755,-489.0582 303.3824,-492.0243 307,-495 331.271,-514.9643 332.6962,-525.0757 357,-545 358.1474,-545.9407 359.3167,-546.88 360.5034,-547.8162"/>
<polygon fill="#000000" stroke="#000000" points="368.544,-553.9305 357.8602,-551.4595 364.564,-550.904 360.584,-547.8775 360.584,-547.8775 360.584,-547.8775 364.564,-550.904 363.3079,-544.2955 368.544,-553.9305 368.544,-553.9305"/>
<text text-anchor="middle" x="348.9994" y="-546.6868" font-family="Helvetica,sans-Serif" font-size="10.00" fill="#000000">act_as 1</text>
</g>
<!-- A9&#45;&gt;A10 -->
<g id="edge13" class="edge">
<title>A9&#45;&gt;A10</title>
<path fill="none" stroke="#000000" d="M310.672,-421.2102C325.9773,-415.6446 341.955,-409.8345 356.7778,-404.4444"/>
<polygon fill="#000000" stroke="#000000" points="301.2455,-424.638 309.1056,-416.9914 305.9445,-422.9292 310.6435,-421.2205 310.6435,-421.2205 310.6435,-421.2205 305.9445,-422.9292 312.1813,-425.4496 301.2455,-424.638 301.2455,-424.638"/>
<text text-anchor="middle" x="342.6315" y="-415.5824" font-family="Helvetica,sans-Serif" font-size="10.00" fill="#000000">1</text>
<text text-anchor="middle" x="315.3918" y="-407.5" font-family="Helvetica,sans-Serif" font-size="10.00" fill="#000000">positions *</text>
</g>
<!-- A10&#45;&gt;A2 -->
<g id="edge7" class="edge">
<title>A10&#45;&gt;A2</title>
<path fill="none" stroke="#000000" d="M473.4906,-450.1805C475.7111,-453.1439 477.8893,-456.0925 480,-459 503.7527,-491.7197 502.1965,-505.6447 530,-535 536.7591,-542.1363 544.3815,-549.0436 552.2421,-555.5229"/>
<polygon fill="#000000" stroke="#000000" points="560.1588,-561.852 549.5381,-559.1224 556.2535,-558.7298 552.3481,-555.6076 552.3481,-555.6076 552.3481,-555.6076 556.2535,-558.7298 555.1581,-552.0928 560.1588,-561.852 560.1588,-561.852"/>
<text text-anchor="middle" x="540.723" y="-554.1352" font-family="Helvetica,sans-Serif" font-size="10.00" fill="#000000">phones *</text>
<text text-anchor="middle" x="491.1176" y="-456.6299" font-family="Helvetica,sans-Serif" font-size="10.00" fill="#000000">1</text>
</g>
<!-- A10&#45;&gt;A4 -->
<g id="edge10" class="edge">
<title>A10&#45;&gt;A4</title>
<path fill="none" stroke="#000000" d="M480.2568,-412.9558C504.4072,-425.0613 532.0509,-438.9177 556.205,-451.0251"/>
<polygon fill="#000000" stroke="#000000" points="565.2769,-455.5724 554.3205,-455.1141 560.807,-453.3318 556.3371,-451.0912 556.3371,-451.0912 556.3371,-451.0912 560.807,-453.3318 558.3536,-447.0683 565.2769,-455.5724 565.2769,-455.5724"/>
<text text-anchor="middle" x="545.2849" y="-452.0061" font-family="Helvetica,sans-Serif" font-size="10.00" fill="#000000">*</text>
<text text-anchor="middle" x="500.2488" y="-410.5221" font-family="Helvetica,sans-Serif" font-size="10.00" fill="#000000">1</text>
</g>
<!-- A10&#45;&gt;A5 -->
<g id="edge8" class="edge">
<title>A10&#45;&gt;A5</title>
<path fill="none" stroke="#000000" d="M480.2568,-382C501.9898,-382 526.5516,-382 548.8536,-382"/>
<polygon fill="#000000" stroke="#000000" points="558.9232,-382 548.9232,-386.5001 553.9232,-382 548.9232,-382.0001 548.9232,-382.0001 548.9232,-382.0001 553.9232,-382 548.9231,-377.5001 558.9232,-382 558.9232,-382"/>
<text text-anchor="middle" x="540.797" y="-387.4524" font-family="Helvetica,sans-Serif" font-size="10.00" fill="#000000">emails *</text>
<text text-anchor="middle" x="498.383" y="-370.5476" font-family="Helvetica,sans-Serif" font-size="10.00" fill="#000000">1</text>
</g>
<!-- A10&#45;&gt;A6 -->
<g id="edge9" class="edge">
<title>A10&#45;&gt;A6</title>
<path fill="none" stroke="#000000" d="M480.2568,-341.7575C503.1887,-326.8144 529.2701,-309.819 552.523,-294.6667"/>
<polygon fill="#000000" stroke="#000000" points="560.9508,-289.1749 555.0293,-298.4047 556.7617,-291.9047 552.5726,-294.6345 552.5726,-294.6345 552.5726,-294.6345 556.7617,-291.9047 550.1158,-290.8643 560.9508,-289.1749 560.9508,-289.1749"/>
<text text-anchor="middle" x="550.3789" y="-303.1524" font-family="Helvetica,sans-Serif" font-size="10.00" fill="#000000">addresses *</text>
<text text-anchor="middle" x="490.8287" y="-321.78" font-family="Helvetica,sans-Serif" font-size="10.00" fill="#000000">1</text>
</g>
<!-- A11 -->
<g id="node12" class="node">
<title>A11</title>
<polygon fill="none" stroke="#000000" points="530,-128 530,-160 706,-160 706,-128 530,-128"/>
<text text-anchor="start" x="557.9875" y="-141" font-family="Helvetica,sans-Serif" font-size="10.00" fill="#000000">Organizational_Information</text>
<polygon fill="none" stroke="#000000" points="530,0 530,-128 706,-128 706,0 530,0"/>
<text text-anchor="start" x="563.8195" y="-109" font-family="Helvetica,sans-Serif" font-size="10.00" fill="#000000"> &#45;associated_code:string</text>
<text text-anchor="start" x="568.26" y="-97" font-family="Helvetica,sans-Serif" font-size="10.00" fill="#000000"> &#45;convertion_date:date</text>
<text text-anchor="start" x="539.9255" y="-85" font-family="Helvetica,sans-Serif" font-size="10.00" fill="#000000"> &#45;vertical_structure:not_defined_yet</text>
<text text-anchor="start" x="584.1075" y="-73" font-family="Helvetica,sans-Serif" font-size="10.00" fill="#000000"> &#45;position:string</text>
<text text-anchor="start" x="576.328" y="-61" font-family="Helvetica,sans-Serif" font-size="10.00" fill="#000000"> &#45;study_level:string</text>
<text text-anchor="start" x="556.321" y="-49" font-family="Helvetica,sans-Serif" font-size="10.00" fill="#000000"> &#45;conversions_made:integer</text>
<text text-anchor="start" x="551.872" y="-37" font-family="Helvetica,sans-Serif" font-size="10.00" fill="#000000"> &#45;discussion_meeting:boolean</text>
<text text-anchor="start" x="544.645" y="-25" font-family="Helvetica,sans-Serif" font-size="10.00" fill="#000000"> &#45;sustaining_contribution:boolean</text>
<text text-anchor="start" x="539.925" y="-13" font-family="Helvetica,sans-Serif" font-size="10.00" fill="#000000"> &#45;publications_subscription:boolean</text>
</g>
<!-- A10&#45;&gt;A11 -->
<g id="edge6" class="edge">
<title>A10&#45;&gt;A11</title>
<path fill="none" stroke="#000000" d="M447.8513,-313.7524C468.0007,-270.4029 497.0035,-214.1607 530,-169 530.2043,-168.7204 530.4095,-168.4408 530.6155,-168.1612"/>
<polygon fill="#000000" stroke="#000000" points="536.8109,-160.0757 534.3007,-170.7504 533.7698,-164.0446 530.7287,-168.0134 530.7287,-168.0134 530.7287,-168.0134 533.7698,-164.0446 527.1568,-165.2764 536.8109,-160.0757 536.8109,-160.0757"/>
<text text-anchor="middle" x="532.4955" y="-176.6046" font-family="Helvetica,sans-Serif" font-size="10.00" fill="#000000">1</text>
</g>
</g>
</svg>
