<?xml version="1.0" encoding="UTF-8" standalone="no"?>
<!DOCTYPE svg PUBLIC "-//W3C//DTD SVG 1.1//EN"
 "http://www.w3.org/Graphics/SVG/1.1/DTD/svg11.dtd">
<!-- Generated by graphviz version 2.40.1 (20161225.0304)
 -->
<!-- Title: G Pages: 1 -->
<svg width="952pt" height="766pt"
 viewBox="0.00 0.00 952.00 766.00" xmlns="http://www.w3.org/2000/svg" xmlns:xlink="http://www.w3.org/1999/xlink">
<g id="graph0" class="graph" transform="scale(1 1) rotate(0) translate(4 762)">
<title>G</title>
<polygon fill="#ffffff" stroke="transparent" points="-4,4 -4,-762 948,-762 948,4 -4,4"/>
<!-- A0 -->
<g id="node1" class="node">
<title>A0</title>
<polygon fill="none" stroke="#000000" points="608,-726 608,-758 748,-758 748,-726 608,-726"/>
<text text-anchor="start" x="660.2185" y="-739" font-family="Helvetica,sans-Serif" font-size="10.00" fill="#000000">Position</text>
<polygon fill="none" stroke="#000000" points="608,-682 608,-726 748,-726 748,-682 608,-682"/>
<text text-anchor="start" x="637.1635" y="-707" font-family="Helvetica,sans-Serif" font-size="10.00" fill="#000000"> &#45;description:string</text>
<text text-anchor="start" x="617.707" y="-695" font-family="Helvetica,sans-Serif" font-size="10.00" fill="#000000"> &#45;precedence_order:integer</text>
</g>
<!-- A13 -->
<g id="node14" class="node">
<title>A13</title>
<polygon fill="#f5deb3" stroke="#000000" points="726.6855,-664 623.3145,-664 623.3145,-628 732.6855,-628 732.6855,-658 726.6855,-664"/>
<polyline fill="none" stroke="#000000" points="726.6855,-664 726.6855,-658 "/>
<polyline fill="none" stroke="#000000" points="732.6855,-658 726.6855,-658 "/>
<text text-anchor="middle" x="678" y="-649" font-family="Helvetica,sans-Serif" font-size="10.00" fill="#000000">Supervisor Leader</text>
<text text-anchor="middle" x="678" y="-637" font-family="Helvetica,sans-Serif" font-size="10.00" fill="#000000">Vice etc.</text>
</g>
<!-- A0&#45;&gt;A13 -->
<g id="edge12" class="edge">
<title>A0&#45;&gt;A13</title>
<path fill="none" stroke="#000000" stroke-dasharray="5,2" d="M678,-681.645C678,-675.8337 678,-670.0223 678,-664.2109"/>
</g>
<!-- A1 -->
<g id="node2" class="node">
<title>A1</title>
<polygon fill="none" stroke="#000000" points="828.5,-581 828.5,-613 929.5,-613 929.5,-581 828.5,-581"/>
<text text-anchor="start" x="850.6545" y="-594" font-family="Helvetica,sans-Serif" font-size="10.00" fill="#000000">Phone_Type</text>
<polygon fill="none" stroke="#000000" points="828.5,-549 828.5,-581 929.5,-581 929.5,-549 828.5,-549"/>
<text text-anchor="start" x="838.1635" y="-562" font-family="Helvetica,sans-Serif" font-size="10.00" fill="#000000"> &#45;description:string</text>
</g>
<!-- A14 -->
<g id="node15" class="node">
<title>A14</title>
<polygon fill="#f5deb3" stroke="#000000" points="927.1151,-531 823.8849,-531 823.8849,-495 933.1151,-495 933.1151,-525 927.1151,-531"/>
<polyline fill="none" stroke="#000000" points="927.1151,-531 927.1151,-525 "/>
<polyline fill="none" stroke="#000000" points="933.1151,-525 927.1151,-525 "/>
<text text-anchor="middle" x="878.5" y="-516" font-family="Helvetica,sans-Serif" font-size="10.00" fill="#000000">mobile home work</text>
<text text-anchor="middle" x="878.5" y="-504" font-family="Helvetica,sans-Serif" font-size="10.00" fill="#000000">whatsapp etc.</text>
</g>
<!-- A1&#45;&gt;A14 -->
<g id="edge15" class="edge">
<title>A1&#45;&gt;A14</title>
<path fill="none" stroke="#000000" stroke-dasharray="5,2" d="M878.5,-548.6187C878.5,-542.7666 878.5,-536.9146 878.5,-531.0625"/>
</g>
<!-- A2 -->
<g id="node3" class="node">
<title>A2</title>
<polygon fill="none" stroke="#000000" points="603,-578 603,-610 754,-610 754,-578 603,-578"/>
<text text-anchor="start" x="664.0475" y="-591" font-family="Helvetica,sans-Serif" font-size="10.00" fill="#000000">Phone</text>
<polygon fill="none" stroke="#000000" points="603,-522 603,-578 754,-578 754,-522 603,-522"/>
<text text-anchor="start" x="628.21" y="-559" font-family="Helvetica,sans-Serif" font-size="10.00" fill="#000000"> &#45;phone_number:string</text>
<text text-anchor="start" x="612.935" y="-547" font-family="Helvetica,sans-Serif" font-size="10.00" fill="#000000"> &#45;additional_information:string</text>
<text text-anchor="start" x="639.608" y="-535" font-family="Helvetica,sans-Serif" font-size="10.00" fill="#000000"> &#45;primary:boolean</text>
</g>
<!-- A2&#45;&gt;A1 -->
<g id="edge14" class="edge">
<title>A2&#45;&gt;A1</title>
<path fill="none" stroke="#000000" d="M753.5148,-571.6495C774.7865,-573.2409 797.6431,-574.9509 817.9185,-576.4677"/>
<polygon fill="#000000" stroke="#000000" points="827.9539,-577.2185 817.646,-580.9598 822.9679,-576.8454 817.9818,-576.4724 817.9818,-576.4724 817.9818,-576.4724 822.9679,-576.8454 818.3176,-571.9849 827.9539,-577.2185 827.9539,-577.2185"/>
<text text-anchor="middle" x="809.2477" y="-581.295" font-family="Helvetica,sans-Serif" font-size="10.00" fill="#000000">1</text>
<text text-anchor="middle" x="772.221" y="-561.573" font-family="Helvetica,sans-Serif" font-size="10.00" fill="#000000">*</text>
</g>
<!-- A3 -->
<g id="node4" class="node">
<title>A3</title>
<polygon fill="none" stroke="#000000" points="813.5,-445 813.5,-477 944.5,-477 944.5,-445 813.5,-445"/>
<text text-anchor="start" x="823.4295" y="-458" font-family="Helvetica,sans-Serif" font-size="10.00" fill="#000000">Identity_Document_Type</text>
<polygon fill="none" stroke="#000000" points="813.5,-413 813.5,-445 944.5,-445 944.5,-413 813.5,-413"/>
<text text-anchor="start" x="838.1635" y="-426" font-family="Helvetica,sans-Serif" font-size="10.00" fill="#000000"> &#45;description:string</text>
</g>
<!-- A15 -->
<g id="node16" class="node">
<title>A15</title>
<polygon fill="#f5deb3" stroke="#000000" points="919.6487,-395 831.3513,-395 831.3513,-327 925.6487,-327 925.6487,-389 919.6487,-395"/>
<polyline fill="none" stroke="#000000" points="919.6487,-395 919.6487,-389 "/>
<polyline fill="none" stroke="#000000" points="925.6487,-389 919.6487,-389 "/>
<text text-anchor="middle" x="878.5" y="-382" font-family="Helvetica,sans-Serif" font-size="10.00" fill="#000000">id&#45;card</text>
<text text-anchor="middle" x="878.5" y="-370" font-family="Helvetica,sans-Serif" font-size="10.00" fill="#000000">birth&#45;certificate</text>
<text text-anchor="middle" x="878.5" y="-358" font-family="Helvetica,sans-Serif" font-size="10.00" fill="#000000">passport</text>
<text text-anchor="middle" x="878.5" y="-346" font-family="Helvetica,sans-Serif" font-size="10.00" fill="#000000">driver&#39;s&#45;license</text>
<text text-anchor="middle" x="878.5" y="-334" font-family="Helvetica,sans-Serif" font-size="10.00" fill="#000000">etc.</text>
</g>
<!-- A3&#45;&gt;A15 -->
<g id="edge17" class="edge">
<title>A3&#45;&gt;A15</title>
<path fill="none" stroke="#000000" stroke-dasharray="5,2" d="M878.5,-412.6592C878.5,-406.8145 878.5,-400.9697 878.5,-395.125"/>
</g>
<!-- A4 -->
<g id="node5" class="node">
<title>A4</title>
<polygon fill="none" stroke="#000000" points="626,-472 626,-504 731,-504 731,-472 626,-472"/>
<text text-anchor="start" x="636.8225" y="-485" font-family="Helvetica,sans-Serif" font-size="10.00" fill="#000000">Identity_Document</text>
<polygon fill="none" stroke="#000000" points="626,-416 626,-472 731,-472 731,-416 626,-416"/>
<text text-anchor="start" x="644.887" y="-453" font-family="Helvetica,sans-Serif" font-size="10.00" fill="#000000"> &#45;number:string</text>
<text text-anchor="start" x="635.998" y="-429" font-family="Helvetica,sans-Serif" font-size="10.00" fill="#000000">&#45;complement:string</text>
</g>
<!-- A4&#45;&gt;A3 -->
<g id="edge16" class="edge">
<title>A4&#45;&gt;A3</title>
<path fill="none" stroke="#000000" d="M730.679,-456.0589C752.7092,-454.4108 778.7294,-452.4641 802.7503,-450.6671"/>
<polygon fill="#000000" stroke="#000000" points="812.9052,-449.9073 803.2688,-455.1409 807.9191,-450.2804 802.933,-450.6535 802.933,-450.6535 802.933,-450.6535 807.9191,-450.2804 802.5973,-446.166 812.9052,-449.9073 812.9052,-449.9073"/>
<text text-anchor="middle" x="795.4601" y="-456.6884" font-family="Helvetica,sans-Serif" font-size="10.00" fill="#000000">1</text>
<text text-anchor="middle" x="748.1241" y="-443.2778" font-family="Helvetica,sans-Serif" font-size="10.00" fill="#000000">*</text>
</g>
<!-- A5 -->
<g id="node6" class="node">
<title>A5</title>
<polygon fill="none" stroke="#000000" points="603,-366 603,-398 754,-398 754,-366 603,-366"/>
<text text-anchor="start" x="660.1625" y="-379" font-family="Helvetica,sans-Serif" font-size="10.00" fill="#000000">Address</text>
<polygon fill="none" stroke="#000000" points="603,-250 603,-366 754,-366 754,-250 603,-250"/>
<text text-anchor="start" x="634.8785" y="-347" font-family="Helvetica,sans-Serif" font-size="10.00" fill="#000000"> &#45;postal_code:string</text>
<text text-anchor="start" x="649.3315" y="-335" font-family="Helvetica,sans-Serif" font-size="10.00" fill="#000000"> &#45;street:string</text>
<text text-anchor="start" x="644.887" y="-323" font-family="Helvetica,sans-Serif" font-size="10.00" fill="#000000"> &#45;number:string</text>
<text text-anchor="start" x="612.935" y="-311" font-family="Helvetica,sans-Serif" font-size="10.00" fill="#000000"> &#45;additional_information:string</text>
<text text-anchor="start" x="631.265" y="-299" font-family="Helvetica,sans-Serif" font-size="10.00" fill="#000000"> &#45;neighborhood:string</text>
<text text-anchor="start" x="654.335" y="-287" font-family="Helvetica,sans-Serif" font-size="10.00" fill="#000000"> &#45;city:string</text>
<text text-anchor="start" x="650.996" y="-275" font-family="Helvetica,sans-Serif" font-size="10.00" fill="#000000"> &#45;state:string</text>
<text text-anchor="start" x="639.608" y="-263" font-family="Helvetica,sans-Serif" font-size="10.00" fill="#000000"> &#45;primary:boolean</text>
</g>
<!-- A6 -->
<g id="node7" class="node">
<title>A6</title>
<polygon fill="none" stroke="#000000" points="202,-700 202,-732 342,-732 342,-700 202,-700"/>
<text text-anchor="start" x="235.046" y="-713" font-family="Helvetica,sans-Serif" font-size="10.00" fill="#000000">Ensemble_Level</text>
<polygon fill="none" stroke="#000000" points="202,-656 202,-700 342,-700 342,-656 202,-656"/>
<text text-anchor="start" x="231.1635" y="-681" font-family="Helvetica,sans-Serif" font-size="10.00" fill="#000000"> &#45;description:string</text>
<text text-anchor="start" x="211.707" y="-669" font-family="Helvetica,sans-Serif" font-size="10.00" fill="#000000"> &#45;precedence_order:integer</text>
</g>
<!-- A12 -->
<g id="node13" class="node">
<title>A12</title>
<polygon fill="#f5deb3" stroke="#000000" points="327.5817,-638 210.4183,-638 210.4183,-594 333.5817,-594 333.5817,-632 327.5817,-638"/>
<polyline fill="none" stroke="#000000" points="327.5817,-638 327.5817,-632 "/>
<polyline fill="none" stroke="#000000" points="333.5817,-632 327.5817,-632 "/>
<text text-anchor="middle" x="272" y="-625" font-family="Helvetica,sans-Serif" font-size="10.00" fill="#000000">National Territory</text>
<text text-anchor="middle" x="272" y="-613" font-family="Helvetica,sans-Serif" font-size="10.00" fill="#000000">Zone Region Chapter</text>
<text text-anchor="middle" x="272" y="-601" font-family="Helvetica,sans-Serif" font-size="10.00" fill="#000000">District etc.</text>
</g>
<!-- A6&#45;&gt;A12 -->
<g id="edge1" class="edge">
<title>A6&#45;&gt;A12</title>
<path fill="none" stroke="#000000" stroke-dasharray="5,2" d="M272,-655.6665C272,-649.8584 272,-644.0503 272,-638.2422"/>
</g>
<!-- A7 -->
<g id="node8" class="node">
<title>A7</title>
<polygon fill="none" stroke="#000000" points="0,-556 0,-588 152,-588 152,-556 0,-556"/>
<text text-anchor="start" x="53.7735" y="-569" font-family="Helvetica,sans-Serif" font-size="10.00" fill="#000000">Ensemble</text>
<polygon fill="none" stroke="#000000" points="0,-476 0,-556 152,-556 152,-476 0,-476"/>
<text text-anchor="start" x="46.831" y="-537" font-family="Helvetica,sans-Serif" font-size="10.00" fill="#000000"> &#45;name:string</text>
<text text-anchor="start" x="27.3655" y="-513" font-family="Helvetica,sans-Serif" font-size="10.00" fill="#000000">&#45;foundation_date:date</text>
<text text-anchor="start" x="9.868" y="-501" font-family="Helvetica,sans-Serif" font-size="10.00" fill="#000000"> &#45;leadership_purpose:boolean</text>
<text text-anchor="start" x="48.7755" y="-489" font-family="Helvetica,sans-Serif" font-size="10.00" fill="#000000"> &#45;history:text</text>
</g>
<!-- A7&#45;&gt;A6 -->
<g id="edge2" class="edge">
<title>A7&#45;&gt;A6</title>
<path fill="none" stroke="#000000" d="M134.0211,-588.2783C154.8686,-607.595 178.9372,-628.8953 202,-647 203.1874,-647.9321 204.3927,-648.8654 205.6126,-649.7983"/>
<polygon fill="#000000" stroke="#000000" points="213.8392,-655.9317 203.1323,-653.5621 209.8306,-652.9431 205.8221,-649.9544 205.8221,-649.9544 205.8221,-649.9544 209.8306,-652.9431 208.5118,-646.3468 213.8392,-655.9317 213.8392,-655.9317"/>
<text text-anchor="middle" x="194.2552" y="-648.8737" font-family="Helvetica,sans-Serif" font-size="10.00" fill="#000000">1 level</text>
</g>
<!-- A7&#45;&gt;A7 -->
<g id="edge3" class="edge">
<title>A7&#45;&gt;A7</title>
<path fill="none" stroke="#000000" d="M41.1364,-588.1461C45.4296,-598.6221 57.0508,-606 76,-606 89.3237,-606 99.0245,-602.3525 105.1024,-596.5452"/>
<polygon fill="#000000" stroke="#000000" points="110.8636,-588.1461 108.918,-598.938 108.0353,-592.2694 105.2071,-596.3926 105.2071,-596.3926 105.2071,-596.3926 108.0353,-592.2694 101.4961,-593.8472 110.8636,-588.1461 110.8636,-588.1461"/>
<text text-anchor="middle" x="107.5807" y="-604.8749" font-family="Helvetica,sans-Serif" font-size="10.00" fill="#000000">ensembles *</text>
<text text-anchor="middle" x="56.7535" y="-597.6404" font-family="Helvetica,sans-Serif" font-size="10.00" fill="#000000">1</text>
</g>
<!-- A8 -->
<g id="node9" class="node">
<title>A8</title>
<polygon fill="none" stroke="#000000" points="210,-544 210,-576 335,-576 335,-544 210,-544"/>
<text text-anchor="start" x="256.938" y="-557" font-family="Helvetica,sans-Serif" font-size="10.00" fill="#000000">Leader</text>
<polygon fill="none" stroke="#000000" points="210,-488 210,-544 335,-544 335,-488 210,-488"/>
<text text-anchor="start" x="233.608" y="-525" font-family="Helvetica,sans-Serif" font-size="10.00" fill="#000000"> &#45;primary:boolean</text>
<text text-anchor="start" x="219.701" y="-501" font-family="Helvetica,sans-Serif" font-size="10.00" fill="#000000">&#45;appointment_date:date</text>
</g>
<!-- A7&#45;&gt;A8 -->
<g id="edge4" class="edge">
<title>A7&#45;&gt;A8</title>
<path fill="none" stroke="#000000" d="M164.1692,-532C175.8228,-532 187.6637,-532 199.0238,-532"/>
<polygon fill="#000000" stroke="#000000" points="164.0592,-532.0001 158.0592,-536 152.0592,-532 158.0593,-528 164.0592,-532.0001"/>
<polygon fill="#000000" stroke="#000000" points="209.3022,-532 199.3022,-536.5001 204.3022,-532 199.3022,-532.0001 199.3022,-532.0001 199.3022,-532.0001 204.3022,-532 199.3021,-527.5001 209.3022,-532 209.3022,-532"/>
<text text-anchor="middle" x="191.176" y="-537.4524" font-family="Helvetica,sans-Serif" font-size="10.00" fill="#000000">1..*</text>
<text text-anchor="middle" x="170.1854" y="-520.5476" font-family="Helvetica,sans-Serif" font-size="10.00" fill="#000000">*</text>
</g>
<!-- A10 -->
<g id="node11" class="node">
<title>A10</title>
<polygon fill="none" stroke="#000000" points="396.5,-514 396.5,-546 538.5,-546 538.5,-514 396.5,-514"/>
<text text-anchor="start" x="449.168" y="-527" font-family="Helvetica,sans-Serif" font-size="10.00" fill="#000000">Member</text>
<polygon fill="none" stroke="#000000" points="396.5,-374 396.5,-514 538.5,-514 538.5,-374 396.5,-374"/>
<text text-anchor="start" x="438.331" y="-495" font-family="Helvetica,sans-Serif" font-size="10.00" fill="#000000"> &#45;name:string</text>
<text text-anchor="start" x="440.281" y="-471" font-family="Helvetica,sans-Serif" font-size="10.00" fill="#000000">&#45;email:string</text>
<text text-anchor="start" x="427.764" y="-447" font-family="Helvetica,sans-Serif" font-size="10.00" fill="#000000">&#45;joining_date:date</text>
<text text-anchor="start" x="435.2675" y="-423" font-family="Helvetica,sans-Serif" font-size="10.00" fill="#000000">&#45;birthdate:date</text>
<text text-anchor="start" x="415.5505" y="-399" font-family="Helvetica,sans-Serif" font-size="10.00" fill="#000000">&#45;food_restrictions:string</text>
<text text-anchor="start" x="406.099" y="-387" font-family="Helvetica,sans-Serif" font-size="10.00" fill="#000000"> &#45;additional_information:text</text>
</g>
<!-- A7&#45;&gt;A10 -->
<g id="edge5" class="edge">
<title>A7&#45;&gt;A10</title>
<path fill="none" stroke="#000000" d="M163.753,-490.838C176.3727,-486.1757 189.3654,-482.0224 202,-479 262.6947,-464.4808 333.2375,-459.9927 386.3478,-458.9929"/>
<polygon fill="#000000" stroke="#000000" points="163.49,-490.9391 159.3249,-496.8257 152.2891,-495.245 156.4543,-489.3584 163.49,-490.9391"/>
<polygon fill="#000000" stroke="#000000" points="396.3921,-458.8413 386.4612,-463.4918 391.3926,-458.9168 386.3932,-458.9923 386.3932,-458.9923 386.3932,-458.9923 391.3926,-458.9168 386.3252,-454.4928 396.3921,-458.8413 396.3921,-458.8413"/>
<text text-anchor="middle" x="378.3955" y="-464.5662" font-family="Helvetica,sans-Serif" font-size="10.00" fill="#000000">members 1..*</text>
<text text-anchor="middle" x="166.1753" y="-477.8514" font-family="Helvetica,sans-Serif" font-size="10.00" fill="#000000">1</text>
</g>
<!-- A9 -->
<g id="node10" class="node">
<title>A9</title>
<polygon fill="none" stroke="#000000" points="392.5,-667 392.5,-699 543.5,-699 543.5,-667 392.5,-667"/>
<text text-anchor="start" x="442.16" y="-680" font-family="Helvetica,sans-Serif" font-size="10.00" fill="#000000">LeaderRole</text>
<polygon fill="none" stroke="#000000" points="392.5,-623 392.5,-667 543.5,-667 543.5,-623 392.5,-623"/>
<text text-anchor="start" x="402.435" y="-648" font-family="Helvetica,sans-Serif" font-size="10.00" fill="#000000"> &#45;additional_information:string</text>
<text text-anchor="start" x="429.108" y="-636" font-family="Helvetica,sans-Serif" font-size="10.00" fill="#000000"> &#45;primary:boolean</text>
</g>
<!-- A8&#45;&gt;A9 -->
<g id="edge10" class="edge">
<title>A8&#45;&gt;A9</title>
<path fill="none" stroke="#000000" d="M334.6641,-573.3487C355.9611,-587.4015 379.8201,-603.1447 401.3786,-617.37"/>
<polygon fill="#000000" stroke="#000000" points="409.8309,-622.9472 399.0058,-621.1957 405.6575,-620.1934 401.4842,-617.4397 401.4842,-617.4397 401.4842,-617.4397 405.6575,-620.1934 403.9626,-613.6836 409.8309,-622.9472 409.8309,-622.9472"/>
<text text-anchor="middle" x="390.0464" y="-617.0191" font-family="Helvetica,sans-Serif" font-size="10.00" fill="#000000">positions_through *</text>
<text text-anchor="middle" x="354.4486" y="-573.2768" font-family="Helvetica,sans-Serif" font-size="10.00" fill="#000000">1</text>
</g>
<!-- A8&#45;&gt;A10 -->
<g id="edge13" class="edge">
<title>A8&#45;&gt;A10</title>
<path fill="none" stroke="#000000" d="M344.4982,-505.2999C361.4426,-499.0595 379.4737,-492.4189 396.3583,-486.2005"/>
<polygon fill="#000000" stroke="#000000" points="334.6641,-508.9217 342.4928,-501.2429 339.356,-507.1937 344.048,-505.4657 344.048,-505.4657 344.048,-505.4657 339.356,-507.1937 345.6032,-509.6884 334.6641,-508.9217 334.6641,-508.9217"/>
<text text-anchor="middle" x="382.2701" y="-497.3964" font-family="Helvetica,sans-Serif" font-size="10.00" fill="#000000">1</text>
<text text-anchor="middle" x="348.7523" y="-491.7258" font-family="Helvetica,sans-Serif" font-size="10.00" fill="#000000">appointments *</text>
</g>
<!-- A9&#45;&gt;A0 -->
<g id="edge11" class="edge">
<title>A9&#45;&gt;A0</title>
<path fill="none" stroke="#000000" d="M543.1979,-682.217C560.9996,-687.2066 580.0287,-692.5401 598.0121,-697.5806"/>
<polygon fill="#000000" stroke="#000000" points="607.8808,-700.3466 597.0374,-701.9808 603.0664,-698.9972 598.2519,-697.6477 598.2519,-697.6477 598.2519,-697.6477 603.0664,-698.9972 599.4664,-693.3147 607.8808,-700.3466 607.8808,-700.3466"/>
<text text-anchor="middle" x="588.1461" y="-700.5934" font-family="Helvetica,sans-Serif" font-size="10.00" fill="#000000">act_as *</text>
<text text-anchor="middle" x="562.9326" y="-675.9702" font-family="Helvetica,sans-Serif" font-size="10.00" fill="#000000">1</text>
</g>
<!-- A10&#45;&gt;A2 -->
<g id="edge7" class="edge">
<title>A10&#45;&gt;A2</title>
<path fill="none" stroke="#000000" d="M538.7657,-495.8868C556.2354,-504.6839 575.1045,-514.1856 593.1426,-523.269"/>
<polygon fill="#000000" stroke="#000000" points="602.4878,-527.9749 591.5324,-527.4964 598.0221,-525.7261 593.5563,-523.4772 593.5563,-523.4772 593.5563,-523.4772 598.0221,-525.7261 595.5802,-519.4581 602.4878,-527.9749 602.4878,-527.9749"/>
<text text-anchor="middle" x="582.4969" y="-524.3717" font-family="Helvetica,sans-Serif" font-size="10.00" fill="#000000">phones *</text>
<text text-anchor="middle" x="558.7566" y="-493.4899" font-family="Helvetica,sans-Serif" font-size="10.00" fill="#000000">1</text>
</g>
<!-- A10&#45;&gt;A4 -->
<g id="edge9" class="edge">
<title>A10&#45;&gt;A4</title>
<path fill="none" stroke="#000000" d="M538.7657,-460C563.6043,-460 591.2716,-460 615.3574,-460"/>
<polygon fill="#000000" stroke="#000000" points="625.4419,-460 615.4419,-464.5001 620.4419,-460 615.4419,-460.0001 615.4419,-460.0001 615.4419,-460.0001 620.4419,-460 615.4419,-455.5001 625.4419,-460 625.4419,-460"/>
<text text-anchor="middle" x="607.3157" y="-465.4524" font-family="Helvetica,sans-Serif" font-size="10.00" fill="#000000">*</text>
<text text-anchor="middle" x="556.8919" y="-448.5476" font-family="Helvetica,sans-Serif" font-size="10.00" fill="#000000">1</text>
</g>
<!-- A10&#45;&gt;A5 -->
<g id="edge8" class="edge">
<title>A10&#45;&gt;A5</title>
<path fill="none" stroke="#000000" d="M538.7657,-413.9566C556.3957,-402.5662 575.4508,-390.255 593.6389,-378.5041"/>
<polygon fill="#000000" stroke="#000000" points="602.4878,-372.787 596.5304,-381.9935 598.2881,-375.5003 594.0884,-378.2137 594.0884,-378.2137 594.0884,-378.2137 598.2881,-375.5003 591.6463,-374.434 602.4878,-372.787 602.4878,-372.787"/>
<text text-anchor="middle" x="591.8497" y="-386.723" font-family="Helvetica,sans-Serif" font-size="10.00" fill="#000000">addresses *</text>
<text text-anchor="middle" x="549.4038" y="-394.0205" font-family="Helvetica,sans-Serif" font-size="10.00" fill="#000000">1</text>
</g>
<!-- A11 -->
<g id="node12" class="node">
<title>A11</title>
<polygon fill="none" stroke="#000000" points="593,-200 593,-232 763,-232 763,-200 593,-200"/>
<text text-anchor="start" x="650.4995" y="-213" font-family="Helvetica,sans-Serif" font-size="10.00" fill="#000000">Membership</text>
<polygon fill="none" stroke="#000000" points="593,0 593,-200 763,-200 763,0 593,0"/>
<text text-anchor="start" x="648.831" y="-181" font-family="Helvetica,sans-Serif" font-size="10.00" fill="#000000"> &#45;name:string</text>
<text text-anchor="start" x="645.7675" y="-157" font-family="Helvetica,sans-Serif" font-size="10.00" fill="#000000">&#45;birthdate:date</text>
<text text-anchor="start" x="638.264" y="-133" font-family="Helvetica,sans-Serif" font-size="10.00" fill="#000000">&#45;joining_date:date</text>
<text text-anchor="start" x="609.3735" y="-109" font-family="Helvetica,sans-Serif" font-size="10.00" fill="#000000">&#45;organizational_positions:jsonb</text>
<text text-anchor="start" x="636.328" y="-97" font-family="Helvetica,sans-Serif" font-size="10.00" fill="#000000"> &#45;study_level:string</text>
<text text-anchor="start" x="604.645" y="-85" font-family="Helvetica,sans-Serif" font-size="10.00" fill="#000000"> &#45;sustaining_contribution:boolean</text>
<text text-anchor="start" x="617.7105" y="-73" font-family="Helvetica,sans-Serif" font-size="10.00" fill="#000000"> &#45;discussion_meeting:jsonb</text>
<text text-anchor="start" x="603.2635" y="-61" font-family="Helvetica,sans-Serif" font-size="10.00" fill="#000000"> &#45;publications_subscriptions:jsonb</text>
<text text-anchor="start" x="614.6555" y="-49" font-family="Helvetica,sans-Serif" font-size="10.00" fill="#000000"> &#45;members_sponsored:jsonb</text>
<text text-anchor="start" x="602.986" y="-37" font-family="Helvetica,sans-Serif" font-size="10.00" fill="#000000"> &#45;organizational_information:jsonb</text>
<text text-anchor="start" x="653.5555" y="-25" font-family="Helvetica,sans-Serif" font-size="10.00" fill="#000000"> &#45;email:text</text>
<text text-anchor="start" x="645.211" y="-13" font-family="Helvetica,sans-Serif" font-size="10.00" fill="#000000"> &#45;phones:jsonb</text>
</g>
<!-- A10&#45;&gt;A11 -->
<g id="edge6" class="edge">
<title>A10&#45;&gt;A11</title>
<path fill="none" stroke="#000000" d="M514.8694,-373.8179C537.7567,-333.1077 566.0511,-284.1013 593,-241 593.0565,-240.9096 593.1131,-240.8192 593.1697,-240.7287"/>
<polygon fill="#000000" stroke="#000000" points="598.5243,-232.2465 596.9914,-243.1047 595.8552,-236.4745 593.1862,-240.7025 593.1862,-240.7025 593.1862,-240.7025 595.8552,-236.4745 589.3809,-238.3004 598.5243,-232.2465 598.5243,-232.2465"/>
<text text-anchor="middle" x="595.9958" y="-249.086" font-family="Helvetica,sans-Serif" font-size="10.00" fill="#000000">1</text>
</g>
</g>
</svg>
