<?xml version="1.0" encoding="UTF-8" standalone="no"?>
<!DOCTYPE svg PUBLIC "-//W3C//DTD SVG 1.1//EN"
 "http://www.w3.org/Graphics/SVG/1.1/DTD/svg11.dtd">
<!-- Generated by graphviz version 2.40.1 (20161225.0304)
 -->
<!-- Title: G Pages: 1 -->
<svg width="958pt" height="820pt"
 viewBox="0.00 0.00 958.00 820.00" xmlns="http://www.w3.org/2000/svg" xmlns:xlink="http://www.w3.org/1999/xlink">
<g id="graph0" class="graph" transform="scale(1 1) rotate(0) translate(4 816)">
<title>G</title>
<polygon fill="#ffffff" stroke="transparent" points="-4,4 -4,-816 954,-816 954,4 -4,4"/>
<!-- A0 -->
<g id="node1" class="node">
<title>A0</title>
<polygon fill="none" stroke="#000000" points="611,-780 611,-812 751,-812 751,-780 611,-780"/>
<text text-anchor="start" x="663.2185" y="-793" font-family="Helvetica,sans-Serif" font-size="10.00" fill="#000000">Position</text>
<polygon fill="none" stroke="#000000" points="611,-736 611,-780 751,-780 751,-736 611,-736"/>
<text text-anchor="start" x="640.1635" y="-761" font-family="Helvetica,sans-Serif" font-size="10.00" fill="#000000"> &#45;description:string</text>
<text text-anchor="start" x="620.707" y="-749" font-family="Helvetica,sans-Serif" font-size="10.00" fill="#000000"> &#45;precedence_order:integer</text>
</g>
<!-- A14 -->
<g id="node15" class="node">
<title>A14</title>
<polygon fill="#f5deb3" stroke="#000000" points="727.1371,-718 628.8629,-718 628.8629,-650 733.1371,-650 733.1371,-712 727.1371,-718"/>
<polyline fill="none" stroke="#000000" points="727.1371,-718 727.1371,-712 "/>
<polyline fill="none" stroke="#000000" points="733.1371,-712 727.1371,-712 "/>
<text text-anchor="middle" x="681" y="-705" font-family="Helvetica,sans-Serif" font-size="10.00" fill="#000000">Resp.Geral</text>
<text text-anchor="middle" x="681" y="-693" font-family="Helvetica,sans-Serif" font-size="10.00" fill="#000000">Resp.Núcleo</text>
<text text-anchor="middle" x="681" y="-681" font-family="Helvetica,sans-Serif" font-size="10.00" fill="#000000">Resp.Seção</text>
<text text-anchor="middle" x="681" y="-669" font-family="Helvetica,sans-Serif" font-size="10.00" fill="#000000">Resp.Técnico</text>
<text text-anchor="middle" x="681" y="-657" font-family="Helvetica,sans-Serif" font-size="10.00" fill="#000000">Resp.Estudo etc.</text>
</g>
<!-- A0&#45;&gt;A14 -->
<g id="edge13" class="edge">
<title>A0&#45;&gt;A14</title>
<path fill="none" stroke="#000000" stroke-dasharray="5,2" d="M681,-735.5698C681,-729.7471 681,-723.9243 681,-718.1016"/>
</g>
<!-- A1 -->
<g id="node2" class="node">
<title>A1</title>
<polygon fill="none" stroke="#000000" points="834.5,-603 834.5,-635 935.5,-635 935.5,-603 834.5,-603"/>
<text text-anchor="start" x="856.6545" y="-616" font-family="Helvetica,sans-Serif" font-size="10.00" fill="#000000">Phone_Type</text>
<polygon fill="none" stroke="#000000" points="834.5,-571 834.5,-603 935.5,-603 935.5,-571 834.5,-571"/>
<text text-anchor="start" x="844.1635" y="-584" font-family="Helvetica,sans-Serif" font-size="10.00" fill="#000000"> &#45;description:string</text>
</g>
<!-- A15 -->
<g id="node16" class="node">
<title>A15</title>
<polygon fill="#f5deb3" stroke="#000000" points="933.1151,-553 829.8849,-553 829.8849,-517 939.1151,-517 939.1151,-547 933.1151,-553"/>
<polyline fill="none" stroke="#000000" points="933.1151,-553 933.1151,-547 "/>
<polyline fill="none" stroke="#000000" points="939.1151,-547 933.1151,-547 "/>
<text text-anchor="middle" x="884.5" y="-538" font-family="Helvetica,sans-Serif" font-size="10.00" fill="#000000">mobile home work</text>
<text text-anchor="middle" x="884.5" y="-526" font-family="Helvetica,sans-Serif" font-size="10.00" fill="#000000">whatsapp etc.</text>
</g>
<!-- A1&#45;&gt;A15 -->
<g id="edge16" class="edge">
<title>A1&#45;&gt;A15</title>
<path fill="none" stroke="#000000" stroke-dasharray="5,2" d="M884.5,-570.6187C884.5,-564.7666 884.5,-558.9146 884.5,-553.0625"/>
</g>
<!-- A2 -->
<g id="node3" class="node">
<title>A2</title>
<polygon fill="none" stroke="#000000" points="606,-600 606,-632 757,-632 757,-600 606,-600"/>
<text text-anchor="start" x="667.0475" y="-613" font-family="Helvetica,sans-Serif" font-size="10.00" fill="#000000">Phone</text>
<polygon fill="none" stroke="#000000" points="606,-544 606,-600 757,-600 757,-544 606,-544"/>
<text text-anchor="start" x="631.21" y="-581" font-family="Helvetica,sans-Serif" font-size="10.00" fill="#000000"> &#45;phone_number:string</text>
<text text-anchor="start" x="615.935" y="-569" font-family="Helvetica,sans-Serif" font-size="10.00" fill="#000000"> &#45;additional_information:string</text>
<text text-anchor="start" x="642.608" y="-557" font-family="Helvetica,sans-Serif" font-size="10.00" fill="#000000"> &#45;primary:boolean</text>
</g>
<!-- A2&#45;&gt;A1 -->
<g id="edge15" class="edge">
<title>A2&#45;&gt;A1</title>
<path fill="none" stroke="#000000" d="M756.7759,-593.5854C778.9176,-595.2175 802.8179,-596.9792 823.8881,-598.5323"/>
<polygon fill="#000000" stroke="#000000" points="833.9842,-599.2765 823.6804,-603.0291 828.9977,-598.9089 824.0113,-598.5413 824.0113,-598.5413 824.0113,-598.5413 828.9977,-598.9089 824.3421,-594.0535 833.9842,-599.2765 833.9842,-599.2765"/>
<text text-anchor="middle" x="815.2858" y="-603.3735" font-family="Helvetica,sans-Serif" font-size="10.00" fill="#000000">1</text>
<text text-anchor="middle" x="775.4743" y="-583.4884" font-family="Helvetica,sans-Serif" font-size="10.00" fill="#000000">*</text>
</g>
<!-- A3 -->
<g id="node4" class="node">
<title>A3</title>
<polygon fill="none" stroke="#000000" points="819.5,-467 819.5,-499 950.5,-499 950.5,-467 819.5,-467"/>
<text text-anchor="start" x="829.4295" y="-480" font-family="Helvetica,sans-Serif" font-size="10.00" fill="#000000">Identity_Document_Type</text>
<polygon fill="none" stroke="#000000" points="819.5,-435 819.5,-467 950.5,-467 950.5,-435 819.5,-435"/>
<text text-anchor="start" x="844.1635" y="-448" font-family="Helvetica,sans-Serif" font-size="10.00" fill="#000000"> &#45;description:string</text>
</g>
<!-- A16 -->
<g id="node17" class="node">
<title>A16</title>
<polygon fill="#f5deb3" stroke="#000000" points="925.6487,-417 837.3513,-417 837.3513,-349 931.6487,-349 931.6487,-411 925.6487,-417"/>
<polyline fill="none" stroke="#000000" points="925.6487,-417 925.6487,-411 "/>
<polyline fill="none" stroke="#000000" points="931.6487,-411 925.6487,-411 "/>
<text text-anchor="middle" x="884.5" y="-404" font-family="Helvetica,sans-Serif" font-size="10.00" fill="#000000">id&#45;card</text>
<text text-anchor="middle" x="884.5" y="-392" font-family="Helvetica,sans-Serif" font-size="10.00" fill="#000000">birth&#45;certificate</text>
<text text-anchor="middle" x="884.5" y="-380" font-family="Helvetica,sans-Serif" font-size="10.00" fill="#000000">passport</text>
<text text-anchor="middle" x="884.5" y="-368" font-family="Helvetica,sans-Serif" font-size="10.00" fill="#000000">driver&#39;s&#45;license</text>
<text text-anchor="middle" x="884.5" y="-356" font-family="Helvetica,sans-Serif" font-size="10.00" fill="#000000">etc.</text>
</g>
<!-- A3&#45;&gt;A16 -->
<g id="edge18" class="edge">
<title>A3&#45;&gt;A16</title>
<path fill="none" stroke="#000000" stroke-dasharray="5,2" d="M884.5,-434.6592C884.5,-428.8145 884.5,-422.9697 884.5,-417.125"/>
</g>
<!-- A4 -->
<g id="node5" class="node">
<title>A4</title>
<polygon fill="none" stroke="#000000" points="629,-494 629,-526 734,-526 734,-494 629,-494"/>
<text text-anchor="start" x="639.8225" y="-507" font-family="Helvetica,sans-Serif" font-size="10.00" fill="#000000">Identity_Document</text>
<polygon fill="none" stroke="#000000" points="629,-438 629,-494 734,-494 734,-438 629,-438"/>
<text text-anchor="start" x="647.887" y="-475" font-family="Helvetica,sans-Serif" font-size="10.00" fill="#000000"> &#45;number:string</text>
<text text-anchor="start" x="638.998" y="-451" font-family="Helvetica,sans-Serif" font-size="10.00" fill="#000000">&#45;complement:string</text>
</g>
<!-- A4&#45;&gt;A3 -->
<g id="edge17" class="edge">
<title>A4&#45;&gt;A3</title>
<path fill="none" stroke="#000000" d="M733.671,-478.1176C756.5456,-476.4315 783.7721,-474.4247 808.7562,-472.5831"/>
<polygon fill="#000000" stroke="#000000" points="818.938,-471.8326 809.2959,-477.0556 813.9515,-472.2002 808.9651,-472.5678 808.9651,-472.5678 808.9651,-472.5678 813.9515,-472.2002 808.6342,-468.08 818.938,-471.8326 818.938,-471.8326"/>
<text text-anchor="middle" x="801.4822" y="-478.5945" font-family="Helvetica,sans-Serif" font-size="10.00" fill="#000000">1</text>
<text text-anchor="middle" x="751.1267" y="-465.3557" font-family="Helvetica,sans-Serif" font-size="10.00" fill="#000000">*</text>
</g>
<!-- A5 -->
<g id="node6" class="node">
<title>A5</title>
<polygon fill="none" stroke="#000000" points="622,-388 622,-420 740,-420 740,-388 622,-388"/>
<text text-anchor="start" x="668.5025" y="-401" font-family="Helvetica,sans-Serif" font-size="10.00" fill="#000000">Email</text>
<polygon fill="none" stroke="#000000" points="622,-344 622,-388 740,-388 740,-344 622,-344"/>
<text text-anchor="start" x="631.8295" y="-369" font-family="Helvetica,sans-Serif" font-size="10.00" fill="#000000"> &#45;email_address:string</text>
<text text-anchor="start" x="642.108" y="-357" font-family="Helvetica,sans-Serif" font-size="10.00" fill="#000000"> &#45;primary:boolean</text>
</g>
<!-- A6 -->
<g id="node7" class="node">
<title>A6</title>
<polygon fill="none" stroke="#000000" points="606,-294 606,-326 757,-326 757,-294 606,-294"/>
<text text-anchor="start" x="663.1625" y="-307" font-family="Helvetica,sans-Serif" font-size="10.00" fill="#000000">Address</text>
<polygon fill="none" stroke="#000000" points="606,-178 606,-294 757,-294 757,-178 606,-178"/>
<text text-anchor="start" x="637.8785" y="-275" font-family="Helvetica,sans-Serif" font-size="10.00" fill="#000000"> &#45;postal_code:string</text>
<text text-anchor="start" x="652.3315" y="-263" font-family="Helvetica,sans-Serif" font-size="10.00" fill="#000000"> &#45;street:string</text>
<text text-anchor="start" x="647.887" y="-251" font-family="Helvetica,sans-Serif" font-size="10.00" fill="#000000"> &#45;number:string</text>
<text text-anchor="start" x="615.935" y="-239" font-family="Helvetica,sans-Serif" font-size="10.00" fill="#000000"> &#45;additional_information:string</text>
<text text-anchor="start" x="634.265" y="-227" font-family="Helvetica,sans-Serif" font-size="10.00" fill="#000000"> &#45;neighborhood:string</text>
<text text-anchor="start" x="657.335" y="-215" font-family="Helvetica,sans-Serif" font-size="10.00" fill="#000000"> &#45;city:string</text>
<text text-anchor="start" x="653.996" y="-203" font-family="Helvetica,sans-Serif" font-size="10.00" fill="#000000"> &#45;state:string</text>
<text text-anchor="start" x="642.608" y="-191" font-family="Helvetica,sans-Serif" font-size="10.00" fill="#000000"> &#45;primary:boolean</text>
</g>
<!-- A7 -->
<g id="node8" class="node">
<title>A7</title>
<polygon fill="none" stroke="#000000" points="202,-684 202,-716 342,-716 342,-684 202,-684"/>
<text text-anchor="start" x="235.046" y="-697" font-family="Helvetica,sans-Serif" font-size="10.00" fill="#000000">Ensemble_Level</text>
<polygon fill="none" stroke="#000000" points="202,-640 202,-684 342,-684 342,-640 202,-640"/>
<text text-anchor="start" x="231.1635" y="-665" font-family="Helvetica,sans-Serif" font-size="10.00" fill="#000000"> &#45;description:string</text>
<text text-anchor="start" x="211.707" y="-653" font-family="Helvetica,sans-Serif" font-size="10.00" fill="#000000"> &#45;precedence_order:integer</text>
</g>
<!-- A13 -->
<g id="node14" class="node">
<title>A13</title>
<polygon fill="#f5deb3" stroke="#000000" points="323.1934,-622 214.8066,-622 214.8066,-566 329.1934,-566 329.1934,-616 323.1934,-622"/>
<polyline fill="none" stroke="#000000" points="323.1934,-622 323.1934,-616 "/>
<polyline fill="none" stroke="#000000" points="329.1934,-616 323.1934,-616 "/>
<text text-anchor="middle" x="272" y="-609" font-family="Helvetica,sans-Serif" font-size="10.00" fill="#000000">TONacional</text>
<text text-anchor="middle" x="272" y="-597" font-family="Helvetica,sans-Serif" font-size="10.00" fill="#000000">Coord.Geral</text>
<text text-anchor="middle" x="272" y="-585" font-family="Helvetica,sans-Serif" font-size="10.00" fill="#000000">Coordenadoria Sub</text>
<text text-anchor="middle" x="272" y="-573" font-family="Helvetica,sans-Serif" font-size="10.00" fill="#000000">Depto. etc.</text>
</g>
<!-- A7&#45;&gt;A13 -->
<g id="edge1" class="edge">
<title>A7&#45;&gt;A13</title>
<path fill="none" stroke="#000000" stroke-dasharray="5,2" d="M272,-639.6504C272,-633.8398 272,-628.0293 272,-622.2188"/>
</g>
<!-- A8 -->
<g id="node9" class="node">
<title>A8</title>
<polygon fill="none" stroke="#000000" points="0,-528 0,-560 152,-560 152,-528 0,-528"/>
<text text-anchor="start" x="53.7735" y="-541" font-family="Helvetica,sans-Serif" font-size="10.00" fill="#000000">Ensemble</text>
<polygon fill="none" stroke="#000000" points="0,-448 0,-528 152,-528 152,-448 0,-448"/>
<text text-anchor="start" x="46.831" y="-509" font-family="Helvetica,sans-Serif" font-size="10.00" fill="#000000"> &#45;name:string</text>
<text text-anchor="start" x="27.3655" y="-485" font-family="Helvetica,sans-Serif" font-size="10.00" fill="#000000">&#45;foundation_date:date</text>
<text text-anchor="start" x="9.868" y="-473" font-family="Helvetica,sans-Serif" font-size="10.00" fill="#000000"> &#45;leadership_purpose:boolean</text>
<text text-anchor="start" x="48.7755" y="-461" font-family="Helvetica,sans-Serif" font-size="10.00" fill="#000000"> &#45;history:text</text>
</g>
<!-- A8&#45;&gt;A7 -->
<g id="edge2" class="edge">
<title>A8&#45;&gt;A7</title>
<path fill="none" stroke="#000000" d="M127.1037,-560.2102C149.1798,-583.2183 175.897,-609.4421 202,-631 203.0158,-631.8389 204.0467,-632.6769 205.0903,-633.5131"/>
<polygon fill="#000000" stroke="#000000" points="213.3034,-639.8707 202.6412,-637.3079 209.3495,-636.8101 205.3957,-633.7494 205.3957,-633.7494 205.3957,-633.7494 209.3495,-636.8101 208.1502,-630.191 213.3034,-639.8707 213.3034,-639.8707"/>
<text text-anchor="middle" x="193.796" y="-632.4592" font-family="Helvetica,sans-Serif" font-size="10.00" fill="#000000">1 level</text>
</g>
<!-- A8&#45;&gt;A8 -->
<g id="edge3" class="edge">
<title>A8&#45;&gt;A8</title>
<path fill="none" stroke="#000000" d="M41.1364,-560.1461C45.4296,-570.6221 57.0508,-578 76,-578 89.3237,-578 99.0245,-574.3525 105.1024,-568.5452"/>
<polygon fill="#000000" stroke="#000000" points="110.8636,-560.1461 108.918,-570.938 108.0353,-564.2694 105.2071,-568.3926 105.2071,-568.3926 105.2071,-568.3926 108.0353,-564.2694 101.4961,-565.8472 110.8636,-560.1461 110.8636,-560.1461"/>
<text text-anchor="middle" x="107.5807" y="-576.8749" font-family="Helvetica,sans-Serif" font-size="10.00" fill="#000000">ensembles *</text>
<text text-anchor="middle" x="56.7535" y="-569.6404" font-family="Helvetica,sans-Serif" font-size="10.00" fill="#000000">1</text>
</g>
<!-- A9 -->
<g id="node10" class="node">
<title>A9</title>
<polygon fill="none" stroke="#000000" points="210,-516 210,-548 335,-548 335,-516 210,-516"/>
<text text-anchor="start" x="256.938" y="-529" font-family="Helvetica,sans-Serif" font-size="10.00" fill="#000000">Leader</text>
<polygon fill="none" stroke="#000000" points="210,-460 210,-516 335,-516 335,-460 210,-460"/>
<text text-anchor="start" x="233.608" y="-497" font-family="Helvetica,sans-Serif" font-size="10.00" fill="#000000"> &#45;primary:boolean</text>
<text text-anchor="start" x="219.701" y="-473" font-family="Helvetica,sans-Serif" font-size="10.00" fill="#000000">&#45;appointment_date:date</text>
</g>
<!-- A8&#45;&gt;A9 -->
<g id="edge4" class="edge">
<title>A8&#45;&gt;A9</title>
<path fill="none" stroke="#000000" d="M164.1692,-504C175.8228,-504 187.6637,-504 199.0238,-504"/>
<polygon fill="#000000" stroke="#000000" points="164.0592,-504.0001 158.0592,-508 152.0592,-504 158.0593,-500 164.0592,-504.0001"/>
<polygon fill="#000000" stroke="#000000" points="209.3022,-504 199.3022,-508.5001 204.3022,-504 199.3022,-504.0001 199.3022,-504.0001 199.3022,-504.0001 204.3022,-504 199.3021,-499.5001 209.3022,-504 209.3022,-504"/>
<text text-anchor="middle" x="191.176" y="-509.4524" font-family="Helvetica,sans-Serif" font-size="10.00" fill="#000000">1..*</text>
<text text-anchor="middle" x="170.1854" y="-492.5476" font-family="Helvetica,sans-Serif" font-size="10.00" fill="#000000">*</text>
</g>
<!-- A11 -->
<g id="node12" class="node">
<title>A11</title>
<polygon fill="none" stroke="#000000" points="396.5,-474 396.5,-506 538.5,-506 538.5,-474 396.5,-474"/>
<text text-anchor="start" x="449.168" y="-487" font-family="Helvetica,sans-Serif" font-size="10.00" fill="#000000">Member</text>
<polygon fill="none" stroke="#000000" points="396.5,-358 396.5,-474 538.5,-474 538.5,-358 396.5,-358"/>
<text text-anchor="start" x="438.331" y="-455" font-family="Helvetica,sans-Serif" font-size="10.00" fill="#000000"> &#45;name:string</text>
<text text-anchor="start" x="427.764" y="-431" font-family="Helvetica,sans-Serif" font-size="10.00" fill="#000000">&#45;joining_date:date</text>
<text text-anchor="start" x="435.2675" y="-407" font-family="Helvetica,sans-Serif" font-size="10.00" fill="#000000">&#45;birthdate:date</text>
<text text-anchor="start" x="415.5505" y="-383" font-family="Helvetica,sans-Serif" font-size="10.00" fill="#000000">&#45;food_restrictions:string</text>
<text text-anchor="start" x="406.099" y="-371" font-family="Helvetica,sans-Serif" font-size="10.00" fill="#000000"> &#45;additional_information:text</text>
</g>
<!-- A8&#45;&gt;A11 -->
<g id="edge5" class="edge">
<title>A8&#45;&gt;A11</title>
<path fill="none" stroke="#000000" d="M163.753,-462.838C176.3727,-458.1757 189.3654,-454.0224 202,-451 262.6947,-436.4808 333.2375,-431.9927 386.3478,-430.9929"/>
<polygon fill="#000000" stroke="#000000" points="163.49,-462.9391 159.3249,-468.8257 152.2891,-467.245 156.4543,-461.3584 163.49,-462.9391"/>
<polygon fill="#000000" stroke="#000000" points="396.3921,-430.8413 386.4612,-435.4918 391.3926,-430.9168 386.3932,-430.9923 386.3932,-430.9923 386.3932,-430.9923 391.3926,-430.9168 386.3252,-426.4928 396.3921,-430.8413 396.3921,-430.8413"/>
<text text-anchor="middle" x="378.3955" y="-436.5662" font-family="Helvetica,sans-Serif" font-size="10.00" fill="#000000">members 1..*</text>
<text text-anchor="middle" x="166.1753" y="-449.8514" font-family="Helvetica,sans-Serif" font-size="10.00" fill="#000000">1</text>
</g>
<!-- A10 -->
<g id="node11" class="node">
<title>A10</title>
<polygon fill="none" stroke="#000000" points="392.5,-674 392.5,-706 543.5,-706 543.5,-674 392.5,-674"/>
<text text-anchor="start" x="442.16" y="-687" font-family="Helvetica,sans-Serif" font-size="10.00" fill="#000000">LeaderRole</text>
<polygon fill="none" stroke="#000000" points="392.5,-630 392.5,-674 543.5,-674 543.5,-630 392.5,-630"/>
<text text-anchor="start" x="402.435" y="-655" font-family="Helvetica,sans-Serif" font-size="10.00" fill="#000000"> &#45;additional_information:string</text>
<text text-anchor="start" x="429.108" y="-643" font-family="Helvetica,sans-Serif" font-size="10.00" fill="#000000"> &#45;primary:boolean</text>
</g>
<!-- A9&#45;&gt;A10 -->
<g id="edge11" class="edge">
<title>A9&#45;&gt;A10</title>
<path fill="none" stroke="#000000" d="M331.0689,-548.2134C334.7916,-551.1569 338.4618,-554.1029 342,-557 367.7803,-578.1094 395.6172,-602.5522 418.5084,-623.1188"/>
<polygon fill="#000000" stroke="#000000" points="426.0717,-629.9345 415.6305,-626.583 422.3574,-626.5873 418.643,-623.2401 418.643,-623.2401 418.643,-623.2401 422.3574,-626.5873 421.6555,-619.8972 426.0717,-629.9345 426.0717,-629.9345"/>
<text text-anchor="middle" x="406.948" y="-621.0792" font-family="Helvetica,sans-Serif" font-size="10.00" fill="#000000">positions_through *</text>
<text text-anchor="middle" x="350.5264" y="-549.84" font-family="Helvetica,sans-Serif" font-size="10.00" fill="#000000">1</text>
</g>
<!-- A9&#45;&gt;A11 -->
<g id="edge14" class="edge">
<title>A9&#45;&gt;A11</title>
<path fill="none" stroke="#000000" d="M344.4982,-477.2999C361.4426,-471.0595 379.4737,-464.4189 396.3583,-458.2005"/>
<polygon fill="#000000" stroke="#000000" points="334.6641,-480.9217 342.4928,-473.2429 339.356,-479.1937 344.048,-477.4657 344.048,-477.4657 344.048,-477.4657 339.356,-479.1937 345.6032,-481.6884 334.6641,-480.9217 334.6641,-480.9217"/>
<text text-anchor="middle" x="382.2701" y="-469.3964" font-family="Helvetica,sans-Serif" font-size="10.00" fill="#000000">1</text>
<text text-anchor="middle" x="348.7523" y="-463.7258" font-family="Helvetica,sans-Serif" font-size="10.00" fill="#000000">appointments *</text>
</g>
<!-- A10&#45;&gt;A0 -->
<g id="edge12" class="edge">
<title>A10&#45;&gt;A0</title>
<path fill="none" stroke="#000000" d="M543.0726,-705.5208C562.1268,-714.981 582.6337,-725.1624 601.8579,-734.707"/>
<polygon fill="#000000" stroke="#000000" points="610.8842,-739.1884 599.9262,-738.772 606.4058,-736.9649 601.9274,-734.7414 601.9274,-734.7414 601.9274,-734.7414 606.4058,-736.9649 603.9285,-730.7108 610.8842,-739.1884 610.8842,-739.1884"/>
<text text-anchor="middle" x="590.8902" y="-735.6984" font-family="Helvetica,sans-Serif" font-size="10.00" fill="#000000">act_as *</text>
<text text-anchor="middle" x="563.0666" y="-703.0108" font-family="Helvetica,sans-Serif" font-size="10.00" fill="#000000">1</text>
</g>
<!-- A11&#45;&gt;A2 -->
<g id="edge7" class="edge">
<title>A11&#45;&gt;A2</title>
<path fill="none" stroke="#000000" d="M538.7645,-493.4817C556.1322,-507.6204 574.9234,-522.2399 593,-535 594.4525,-536.0253 595.9253,-537.0511 597.4146,-538.0758"/>
<polygon fill="#000000" stroke="#000000" points="606.0989,-543.9218 595.2904,-542.0705 601.9511,-541.1297 597.8033,-538.3375 597.8033,-538.3375 597.8033,-538.3375 601.9511,-541.1297 600.3163,-534.6045 606.0989,-543.9218 606.0989,-543.9218"/>
<text text-anchor="middle" x="586.3422" y="-537.8113" font-family="Helvetica,sans-Serif" font-size="10.00" fill="#000000">phones *</text>
<text text-anchor="middle" x="558.1695" y="-495.3237" font-family="Helvetica,sans-Serif" font-size="10.00" fill="#000000">1</text>
</g>
<!-- A11&#45;&gt;A4 -->
<g id="edge10" class="edge">
<title>A11&#45;&gt;A4</title>
<path fill="none" stroke="#000000" d="M538.5924,-448.6493C564.5077,-454.7184 593.5906,-461.5294 618.6855,-467.4065"/>
<polygon fill="#000000" stroke="#000000" points="628.4515,-469.6936 617.6888,-471.7947 623.5833,-468.5534 618.715,-467.4133 618.715,-467.4133 618.715,-467.4133 623.5833,-468.5534 619.7411,-463.0318 628.4515,-469.6936 628.4515,-469.6936"/>
<text text-anchor="middle" x="608.8756" y="-470.7901" font-family="Helvetica,sans-Serif" font-size="10.00" fill="#000000">*</text>
<text text-anchor="middle" x="558.1684" y="-441.5528" font-family="Helvetica,sans-Serif" font-size="10.00" fill="#000000">1</text>
</g>
<!-- A11&#45;&gt;A5 -->
<g id="edge8" class="edge">
<title>A11&#45;&gt;A5</title>
<path fill="none" stroke="#000000" d="M538.5924,-415.3507C562.2617,-409.8076 588.5734,-403.6456 612.0756,-398.1415"/>
<polygon fill="#000000" stroke="#000000" points="621.9601,-395.8267 613.2497,-402.4884 617.0918,-396.9668 612.2236,-398.107 612.2236,-398.107 612.2236,-398.107 617.0918,-396.9668 611.1974,-393.7255 621.9601,-395.8267 621.9601,-395.8267"/>
<text text-anchor="middle" x="606.2388" y="-405.1895" font-family="Helvetica,sans-Serif" font-size="10.00" fill="#000000">emails *</text>
<text text-anchor="middle" x="554.3137" y="-399.9879" font-family="Helvetica,sans-Serif" font-size="10.00" fill="#000000">1</text>
</g>
<!-- A11&#45;&gt;A6 -->
<g id="edge9" class="edge">
<title>A11&#45;&gt;A6</title>
<path fill="none" stroke="#000000" d="M538.5924,-372.0626C557.547,-356.0822 578.1961,-338.6731 597.74,-322.1958"/>
<polygon fill="#000000" stroke="#000000" points="605.458,-315.6888 600.7132,-325.5751 601.6352,-318.9117 597.8125,-322.1346 597.8125,-322.1346 597.8125,-322.1346 601.6352,-318.9117 594.9119,-318.6942 605.458,-315.6888 605.458,-315.6888"/>
<text text-anchor="middle" x="597.048" y="-330.8347" font-family="Helvetica,sans-Serif" font-size="10.00" fill="#000000">addresses *</text>
<text text-anchor="middle" x="547.0024" y="-350.9167" font-family="Helvetica,sans-Serif" font-size="10.00" fill="#000000">1</text>
</g>
<!-- A12 -->
<g id="node13" class="node">
<title>A12</title>
<polygon fill="none" stroke="#000000" points="593,-128 593,-160 769,-160 769,-128 593,-128"/>
<text text-anchor="start" x="620.9875" y="-141" font-family="Helvetica,sans-Serif" font-size="10.00" fill="#000000">Organizational_Information</text>
<polygon fill="none" stroke="#000000" points="593,0 593,-128 769,-128 769,0 593,0"/>
<text text-anchor="start" x="626.8195" y="-109" font-family="Helvetica,sans-Serif" font-size="10.00" fill="#000000"> &#45;associated_code:string</text>
<text text-anchor="start" x="631.26" y="-97" font-family="Helvetica,sans-Serif" font-size="10.00" fill="#000000"> &#45;convertion_date:date</text>
<text text-anchor="start" x="626.5505" y="-85" font-family="Helvetica,sans-Serif" font-size="10.00" fill="#000000"> &#45;vertical_structure:jsonb</text>
<text text-anchor="start" x="647.1075" y="-73" font-family="Helvetica,sans-Serif" font-size="10.00" fill="#000000"> &#45;position:string</text>
<text text-anchor="start" x="639.328" y="-61" font-family="Helvetica,sans-Serif" font-size="10.00" fill="#000000"> &#45;study_level:string</text>
<text text-anchor="start" x="619.321" y="-49" font-family="Helvetica,sans-Serif" font-size="10.00" fill="#000000"> &#45;conversions_made:integer</text>
<text text-anchor="start" x="614.872" y="-37" font-family="Helvetica,sans-Serif" font-size="10.00" fill="#000000"> &#45;discussion_meeting:boolean</text>
<text text-anchor="start" x="607.645" y="-25" font-family="Helvetica,sans-Serif" font-size="10.00" fill="#000000"> &#45;sustaining_contribution:boolean</text>
<text text-anchor="start" x="602.925" y="-13" font-family="Helvetica,sans-Serif" font-size="10.00" fill="#000000"> &#45;publications_subscription:boolean</text>
</g>
<!-- A11&#45;&gt;A12 -->
<g id="edge6" class="edge">
<title>A11&#45;&gt;A12</title>
<path fill="none" stroke="#000000" d="M495.0751,-357.8226C517.2423,-303.0587 551.4803,-228.0917 593,-169 593.1288,-168.8167 593.258,-168.6333 593.3876,-168.4501"/>
<polygon fill="#000000" stroke="#000000" points="599.4618,-160.2357 597.1344,-170.9518 596.489,-164.2559 593.5162,-168.2762 593.5162,-168.2762 593.5162,-168.2762 596.489,-164.2559 589.8979,-165.6007 599.4618,-160.2357 599.4618,-160.2357"/>
<text text-anchor="middle" x="595.4808" y="-176.8355" font-family="Helvetica,sans-Serif" font-size="10.00" fill="#000000">1</text>
</g>
</g>
</svg>
